<?xml version="1.0" encoding="utf-8" standalone="no"?>
<!DOCTYPE svg PUBLIC "-//W3C//DTD SVG 1.1//EN"
  "http://www.w3.org/Graphics/SVG/1.1/DTD/svg11.dtd">
<!-- Created with matplotlib (https://matplotlib.org/) -->
<svg height="324.743312pt" version="1.1" viewBox="0 0 406.621562 324.743312" width="406.621562pt" xmlns="http://www.w3.org/2000/svg" xmlns:xlink="http://www.w3.org/1999/xlink">
 <metadata>
  <rdf:RDF xmlns:cc="http://creativecommons.org/ns#" xmlns:dc="http://purl.org/dc/elements/1.1/" xmlns:rdf="http://www.w3.org/1999/02/22-rdf-syntax-ns#">
   <cc:Work>
    <dc:type rdf:resource="http://purl.org/dc/dcmitype/StillImage"/>
    <dc:date>2021-09-28T11:13:52.074704</dc:date>
    <dc:format>image/svg+xml</dc:format>
    <dc:creator>
     <cc:Agent>
      <dc:title>Matplotlib v3.3.2, https://matplotlib.org/</dc:title>
     </cc:Agent>
    </dc:creator>
   </cc:Work>
  </rdf:RDF>
 </metadata>
 <defs>
  <style type="text/css">*{stroke-linecap:butt;stroke-linejoin:round;}</style>
 </defs>
 <g id="figure_1">
  <g id="patch_1">
   <path d="M 0 324.743312 
L 406.621562 324.743312 
L 406.621562 0 
L 0 0 
z
" style="fill:#ffffff;"/>
  </g>
  <g id="axes_1">
   <g id="patch_2">
    <path d="M 42.301563 282.4605 
L 399.421563 282.4605 
L 399.421563 21.5325 
L 42.301563 21.5325 
z
" style="fill:#ffffff;"/>
   </g>
   <g id="patch_3">
    <path clip-path="url(#p32804eb2c4)" d="M 58.53429 282.4605 
L 67.153437 282.4605 
L 67.153437 262.202115 
L 58.53429 262.202115 
z
" style="fill:#1f77b4;"/>
   </g>
   <g id="patch_4">
    <path clip-path="url(#p32804eb2c4)" d="M 68.11112 282.4605 
L 76.730267 282.4605 
L 76.730267 279.759382 
L 68.11112 279.759382 
z
" style="fill:#1f77b4;"/>
   </g>
   <g id="patch_5">
    <path clip-path="url(#p32804eb2c4)" d="M 77.68795 282.4605 
L 86.307097 282.4605 
L 86.307097 279.759382 
L 77.68795 279.759382 
z
" style="fill:#1f77b4;"/>
   </g>
   <g id="patch_6">
    <path clip-path="url(#p32804eb2c4)" d="M 87.264781 282.4605 
L 95.883928 282.4605 
L 95.883928 282.4605 
L 87.264781 282.4605 
z
" style="fill:#1f77b4;"/>
   </g>
   <g id="patch_7">
    <path clip-path="url(#p32804eb2c4)" d="M 96.841611 282.4605 
L 105.460758 282.4605 
L 105.460758 281.109941 
L 96.841611 281.109941 
z
" style="fill:#1f77b4;"/>
   </g>
   <g id="patch_8">
    <path clip-path="url(#p32804eb2c4)" d="M 106.418441 282.4605 
L 115.037588 282.4605 
L 115.037588 282.4605 
L 106.418441 282.4605 
z
" style="fill:#1f77b4;"/>
   </g>
   <g id="patch_9">
    <path clip-path="url(#p32804eb2c4)" d="M 115.995271 282.4605 
L 124.614418 282.4605 
L 124.614418 282.4605 
L 115.995271 282.4605 
z
" style="fill:#1f77b4;"/>
   </g>
   <g id="patch_10">
    <path clip-path="url(#p32804eb2c4)" d="M 125.572102 282.4605 
L 134.191249 282.4605 
L 134.191249 282.4605 
L 125.572102 282.4605 
z
" style="fill:#1f77b4;"/>
   </g>
   <g id="patch_11">
    <path clip-path="url(#p32804eb2c4)" d="M 135.148932 282.4605 
L 143.768079 282.4605 
L 143.768079 282.4605 
L 135.148932 282.4605 
z
" style="fill:#1f77b4;"/>
   </g>
   <g id="patch_12">
    <path clip-path="url(#p32804eb2c4)" d="M 144.725762 282.4605 
L 153.344909 282.4605 
L 153.344909 282.4605 
L 144.725762 282.4605 
z
" style="fill:#1f77b4;"/>
   </g>
   <g id="patch_13">
    <path clip-path="url(#p32804eb2c4)" d="M 154.302592 282.4605 
L 162.921739 282.4605 
L 162.921739 282.4605 
L 154.302592 282.4605 
z
" style="fill:#1f77b4;"/>
   </g>
   <g id="patch_14">
    <path clip-path="url(#p32804eb2c4)" d="M 163.879423 282.4605 
L 172.49857 282.4605 
L 172.49857 282.4605 
L 163.879423 282.4605 
z
" style="fill:#1f77b4;"/>
   </g>
   <g id="patch_15">
    <path clip-path="url(#p32804eb2c4)" d="M 173.456253 282.4605 
L 182.0754 282.4605 
L 182.0754 282.4605 
L 173.456253 282.4605 
z
" style="fill:#1f77b4;"/>
   </g>
   <g id="patch_16">
    <path clip-path="url(#p32804eb2c4)" d="M 183.033083 282.4605 
L 191.65223 282.4605 
L 191.65223 282.4605 
L 183.033083 282.4605 
z
" style="fill:#1f77b4;"/>
   </g>
   <g id="patch_17">
    <path clip-path="url(#p32804eb2c4)" d="M 192.609913 282.4605 
L 201.22906 282.4605 
L 201.22906 282.4605 
L 192.609913 282.4605 
z
" style="fill:#1f77b4;"/>
   </g>
   <g id="patch_18">
    <path clip-path="url(#p32804eb2c4)" d="M 202.186744 282.4605 
L 210.805891 282.4605 
L 210.805891 282.4605 
L 202.186744 282.4605 
z
" style="fill:#1f77b4;"/>
   </g>
   <g id="patch_19">
    <path clip-path="url(#p32804eb2c4)" d="M 211.763574 282.4605 
L 220.382721 282.4605 
L 220.382721 282.4605 
L 211.763574 282.4605 
z
" style="fill:#1f77b4;"/>
   </g>
   <g id="patch_20">
    <path clip-path="url(#p32804eb2c4)" d="M 221.340404 282.4605 
L 229.959551 282.4605 
L 229.959551 282.4605 
L 221.340404 282.4605 
z
" style="fill:#1f77b4;"/>
   </g>
   <g id="patch_21">
    <path clip-path="url(#p32804eb2c4)" d="M 230.917234 282.4605 
L 239.536381 282.4605 
L 239.536381 282.4605 
L 230.917234 282.4605 
z
" style="fill:#1f77b4;"/>
   </g>
   <g id="patch_22">
    <path clip-path="url(#p32804eb2c4)" d="M 240.494065 282.4605 
L 249.113212 282.4605 
L 249.113212 282.4605 
L 240.494065 282.4605 
z
" style="fill:#1f77b4;"/>
   </g>
   <g id="patch_23">
    <path clip-path="url(#p32804eb2c4)" d="M 250.070895 282.4605 
L 258.690042 282.4605 
L 258.690042 282.4605 
L 250.070895 282.4605 
z
" style="fill:#1f77b4;"/>
   </g>
   <g id="patch_24">
    <path clip-path="url(#p32804eb2c4)" d="M 259.647725 282.4605 
L 268.266872 282.4605 
L 268.266872 282.4605 
L 259.647725 282.4605 
z
" style="fill:#1f77b4;"/>
   </g>
   <g id="patch_25">
    <path clip-path="url(#p32804eb2c4)" d="M 269.224555 282.4605 
L 277.843702 282.4605 
L 277.843702 282.4605 
L 269.224555 282.4605 
z
" style="fill:#1f77b4;"/>
   </g>
   <g id="patch_26">
    <path clip-path="url(#p32804eb2c4)" d="M 278.801386 282.4605 
L 287.420533 282.4605 
L 287.420533 282.4605 
L 278.801386 282.4605 
z
" style="fill:#1f77b4;"/>
   </g>
   <g id="patch_27">
    <path clip-path="url(#p32804eb2c4)" d="M 288.378216 282.4605 
L 296.997363 282.4605 
L 296.997363 282.4605 
L 288.378216 282.4605 
z
" style="fill:#1f77b4;"/>
   </g>
   <g id="patch_28">
    <path clip-path="url(#p32804eb2c4)" d="M 297.955046 282.4605 
L 306.574193 282.4605 
L 306.574193 282.4605 
L 297.955046 282.4605 
z
" style="fill:#1f77b4;"/>
   </g>
   <g id="patch_29">
    <path clip-path="url(#p32804eb2c4)" d="M 307.531876 282.4605 
L 316.151023 282.4605 
L 316.151023 282.4605 
L 307.531876 282.4605 
z
" style="fill:#1f77b4;"/>
   </g>
   <g id="patch_30">
    <path clip-path="url(#p32804eb2c4)" d="M 317.108707 282.4605 
L 325.727854 282.4605 
L 325.727854 282.4605 
L 317.108707 282.4605 
z
" style="fill:#1f77b4;"/>
   </g>
   <g id="patch_31">
    <path clip-path="url(#p32804eb2c4)" d="M 326.685537 282.4605 
L 335.304684 282.4605 
L 335.304684 282.4605 
L 326.685537 282.4605 
z
" style="fill:#1f77b4;"/>
   </g>
   <g id="patch_32">
    <path clip-path="url(#p32804eb2c4)" d="M 336.262367 282.4605 
L 344.881514 282.4605 
L 344.881514 282.4605 
L 336.262367 282.4605 
z
" style="fill:#1f77b4;"/>
   </g>
   <g id="patch_33">
    <path clip-path="url(#p32804eb2c4)" d="M 345.839197 282.4605 
L 354.458344 282.4605 
L 354.458344 282.4605 
L 345.839197 282.4605 
z
" style="fill:#1f77b4;"/>
   </g>
   <g id="patch_34">
    <path clip-path="url(#p32804eb2c4)" d="M 355.416028 282.4605 
L 364.035175 282.4605 
L 364.035175 282.4605 
L 355.416028 282.4605 
z
" style="fill:#1f77b4;"/>
   </g>
   <g id="patch_35">
    <path clip-path="url(#p32804eb2c4)" d="M 364.992858 282.4605 
L 373.612005 282.4605 
L 373.612005 282.4605 
L 364.992858 282.4605 
z
" style="fill:#1f77b4;"/>
   </g>
   <g id="patch_36">
    <path clip-path="url(#p32804eb2c4)" d="M 374.569688 282.4605 
L 383.188835 282.4605 
L 383.188835 282.4605 
L 374.569688 282.4605 
z
" style="fill:#1f77b4;"/>
   </g>
   <g id="patch_37">
    <path clip-path="url(#p32804eb2c4)" d="M 58.53429 262.202115 
L 67.153437 262.202115 
L 67.153437 239.242612 
L 58.53429 239.242612 
z
" style="fill:#ff7f0e;"/>
   </g>
   <g id="patch_38">
    <path clip-path="url(#p32804eb2c4)" d="M 68.11112 279.759382 
L 76.730267 279.759382 
L 76.730267 258.150438 
L 68.11112 258.150438 
z
" style="fill:#ff7f0e;"/>
   </g>
   <g id="patch_39">
    <path clip-path="url(#p32804eb2c4)" d="M 77.68795 279.759382 
L 86.307097 279.759382 
L 86.307097 277.058264 
L 77.68795 277.058264 
z
" style="fill:#ff7f0e;"/>
   </g>
   <g id="patch_40">
    <path clip-path="url(#p32804eb2c4)" d="M 87.264781 282.4605 
L 95.883928 282.4605 
L 95.883928 278.408823 
L 87.264781 278.408823 
z
" style="fill:#ff7f0e;"/>
   </g>
   <g id="patch_41">
    <path clip-path="url(#p32804eb2c4)" d="M 96.841611 281.109941 
L 105.460758 281.109941 
L 105.460758 268.95491 
L 96.841611 268.95491 
z
" style="fill:#ff7f0e;"/>
   </g>
   <g id="patch_42">
    <path clip-path="url(#p32804eb2c4)" d="M 106.418441 282.4605 
L 115.037588 282.4605 
L 115.037588 277.058264 
L 106.418441 277.058264 
z
" style="fill:#ff7f0e;"/>
   </g>
   <g id="patch_43">
    <path clip-path="url(#p32804eb2c4)" d="M 115.995271 282.4605 
L 124.614418 282.4605 
L 124.614418 279.759382 
L 115.995271 279.759382 
z
" style="fill:#ff7f0e;"/>
   </g>
   <g id="patch_44">
    <path clip-path="url(#p32804eb2c4)" d="M 125.572102 282.4605 
L 134.191249 282.4605 
L 134.191249 278.408823 
L 125.572102 278.408823 
z
" style="fill:#ff7f0e;"/>
   </g>
   <g id="patch_45">
    <path clip-path="url(#p32804eb2c4)" d="M 135.148932 282.4605 
L 143.768079 282.4605 
L 143.768079 281.109941 
L 135.148932 281.109941 
z
" style="fill:#ff7f0e;"/>
   </g>
   <g id="patch_46">
    <path clip-path="url(#p32804eb2c4)" d="M 144.725762 282.4605 
L 153.344909 282.4605 
L 153.344909 281.109941 
L 144.725762 281.109941 
z
" style="fill:#ff7f0e;"/>
   </g>
   <g id="patch_47">
    <path clip-path="url(#p32804eb2c4)" d="M 154.302592 282.4605 
L 162.921739 282.4605 
L 162.921739 282.4605 
L 154.302592 282.4605 
z
" style="fill:#ff7f0e;"/>
   </g>
   <g id="patch_48">
    <path clip-path="url(#p32804eb2c4)" d="M 163.879423 282.4605 
L 172.49857 282.4605 
L 172.49857 282.4605 
L 163.879423 282.4605 
z
" style="fill:#ff7f0e;"/>
   </g>
   <g id="patch_49">
    <path clip-path="url(#p32804eb2c4)" d="M 173.456253 282.4605 
L 182.0754 282.4605 
L 182.0754 278.408823 
L 173.456253 278.408823 
z
" style="fill:#ff7f0e;"/>
   </g>
   <g id="patch_50">
    <path clip-path="url(#p32804eb2c4)" d="M 183.033083 282.4605 
L 191.65223 282.4605 
L 191.65223 282.4605 
L 183.033083 282.4605 
z
" style="fill:#ff7f0e;"/>
   </g>
   <g id="patch_51">
    <path clip-path="url(#p32804eb2c4)" d="M 192.609913 282.4605 
L 201.22906 282.4605 
L 201.22906 281.109941 
L 192.609913 281.109941 
z
" style="fill:#ff7f0e;"/>
   </g>
   <g id="patch_52">
    <path clip-path="url(#p32804eb2c4)" d="M 202.186744 282.4605 
L 210.805891 282.4605 
L 210.805891 282.4605 
L 202.186744 282.4605 
z
" style="fill:#ff7f0e;"/>
   </g>
   <g id="patch_53">
    <path clip-path="url(#p32804eb2c4)" d="M 211.763574 282.4605 
L 220.382721 282.4605 
L 220.382721 281.109941 
L 211.763574 281.109941 
z
" style="fill:#ff7f0e;"/>
   </g>
   <g id="patch_54">
    <path clip-path="url(#p32804eb2c4)" d="M 221.340404 282.4605 
L 229.959551 282.4605 
L 229.959551 281.109941 
L 221.340404 281.109941 
z
" style="fill:#ff7f0e;"/>
   </g>
   <g id="patch_55">
    <path clip-path="url(#p32804eb2c4)" d="M 230.917234 282.4605 
L 239.536381 282.4605 
L 239.536381 282.4605 
L 230.917234 282.4605 
z
" style="fill:#ff7f0e;"/>
   </g>
   <g id="patch_56">
    <path clip-path="url(#p32804eb2c4)" d="M 240.494065 282.4605 
L 249.113212 282.4605 
L 249.113212 282.4605 
L 240.494065 282.4605 
z
" style="fill:#ff7f0e;"/>
   </g>
   <g id="patch_57">
    <path clip-path="url(#p32804eb2c4)" d="M 250.070895 282.4605 
L 258.690042 282.4605 
L 258.690042 281.109941 
L 250.070895 281.109941 
z
" style="fill:#ff7f0e;"/>
   </g>
   <g id="patch_58">
    <path clip-path="url(#p32804eb2c4)" d="M 259.647725 282.4605 
L 268.266872 282.4605 
L 268.266872 282.4605 
L 259.647725 282.4605 
z
" style="fill:#ff7f0e;"/>
   </g>
   <g id="patch_59">
    <path clip-path="url(#p32804eb2c4)" d="M 269.224555 282.4605 
L 277.843702 282.4605 
L 277.843702 282.4605 
L 269.224555 282.4605 
z
" style="fill:#ff7f0e;"/>
   </g>
   <g id="patch_60">
    <path clip-path="url(#p32804eb2c4)" d="M 278.801386 282.4605 
L 287.420533 282.4605 
L 287.420533 282.4605 
L 278.801386 282.4605 
z
" style="fill:#ff7f0e;"/>
   </g>
   <g id="patch_61">
    <path clip-path="url(#p32804eb2c4)" d="M 288.378216 282.4605 
L 296.997363 282.4605 
L 296.997363 282.4605 
L 288.378216 282.4605 
z
" style="fill:#ff7f0e;"/>
   </g>
   <g id="patch_62">
    <path clip-path="url(#p32804eb2c4)" d="M 297.955046 282.4605 
L 306.574193 282.4605 
L 306.574193 282.4605 
L 297.955046 282.4605 
z
" style="fill:#ff7f0e;"/>
   </g>
   <g id="patch_63">
    <path clip-path="url(#p32804eb2c4)" d="M 307.531876 282.4605 
L 316.151023 282.4605 
L 316.151023 282.4605 
L 307.531876 282.4605 
z
" style="fill:#ff7f0e;"/>
   </g>
   <g id="patch_64">
    <path clip-path="url(#p32804eb2c4)" d="M 317.108707 282.4605 
L 325.727854 282.4605 
L 325.727854 282.4605 
L 317.108707 282.4605 
z
" style="fill:#ff7f0e;"/>
   </g>
   <g id="patch_65">
    <path clip-path="url(#p32804eb2c4)" d="M 326.685537 282.4605 
L 335.304684 282.4605 
L 335.304684 282.4605 
L 326.685537 282.4605 
z
" style="fill:#ff7f0e;"/>
   </g>
   <g id="patch_66">
    <path clip-path="url(#p32804eb2c4)" d="M 336.262367 282.4605 
L 344.881514 282.4605 
L 344.881514 282.4605 
L 336.262367 282.4605 
z
" style="fill:#ff7f0e;"/>
   </g>
   <g id="patch_67">
    <path clip-path="url(#p32804eb2c4)" d="M 345.839197 282.4605 
L 354.458344 282.4605 
L 354.458344 282.4605 
L 345.839197 282.4605 
z
" style="fill:#ff7f0e;"/>
   </g>
   <g id="patch_68">
    <path clip-path="url(#p32804eb2c4)" d="M 355.416028 282.4605 
L 364.035175 282.4605 
L 364.035175 282.4605 
L 355.416028 282.4605 
z
" style="fill:#ff7f0e;"/>
   </g>
   <g id="patch_69">
    <path clip-path="url(#p32804eb2c4)" d="M 364.992858 282.4605 
L 373.612005 282.4605 
L 373.612005 282.4605 
L 364.992858 282.4605 
z
" style="fill:#ff7f0e;"/>
   </g>
   <g id="patch_70">
    <path clip-path="url(#p32804eb2c4)" d="M 374.569688 282.4605 
L 383.188835 282.4605 
L 383.188835 282.4605 
L 374.569688 282.4605 
z
" style="fill:#ff7f0e;"/>
   </g>
   <g id="patch_71">
    <path clip-path="url(#p32804eb2c4)" d="M 58.53429 239.242612 
L 67.153437 239.242612 
L 67.153437 204.128078 
L 58.53429 204.128078 
z
" style="fill:#2ca02c;"/>
   </g>
   <g id="patch_72">
    <path clip-path="url(#p32804eb2c4)" d="M 68.11112 258.150438 
L 76.730267 258.150438 
L 76.730267 239.242612 
L 68.11112 239.242612 
z
" style="fill:#2ca02c;"/>
   </g>
   <g id="patch_73">
    <path clip-path="url(#p32804eb2c4)" d="M 77.68795 277.058264 
L 86.307097 277.058264 
L 86.307097 268.95491 
L 77.68795 268.95491 
z
" style="fill:#2ca02c;"/>
   </g>
   <g id="patch_74">
    <path clip-path="url(#p32804eb2c4)" d="M 87.264781 278.408823 
L 95.883928 278.408823 
L 95.883928 271.656028 
L 87.264781 271.656028 
z
" style="fill:#2ca02c;"/>
   </g>
   <g id="patch_75">
    <path clip-path="url(#p32804eb2c4)" d="M 96.841611 268.95491 
L 105.460758 268.95491 
L 105.460758 266.253792 
L 96.841611 266.253792 
z
" style="fill:#2ca02c;"/>
   </g>
   <g id="patch_76">
    <path clip-path="url(#p32804eb2c4)" d="M 106.418441 277.058264 
L 115.037588 277.058264 
L 115.037588 271.656028 
L 106.418441 271.656028 
z
" style="fill:#2ca02c;"/>
   </g>
   <g id="patch_77">
    <path clip-path="url(#p32804eb2c4)" d="M 115.995271 279.759382 
L 124.614418 279.759382 
L 124.614418 278.408823 
L 115.995271 278.408823 
z
" style="fill:#2ca02c;"/>
   </g>
   <g id="patch_78">
    <path clip-path="url(#p32804eb2c4)" d="M 125.572102 278.408823 
L 134.191249 278.408823 
L 134.191249 277.058264 
L 125.572102 277.058264 
z
" style="fill:#2ca02c;"/>
   </g>
   <g id="patch_79">
    <path clip-path="url(#p32804eb2c4)" d="M 135.148932 281.109941 
L 143.768079 281.109941 
L 143.768079 278.408823 
L 135.148932 278.408823 
z
" style="fill:#2ca02c;"/>
   </g>
   <g id="patch_80">
    <path clip-path="url(#p32804eb2c4)" d="M 144.725762 281.109941 
L 153.344909 281.109941 
L 153.344909 281.109941 
L 144.725762 281.109941 
z
" style="fill:#2ca02c;"/>
   </g>
   <g id="patch_81">
    <path clip-path="url(#p32804eb2c4)" d="M 154.302592 282.4605 
L 162.921739 282.4605 
L 162.921739 282.4605 
L 154.302592 282.4605 
z
" style="fill:#2ca02c;"/>
   </g>
   <g id="patch_82">
    <path clip-path="url(#p32804eb2c4)" d="M 163.879423 282.4605 
L 172.49857 282.4605 
L 172.49857 282.4605 
L 163.879423 282.4605 
z
" style="fill:#2ca02c;"/>
   </g>
   <g id="patch_83">
    <path clip-path="url(#p32804eb2c4)" d="M 173.456253 278.408823 
L 182.0754 278.408823 
L 182.0754 278.408823 
L 173.456253 278.408823 
z
" style="fill:#2ca02c;"/>
   </g>
   <g id="patch_84">
    <path clip-path="url(#p32804eb2c4)" d="M 183.033083 282.4605 
L 191.65223 282.4605 
L 191.65223 282.4605 
L 183.033083 282.4605 
z
" style="fill:#2ca02c;"/>
   </g>
   <g id="patch_85">
    <path clip-path="url(#p32804eb2c4)" d="M 192.609913 281.109941 
L 201.22906 281.109941 
L 201.22906 281.109941 
L 192.609913 281.109941 
z
" style="fill:#2ca02c;"/>
   </g>
   <g id="patch_86">
    <path clip-path="url(#p32804eb2c4)" d="M 202.186744 282.4605 
L 210.805891 282.4605 
L 210.805891 282.4605 
L 202.186744 282.4605 
z
" style="fill:#2ca02c;"/>
   </g>
   <g id="patch_87">
    <path clip-path="url(#p32804eb2c4)" d="M 211.763574 281.109941 
L 220.382721 281.109941 
L 220.382721 281.109941 
L 211.763574 281.109941 
z
" style="fill:#2ca02c;"/>
   </g>
   <g id="patch_88">
    <path clip-path="url(#p32804eb2c4)" d="M 221.340404 281.109941 
L 229.959551 281.109941 
L 229.959551 281.109941 
L 221.340404 281.109941 
z
" style="fill:#2ca02c;"/>
   </g>
   <g id="patch_89">
    <path clip-path="url(#p32804eb2c4)" d="M 230.917234 282.4605 
L 239.536381 282.4605 
L 239.536381 282.4605 
L 230.917234 282.4605 
z
" style="fill:#2ca02c;"/>
   </g>
   <g id="patch_90">
    <path clip-path="url(#p32804eb2c4)" d="M 240.494065 282.4605 
L 249.113212 282.4605 
L 249.113212 282.4605 
L 240.494065 282.4605 
z
" style="fill:#2ca02c;"/>
   </g>
   <g id="patch_91">
    <path clip-path="url(#p32804eb2c4)" d="M 250.070895 281.109941 
L 258.690042 281.109941 
L 258.690042 281.109941 
L 250.070895 281.109941 
z
" style="fill:#2ca02c;"/>
   </g>
   <g id="patch_92">
    <path clip-path="url(#p32804eb2c4)" d="M 259.647725 282.4605 
L 268.266872 282.4605 
L 268.266872 282.4605 
L 259.647725 282.4605 
z
" style="fill:#2ca02c;"/>
   </g>
   <g id="patch_93">
    <path clip-path="url(#p32804eb2c4)" d="M 269.224555 282.4605 
L 277.843702 282.4605 
L 277.843702 282.4605 
L 269.224555 282.4605 
z
" style="fill:#2ca02c;"/>
   </g>
   <g id="patch_94">
    <path clip-path="url(#p32804eb2c4)" d="M 278.801386 282.4605 
L 287.420533 282.4605 
L 287.420533 282.4605 
L 278.801386 282.4605 
z
" style="fill:#2ca02c;"/>
   </g>
   <g id="patch_95">
    <path clip-path="url(#p32804eb2c4)" d="M 288.378216 282.4605 
L 296.997363 282.4605 
L 296.997363 282.4605 
L 288.378216 282.4605 
z
" style="fill:#2ca02c;"/>
   </g>
   <g id="patch_96">
    <path clip-path="url(#p32804eb2c4)" d="M 297.955046 282.4605 
L 306.574193 282.4605 
L 306.574193 282.4605 
L 297.955046 282.4605 
z
" style="fill:#2ca02c;"/>
   </g>
   <g id="patch_97">
    <path clip-path="url(#p32804eb2c4)" d="M 307.531876 282.4605 
L 316.151023 282.4605 
L 316.151023 282.4605 
L 307.531876 282.4605 
z
" style="fill:#2ca02c;"/>
   </g>
   <g id="patch_98">
    <path clip-path="url(#p32804eb2c4)" d="M 317.108707 282.4605 
L 325.727854 282.4605 
L 325.727854 282.4605 
L 317.108707 282.4605 
z
" style="fill:#2ca02c;"/>
   </g>
   <g id="patch_99">
    <path clip-path="url(#p32804eb2c4)" d="M 326.685537 282.4605 
L 335.304684 282.4605 
L 335.304684 282.4605 
L 326.685537 282.4605 
z
" style="fill:#2ca02c;"/>
   </g>
   <g id="patch_100">
    <path clip-path="url(#p32804eb2c4)" d="M 336.262367 282.4605 
L 344.881514 282.4605 
L 344.881514 282.4605 
L 336.262367 282.4605 
z
" style="fill:#2ca02c;"/>
   </g>
   <g id="patch_101">
    <path clip-path="url(#p32804eb2c4)" d="M 345.839197 282.4605 
L 354.458344 282.4605 
L 354.458344 282.4605 
L 345.839197 282.4605 
z
" style="fill:#2ca02c;"/>
   </g>
   <g id="patch_102">
    <path clip-path="url(#p32804eb2c4)" d="M 355.416028 282.4605 
L 364.035175 282.4605 
L 364.035175 282.4605 
L 355.416028 282.4605 
z
" style="fill:#2ca02c;"/>
   </g>
   <g id="patch_103">
    <path clip-path="url(#p32804eb2c4)" d="M 364.992858 282.4605 
L 373.612005 282.4605 
L 373.612005 282.4605 
L 364.992858 282.4605 
z
" style="fill:#2ca02c;"/>
   </g>
   <g id="patch_104">
    <path clip-path="url(#p32804eb2c4)" d="M 374.569688 282.4605 
L 383.188835 282.4605 
L 383.188835 282.4605 
L 374.569688 282.4605 
z
" style="fill:#2ca02c;"/>
   </g>
   <g id="patch_105">
    <path clip-path="url(#p32804eb2c4)" d="M 58.53429 204.128078 
L 67.153437 204.128078 
L 67.153437 69.072177 
L 58.53429 69.072177 
z
" style="fill:#d62728;"/>
   </g>
   <g id="patch_106">
    <path clip-path="url(#p32804eb2c4)" d="M 68.11112 239.242612 
L 76.730267 239.242612 
L 76.730267 175.766339 
L 68.11112 175.766339 
z
" style="fill:#d62728;"/>
   </g>
   <g id="patch_107">
    <path clip-path="url(#p32804eb2c4)" d="M 77.68795 268.95491 
L 86.307097 268.95491 
L 86.307097 248.696525 
L 77.68795 248.696525 
z
" style="fill:#d62728;"/>
   </g>
   <g id="patch_108">
    <path clip-path="url(#p32804eb2c4)" d="M 87.264781 271.656028 
L 95.883928 271.656028 
L 95.883928 254.098761 
L 87.264781 254.098761 
z
" style="fill:#d62728;"/>
   </g>
   <g id="patch_109">
    <path clip-path="url(#p32804eb2c4)" d="M 96.841611 266.253792 
L 105.460758 266.253792 
L 105.460758 254.098761 
L 96.841611 254.098761 
z
" style="fill:#d62728;"/>
   </g>
   <g id="patch_110">
    <path clip-path="url(#p32804eb2c4)" d="M 106.418441 271.656028 
L 115.037588 271.656028 
L 115.037588 262.202115 
L 106.418441 262.202115 
z
" style="fill:#d62728;"/>
   </g>
   <g id="patch_111">
    <path clip-path="url(#p32804eb2c4)" d="M 115.995271 278.408823 
L 124.614418 278.408823 
L 124.614418 273.006587 
L 115.995271 273.006587 
z
" style="fill:#d62728;"/>
   </g>
   <g id="patch_112">
    <path clip-path="url(#p32804eb2c4)" d="M 125.572102 277.058264 
L 134.191249 277.058264 
L 134.191249 270.305469 
L 125.572102 270.305469 
z
" style="fill:#d62728;"/>
   </g>
   <g id="patch_113">
    <path clip-path="url(#p32804eb2c4)" d="M 135.148932 278.408823 
L 143.768079 278.408823 
L 143.768079 273.006587 
L 135.148932 273.006587 
z
" style="fill:#d62728;"/>
   </g>
   <g id="patch_114">
    <path clip-path="url(#p32804eb2c4)" d="M 144.725762 281.109941 
L 153.344909 281.109941 
L 153.344909 279.759382 
L 144.725762 279.759382 
z
" style="fill:#d62728;"/>
   </g>
   <g id="patch_115">
    <path clip-path="url(#p32804eb2c4)" d="M 154.302592 282.4605 
L 162.921739 282.4605 
L 162.921739 281.109941 
L 154.302592 281.109941 
z
" style="fill:#d62728;"/>
   </g>
   <g id="patch_116">
    <path clip-path="url(#p32804eb2c4)" d="M 163.879423 282.4605 
L 172.49857 282.4605 
L 172.49857 281.109941 
L 163.879423 281.109941 
z
" style="fill:#d62728;"/>
   </g>
   <g id="patch_117">
    <path clip-path="url(#p32804eb2c4)" d="M 173.456253 278.408823 
L 182.0754 278.408823 
L 182.0754 275.707705 
L 173.456253 275.707705 
z
" style="fill:#d62728;"/>
   </g>
   <g id="patch_118">
    <path clip-path="url(#p32804eb2c4)" d="M 183.033083 282.4605 
L 191.65223 282.4605 
L 191.65223 277.058264 
L 183.033083 277.058264 
z
" style="fill:#d62728;"/>
   </g>
   <g id="patch_119">
    <path clip-path="url(#p32804eb2c4)" d="M 192.609913 281.109941 
L 201.22906 281.109941 
L 201.22906 281.109941 
L 192.609913 281.109941 
z
" style="fill:#d62728;"/>
   </g>
   <g id="patch_120">
    <path clip-path="url(#p32804eb2c4)" d="M 202.186744 282.4605 
L 210.805891 282.4605 
L 210.805891 275.707705 
L 202.186744 275.707705 
z
" style="fill:#d62728;"/>
   </g>
   <g id="patch_121">
    <path clip-path="url(#p32804eb2c4)" d="M 211.763574 281.109941 
L 220.382721 281.109941 
L 220.382721 281.109941 
L 211.763574 281.109941 
z
" style="fill:#d62728;"/>
   </g>
   <g id="patch_122">
    <path clip-path="url(#p32804eb2c4)" d="M 221.340404 281.109941 
L 229.959551 281.109941 
L 229.959551 279.759382 
L 221.340404 279.759382 
z
" style="fill:#d62728;"/>
   </g>
   <g id="patch_123">
    <path clip-path="url(#p32804eb2c4)" d="M 230.917234 282.4605 
L 239.536381 282.4605 
L 239.536381 282.4605 
L 230.917234 282.4605 
z
" style="fill:#d62728;"/>
   </g>
   <g id="patch_124">
    <path clip-path="url(#p32804eb2c4)" d="M 240.494065 282.4605 
L 249.113212 282.4605 
L 249.113212 282.4605 
L 240.494065 282.4605 
z
" style="fill:#d62728;"/>
   </g>
   <g id="patch_125">
    <path clip-path="url(#p32804eb2c4)" d="M 250.070895 281.109941 
L 258.690042 281.109941 
L 258.690042 279.759382 
L 250.070895 279.759382 
z
" style="fill:#d62728;"/>
   </g>
   <g id="patch_126">
    <path clip-path="url(#p32804eb2c4)" d="M 259.647725 282.4605 
L 268.266872 282.4605 
L 268.266872 282.4605 
L 259.647725 282.4605 
z
" style="fill:#d62728;"/>
   </g>
   <g id="patch_127">
    <path clip-path="url(#p32804eb2c4)" d="M 269.224555 282.4605 
L 277.843702 282.4605 
L 277.843702 279.759382 
L 269.224555 279.759382 
z
" style="fill:#d62728;"/>
   </g>
   <g id="patch_128">
    <path clip-path="url(#p32804eb2c4)" d="M 278.801386 282.4605 
L 287.420533 282.4605 
L 287.420533 282.4605 
L 278.801386 282.4605 
z
" style="fill:#d62728;"/>
   </g>
   <g id="patch_129">
    <path clip-path="url(#p32804eb2c4)" d="M 288.378216 282.4605 
L 296.997363 282.4605 
L 296.997363 282.4605 
L 288.378216 282.4605 
z
" style="fill:#d62728;"/>
   </g>
   <g id="patch_130">
    <path clip-path="url(#p32804eb2c4)" d="M 297.955046 282.4605 
L 306.574193 282.4605 
L 306.574193 282.4605 
L 297.955046 282.4605 
z
" style="fill:#d62728;"/>
   </g>
   <g id="patch_131">
    <path clip-path="url(#p32804eb2c4)" d="M 307.531876 282.4605 
L 316.151023 282.4605 
L 316.151023 282.4605 
L 307.531876 282.4605 
z
" style="fill:#d62728;"/>
   </g>
   <g id="patch_132">
    <path clip-path="url(#p32804eb2c4)" d="M 317.108707 282.4605 
L 325.727854 282.4605 
L 325.727854 282.4605 
L 317.108707 282.4605 
z
" style="fill:#d62728;"/>
   </g>
   <g id="patch_133">
    <path clip-path="url(#p32804eb2c4)" d="M 326.685537 282.4605 
L 335.304684 282.4605 
L 335.304684 282.4605 
L 326.685537 282.4605 
z
" style="fill:#d62728;"/>
   </g>
   <g id="patch_134">
    <path clip-path="url(#p32804eb2c4)" d="M 336.262367 282.4605 
L 344.881514 282.4605 
L 344.881514 282.4605 
L 336.262367 282.4605 
z
" style="fill:#d62728;"/>
   </g>
   <g id="patch_135">
    <path clip-path="url(#p32804eb2c4)" d="M 345.839197 282.4605 
L 354.458344 282.4605 
L 354.458344 282.4605 
L 345.839197 282.4605 
z
" style="fill:#d62728;"/>
   </g>
   <g id="patch_136">
    <path clip-path="url(#p32804eb2c4)" d="M 355.416028 282.4605 
L 364.035175 282.4605 
L 364.035175 282.4605 
L 355.416028 282.4605 
z
" style="fill:#d62728;"/>
   </g>
   <g id="patch_137">
    <path clip-path="url(#p32804eb2c4)" d="M 364.992858 282.4605 
L 373.612005 282.4605 
L 373.612005 282.4605 
L 364.992858 282.4605 
z
" style="fill:#d62728;"/>
   </g>
   <g id="patch_138">
    <path clip-path="url(#p32804eb2c4)" d="M 374.569688 282.4605 
L 383.188835 282.4605 
L 383.188835 279.759382 
L 374.569688 279.759382 
z
" style="fill:#d62728;"/>
   </g>
   <g id="patch_139">
    <path clip-path="url(#p32804eb2c4)" d="M 58.53429 69.072177 
L 67.153437 69.072177 
L 67.153437 33.957643 
L 58.53429 33.957643 
z
" style="fill:#9467bd;"/>
   </g>
   <g id="patch_140">
    <path clip-path="url(#p32804eb2c4)" d="M 68.11112 175.766339 
L 76.730267 175.766339 
L 76.730267 158.209071 
L 68.11112 158.209071 
z
" style="fill:#9467bd;"/>
   </g>
   <g id="patch_141">
    <path clip-path="url(#p32804eb2c4)" d="M 77.68795 248.696525 
L 86.307097 248.696525 
L 86.307097 243.294289 
L 77.68795 243.294289 
z
" style="fill:#9467bd;"/>
   </g>
   <g id="patch_142">
    <path clip-path="url(#p32804eb2c4)" d="M 87.264781 254.098761 
L 95.883928 254.098761 
L 95.883928 252.748202 
L 87.264781 252.748202 
z
" style="fill:#9467bd;"/>
   </g>
   <g id="patch_143">
    <path clip-path="url(#p32804eb2c4)" d="M 96.841611 254.098761 
L 105.460758 254.098761 
L 105.460758 254.098761 
L 96.841611 254.098761 
z
" style="fill:#9467bd;"/>
   </g>
   <g id="patch_144">
    <path clip-path="url(#p32804eb2c4)" d="M 106.418441 262.202115 
L 115.037588 262.202115 
L 115.037588 262.202115 
L 106.418441 262.202115 
z
" style="fill:#9467bd;"/>
   </g>
   <g id="patch_145">
    <path clip-path="url(#p32804eb2c4)" d="M 115.995271 273.006587 
L 124.614418 273.006587 
L 124.614418 273.006587 
L 115.995271 273.006587 
z
" style="fill:#9467bd;"/>
   </g>
   <g id="patch_146">
    <path clip-path="url(#p32804eb2c4)" d="M 125.572102 270.305469 
L 134.191249 270.305469 
L 134.191249 270.305469 
L 125.572102 270.305469 
z
" style="fill:#9467bd;"/>
   </g>
   <g id="patch_147">
    <path clip-path="url(#p32804eb2c4)" d="M 135.148932 273.006587 
L 143.768079 273.006587 
L 143.768079 273.006587 
L 135.148932 273.006587 
z
" style="fill:#9467bd;"/>
   </g>
   <g id="patch_148">
    <path clip-path="url(#p32804eb2c4)" d="M 144.725762 279.759382 
L 153.344909 279.759382 
L 153.344909 279.759382 
L 144.725762 279.759382 
z
" style="fill:#9467bd;"/>
   </g>
   <g id="patch_149">
    <path clip-path="url(#p32804eb2c4)" d="M 154.302592 281.109941 
L 162.921739 281.109941 
L 162.921739 281.109941 
L 154.302592 281.109941 
z
" style="fill:#9467bd;"/>
   </g>
   <g id="patch_150">
    <path clip-path="url(#p32804eb2c4)" d="M 163.879423 281.109941 
L 172.49857 281.109941 
L 172.49857 281.109941 
L 163.879423 281.109941 
z
" style="fill:#9467bd;"/>
   </g>
   <g id="patch_151">
    <path clip-path="url(#p32804eb2c4)" d="M 173.456253 275.707705 
L 182.0754 275.707705 
L 182.0754 275.707705 
L 173.456253 275.707705 
z
" style="fill:#9467bd;"/>
   </g>
   <g id="patch_152">
    <path clip-path="url(#p32804eb2c4)" d="M 183.033083 277.058264 
L 191.65223 277.058264 
L 191.65223 277.058264 
L 183.033083 277.058264 
z
" style="fill:#9467bd;"/>
   </g>
   <g id="patch_153">
    <path clip-path="url(#p32804eb2c4)" d="M 192.609913 281.109941 
L 201.22906 281.109941 
L 201.22906 281.109941 
L 192.609913 281.109941 
z
" style="fill:#9467bd;"/>
   </g>
   <g id="patch_154">
    <path clip-path="url(#p32804eb2c4)" d="M 202.186744 275.707705 
L 210.805891 275.707705 
L 210.805891 275.707705 
L 202.186744 275.707705 
z
" style="fill:#9467bd;"/>
   </g>
   <g id="patch_155">
    <path clip-path="url(#p32804eb2c4)" d="M 211.763574 281.109941 
L 220.382721 281.109941 
L 220.382721 281.109941 
L 211.763574 281.109941 
z
" style="fill:#9467bd;"/>
   </g>
   <g id="patch_156">
    <path clip-path="url(#p32804eb2c4)" d="M 221.340404 279.759382 
L 229.959551 279.759382 
L 229.959551 279.759382 
L 221.340404 279.759382 
z
" style="fill:#9467bd;"/>
   </g>
   <g id="patch_157">
    <path clip-path="url(#p32804eb2c4)" d="M 230.917234 282.4605 
L 239.536381 282.4605 
L 239.536381 282.4605 
L 230.917234 282.4605 
z
" style="fill:#9467bd;"/>
   </g>
   <g id="patch_158">
    <path clip-path="url(#p32804eb2c4)" d="M 240.494065 282.4605 
L 249.113212 282.4605 
L 249.113212 282.4605 
L 240.494065 282.4605 
z
" style="fill:#9467bd;"/>
   </g>
   <g id="patch_159">
    <path clip-path="url(#p32804eb2c4)" d="M 250.070895 279.759382 
L 258.690042 279.759382 
L 258.690042 279.759382 
L 250.070895 279.759382 
z
" style="fill:#9467bd;"/>
   </g>
   <g id="patch_160">
    <path clip-path="url(#p32804eb2c4)" d="M 259.647725 282.4605 
L 268.266872 282.4605 
L 268.266872 282.4605 
L 259.647725 282.4605 
z
" style="fill:#9467bd;"/>
   </g>
   <g id="patch_161">
    <path clip-path="url(#p32804eb2c4)" d="M 269.224555 279.759382 
L 277.843702 279.759382 
L 277.843702 279.759382 
L 269.224555 279.759382 
z
" style="fill:#9467bd;"/>
   </g>
   <g id="patch_162">
    <path clip-path="url(#p32804eb2c4)" d="M 278.801386 282.4605 
L 287.420533 282.4605 
L 287.420533 282.4605 
L 278.801386 282.4605 
z
" style="fill:#9467bd;"/>
   </g>
   <g id="patch_163">
    <path clip-path="url(#p32804eb2c4)" d="M 288.378216 282.4605 
L 296.997363 282.4605 
L 296.997363 282.4605 
L 288.378216 282.4605 
z
" style="fill:#9467bd;"/>
   </g>
   <g id="patch_164">
    <path clip-path="url(#p32804eb2c4)" d="M 297.955046 282.4605 
L 306.574193 282.4605 
L 306.574193 282.4605 
L 297.955046 282.4605 
z
" style="fill:#9467bd;"/>
   </g>
   <g id="patch_165">
    <path clip-path="url(#p32804eb2c4)" d="M 307.531876 282.4605 
L 316.151023 282.4605 
L 316.151023 282.4605 
L 307.531876 282.4605 
z
" style="fill:#9467bd;"/>
   </g>
   <g id="patch_166">
    <path clip-path="url(#p32804eb2c4)" d="M 317.108707 282.4605 
L 325.727854 282.4605 
L 325.727854 282.4605 
L 317.108707 282.4605 
z
" style="fill:#9467bd;"/>
   </g>
   <g id="patch_167">
    <path clip-path="url(#p32804eb2c4)" d="M 326.685537 282.4605 
L 335.304684 282.4605 
L 335.304684 281.109941 
L 326.685537 281.109941 
z
" style="fill:#9467bd;"/>
   </g>
   <g id="patch_168">
    <path clip-path="url(#p32804eb2c4)" d="M 336.262367 282.4605 
L 344.881514 282.4605 
L 344.881514 282.4605 
L 336.262367 282.4605 
z
" style="fill:#9467bd;"/>
   </g>
   <g id="patch_169">
    <path clip-path="url(#p32804eb2c4)" d="M 345.839197 282.4605 
L 354.458344 282.4605 
L 354.458344 282.4605 
L 345.839197 282.4605 
z
" style="fill:#9467bd;"/>
   </g>
   <g id="patch_170">
    <path clip-path="url(#p32804eb2c4)" d="M 355.416028 282.4605 
L 364.035175 282.4605 
L 364.035175 282.4605 
L 355.416028 282.4605 
z
" style="fill:#9467bd;"/>
   </g>
   <g id="patch_171">
    <path clip-path="url(#p32804eb2c4)" d="M 364.992858 282.4605 
L 373.612005 282.4605 
L 373.612005 282.4605 
L 364.992858 282.4605 
z
" style="fill:#9467bd;"/>
   </g>
   <g id="patch_172">
    <path clip-path="url(#p32804eb2c4)" d="M 374.569688 279.759382 
L 383.188835 279.759382 
L 383.188835 279.759382 
L 374.569688 279.759382 
z
" style="fill:#9467bd;"/>
   </g>
   <g id="matplotlib.axis_1">
    <g id="xtick_1">
     <g id="line2d_1">
      <defs>
       <path d="M 0 0 
L 0 3.5 
" id="m096300c721" style="stroke:#000000;stroke-width:0.8;"/>
      </defs>
      <g>
       <use style="stroke:#000000;stroke-width:0.8;" x="62.843863" xlink:href="#m096300c721" y="282.4605"/>
      </g>
     </g>
     <g id="text_1">
      <!-- 30 -->
      <g transform="translate(65.246207 299.4605)rotate(-90)scale(0.1 -0.1)">
       <defs>
        <path d="M 5.078125 53.609375 
Q 7.90625 60.296875 12.21875 63.9375 
Q 16.546875 67.578125 23 67.578125 
Q 30.953125 67.578125 35.203125 62.40625 
Q 38.421875 58.546875 38.421875 54.15625 
Q 38.421875 46.921875 29.34375 39.203125 
Q 35.453125 36.8125 38.578125 32.375 
Q 41.703125 27.9375 41.703125 21.921875 
Q 41.703125 13.328125 36.234375 7.03125 
Q 29.109375 -1.171875 15.578125 -1.171875 
Q 8.890625 -1.171875 6.46875 0.484375 
Q 4.046875 2.15625 4.046875 4.046875 
Q 4.046875 5.46875 5.1875 6.546875 
Q 6.34375 7.625 7.953125 7.625 
Q 9.1875 7.625 10.453125 7.234375 
Q 11.28125 6.984375 14.203125 5.4375 
Q 17.140625 3.90625 18.265625 3.609375 
Q 20.0625 3.078125 22.125 3.078125 
Q 27.09375 3.078125 30.78125 6.9375 
Q 34.46875 10.796875 34.46875 16.0625 
Q 34.46875 19.921875 32.765625 23.578125 
Q 31.5 26.3125 29.984375 27.734375 
Q 27.875 29.6875 24.21875 31.265625 
Q 20.5625 32.859375 16.75 32.859375 
L 15.1875 32.859375 
L 15.1875 34.328125 
Q 19.046875 34.8125 22.921875 37.109375 
Q 26.8125 39.40625 28.5625 42.625 
Q 30.328125 45.84375 30.328125 49.703125 
Q 30.328125 54.734375 27.171875 57.828125 
Q 24.03125 60.9375 19.34375 60.9375 
Q 11.765625 60.9375 6.6875 52.828125 
z
" id="TimesNewRomanPSMT-51"/>
        <path d="M 3.609375 32.71875 
Q 3.609375 44.046875 7.03125 52.21875 
Q 10.453125 60.40625 16.109375 64.40625 
Q 20.515625 67.578125 25.203125 67.578125 
Q 32.8125 67.578125 38.875 59.8125 
Q 46.4375 50.203125 46.4375 33.734375 
Q 46.4375 22.21875 43.109375 14.15625 
Q 39.796875 6.109375 34.640625 2.46875 
Q 29.5 -1.171875 24.703125 -1.171875 
Q 15.234375 -1.171875 8.9375 10.015625 
Q 3.609375 19.4375 3.609375 32.71875 
z
M 13.1875 31.5 
Q 13.1875 17.828125 16.546875 9.1875 
Q 19.34375 1.90625 24.859375 1.90625 
Q 27.484375 1.90625 30.3125 4.265625 
Q 33.15625 6.640625 34.625 12.203125 
Q 36.859375 20.609375 36.859375 35.890625 
Q 36.859375 47.21875 34.515625 54.78125 
Q 32.765625 60.40625 29.984375 62.75 
Q 27.984375 64.359375 25.140625 64.359375 
Q 21.828125 64.359375 19.234375 61.375 
Q 15.71875 57.328125 14.453125 48.625 
Q 13.1875 39.9375 13.1875 31.5 
z
" id="TimesNewRomanPSMT-48"/>
       </defs>
       <use xlink:href="#TimesNewRomanPSMT-51"/>
       <use x="50" xlink:href="#TimesNewRomanPSMT-48"/>
      </g>
     </g>
    </g>
    <g id="xtick_2">
     <g id="line2d_2">
      <g>
       <use style="stroke:#000000;stroke-width:0.8;" x="72.420694" xlink:href="#m096300c721" y="282.4605"/>
      </g>
     </g>
     <g id="text_2">
      <!-- 50 -->
      <g transform="translate(74.823037 299.4605)rotate(-90)scale(0.1 -0.1)">
       <defs>
        <path d="M 43.40625 66.21875 
L 39.59375 57.90625 
L 19.671875 57.90625 
L 15.328125 49.03125 
Q 28.265625 47.125 35.84375 39.40625 
Q 42.328125 32.765625 42.328125 23.78125 
Q 42.328125 18.5625 40.203125 14.109375 
Q 38.09375 9.671875 34.859375 6.546875 
Q 31.640625 3.421875 27.6875 1.515625 
Q 22.078125 -1.171875 16.15625 -1.171875 
Q 10.203125 -1.171875 7.484375 0.84375 
Q 4.78125 2.875 4.78125 5.328125 
Q 4.78125 6.6875 5.90625 7.734375 
Q 7.03125 8.796875 8.734375 8.796875 
Q 10.015625 8.796875 10.96875 8.40625 
Q 11.921875 8.015625 14.203125 6.390625 
Q 17.875 3.859375 21.625 3.859375 
Q 27.34375 3.859375 31.65625 8.171875 
Q 35.984375 12.5 35.984375 18.703125 
Q 35.984375 24.703125 32.125 29.90625 
Q 28.265625 35.109375 21.484375 37.9375 
Q 16.15625 40.140625 6.984375 40.484375 
L 19.671875 66.21875 
z
" id="TimesNewRomanPSMT-53"/>
       </defs>
       <use xlink:href="#TimesNewRomanPSMT-53"/>
       <use x="50" xlink:href="#TimesNewRomanPSMT-48"/>
      </g>
     </g>
    </g>
    <g id="xtick_3">
     <g id="line2d_3">
      <g>
       <use style="stroke:#000000;stroke-width:0.8;" x="81.997524" xlink:href="#m096300c721" y="282.4605"/>
      </g>
     </g>
     <g id="text_3">
      <!-- 70 -->
      <g transform="translate(84.399868 299.4605)rotate(-90)scale(0.1 -0.1)">
       <defs>
        <path d="M 10.0625 66.21875 
L 45.5625 66.21875 
L 45.5625 64.359375 
L 23.484375 -1.375 
L 18.015625 -1.375 
L 37.796875 58.25 
L 19.578125 58.25 
Q 14.0625 58.25 11.71875 56.9375 
Q 7.625 54.6875 5.125 50 
L 3.71875 50.53125 
z
" id="TimesNewRomanPSMT-55"/>
       </defs>
       <use xlink:href="#TimesNewRomanPSMT-55"/>
       <use x="50" xlink:href="#TimesNewRomanPSMT-48"/>
      </g>
     </g>
    </g>
    <g id="xtick_4">
     <g id="line2d_4">
      <g>
       <use style="stroke:#000000;stroke-width:0.8;" x="91.574354" xlink:href="#m096300c721" y="282.4605"/>
      </g>
     </g>
     <g id="text_4">
      <!-- 90 -->
      <g transform="translate(93.976698 299.4605)rotate(-90)scale(0.1 -0.1)">
       <defs>
        <path d="M 5.28125 -1.375 
L 5.28125 0.4375 
Q 11.625 0.53125 17.09375 3.390625 
Q 22.5625 6.25 27.65625 13.375 
Q 32.765625 20.515625 34.765625 29.046875 
Q 27.09375 24.125 20.90625 24.125 
Q 13.921875 24.125 8.9375 29.515625 
Q 3.953125 34.90625 3.953125 43.84375 
Q 3.953125 52.546875 8.9375 59.328125 
Q 14.9375 67.578125 24.609375 67.578125 
Q 32.765625 67.578125 38.578125 60.84375 
Q 45.703125 52.484375 45.703125 40.234375 
Q 45.703125 29.203125 40.28125 19.65625 
Q 34.859375 10.109375 25.203125 3.8125 
Q 17.328125 -1.375 8.0625 -1.375 
z
M 35.546875 32.671875 
Q 36.421875 39.015625 36.421875 42.828125 
Q 36.421875 47.5625 34.8125 53.046875 
Q 33.203125 58.546875 30.25 61.46875 
Q 27.296875 64.40625 23.53125 64.40625 
Q 19.1875 64.40625 15.90625 60.5 
Q 12.640625 56.59375 12.640625 48.875 
Q 12.640625 38.578125 17 32.765625 
Q 20.171875 28.5625 24.8125 28.5625 
Q 27.046875 28.5625 30.125 29.640625 
Q 33.203125 30.71875 35.546875 32.671875 
z
" id="TimesNewRomanPSMT-57"/>
       </defs>
       <use xlink:href="#TimesNewRomanPSMT-57"/>
       <use x="50" xlink:href="#TimesNewRomanPSMT-48"/>
      </g>
     </g>
    </g>
    <g id="xtick_5">
     <g id="line2d_5">
      <g>
       <use style="stroke:#000000;stroke-width:0.8;" x="101.151184" xlink:href="#m096300c721" y="282.4605"/>
      </g>
     </g>
     <g id="text_5">
      <!-- 110 -->
      <g transform="translate(103.553528 304.0855)rotate(-90)scale(0.1 -0.1)">
       <defs>
        <path d="M 11.71875 59.71875 
L 27.828125 67.578125 
L 29.4375 67.578125 
L 29.4375 11.671875 
Q 29.4375 6.109375 29.90625 4.734375 
Q 30.375 3.375 31.828125 2.640625 
Q 33.296875 1.90625 37.796875 1.8125 
L 37.796875 0 
L 12.890625 0 
L 12.890625 1.8125 
Q 17.578125 1.90625 18.9375 2.609375 
Q 20.3125 3.328125 20.84375 4.515625 
Q 21.390625 5.71875 21.390625 11.671875 
L 21.390625 47.40625 
Q 21.390625 54.640625 20.90625 56.6875 
Q 20.5625 58.25 19.65625 58.984375 
Q 18.75 59.71875 17.484375 59.71875 
Q 15.671875 59.71875 12.453125 58.203125 
z
" id="TimesNewRomanPSMT-49"/>
       </defs>
       <use xlink:href="#TimesNewRomanPSMT-49"/>
       <use x="46.25" xlink:href="#TimesNewRomanPSMT-49"/>
       <use x="96.25" xlink:href="#TimesNewRomanPSMT-48"/>
      </g>
     </g>
    </g>
    <g id="xtick_6">
     <g id="line2d_6">
      <g>
       <use style="stroke:#000000;stroke-width:0.8;" x="110.728015" xlink:href="#m096300c721" y="282.4605"/>
      </g>
     </g>
     <g id="text_6">
      <!-- 130 -->
      <g transform="translate(113.130358 304.4605)rotate(-90)scale(0.1 -0.1)">
       <use xlink:href="#TimesNewRomanPSMT-49"/>
       <use x="50" xlink:href="#TimesNewRomanPSMT-51"/>
       <use x="100" xlink:href="#TimesNewRomanPSMT-48"/>
      </g>
     </g>
    </g>
    <g id="xtick_7">
     <g id="line2d_7">
      <g>
       <use style="stroke:#000000;stroke-width:0.8;" x="120.304845" xlink:href="#m096300c721" y="282.4605"/>
      </g>
     </g>
     <g id="text_7">
      <!-- 150 -->
      <g transform="translate(122.707189 304.4605)rotate(-90)scale(0.1 -0.1)">
       <use xlink:href="#TimesNewRomanPSMT-49"/>
       <use x="50" xlink:href="#TimesNewRomanPSMT-53"/>
       <use x="100" xlink:href="#TimesNewRomanPSMT-48"/>
      </g>
     </g>
    </g>
    <g id="xtick_8">
     <g id="line2d_8">
      <g>
       <use style="stroke:#000000;stroke-width:0.8;" x="129.881675" xlink:href="#m096300c721" y="282.4605"/>
      </g>
     </g>
     <g id="text_8">
      <!-- 170 -->
      <g transform="translate(132.284019 304.4605)rotate(-90)scale(0.1 -0.1)">
       <use xlink:href="#TimesNewRomanPSMT-49"/>
       <use x="50" xlink:href="#TimesNewRomanPSMT-55"/>
       <use x="100" xlink:href="#TimesNewRomanPSMT-48"/>
      </g>
     </g>
    </g>
    <g id="xtick_9">
     <g id="line2d_9">
      <g>
       <use style="stroke:#000000;stroke-width:0.8;" x="139.458505" xlink:href="#m096300c721" y="282.4605"/>
      </g>
     </g>
     <g id="text_9">
      <!-- 190 -->
      <g transform="translate(141.860849 304.4605)rotate(-90)scale(0.1 -0.1)">
       <use xlink:href="#TimesNewRomanPSMT-49"/>
       <use x="50" xlink:href="#TimesNewRomanPSMT-57"/>
       <use x="100" xlink:href="#TimesNewRomanPSMT-48"/>
      </g>
     </g>
    </g>
    <g id="xtick_10">
     <g id="line2d_10">
      <g>
       <use style="stroke:#000000;stroke-width:0.8;" x="149.035336" xlink:href="#m096300c721" y="282.4605"/>
      </g>
     </g>
     <g id="text_10">
      <!-- 210 -->
      <g transform="translate(151.437679 304.4605)rotate(-90)scale(0.1 -0.1)">
       <defs>
        <path d="M 45.84375 12.75 
L 41.21875 0 
L 2.15625 0 
L 2.15625 1.8125 
Q 19.390625 17.53125 26.421875 27.484375 
Q 33.453125 37.453125 33.453125 45.703125 
Q 33.453125 52 29.59375 56.046875 
Q 25.734375 60.109375 20.359375 60.109375 
Q 15.484375 60.109375 11.59375 57.25 
Q 7.71875 54.390625 5.859375 48.875 
L 4.046875 48.875 
Q 5.28125 57.90625 10.328125 62.734375 
Q 15.375 67.578125 22.953125 67.578125 
Q 31 67.578125 36.390625 62.40625 
Q 41.796875 57.234375 41.796875 50.203125 
Q 41.796875 45.171875 39.453125 40.140625 
Q 35.84375 32.234375 27.734375 23.390625 
Q 15.578125 10.109375 12.546875 7.375 
L 29.828125 7.375 
Q 35.109375 7.375 37.234375 7.765625 
Q 39.359375 8.15625 41.0625 9.34375 
Q 42.78125 10.546875 44.046875 12.75 
z
" id="TimesNewRomanPSMT-50"/>
       </defs>
       <use xlink:href="#TimesNewRomanPSMT-50"/>
       <use x="50" xlink:href="#TimesNewRomanPSMT-49"/>
       <use x="100" xlink:href="#TimesNewRomanPSMT-48"/>
      </g>
     </g>
    </g>
    <g id="xtick_11">
     <g id="line2d_11">
      <g>
       <use style="stroke:#000000;stroke-width:0.8;" x="158.612166" xlink:href="#m096300c721" y="282.4605"/>
      </g>
     </g>
     <g id="text_11">
      <!-- 230 -->
      <g transform="translate(161.01451 304.4605)rotate(-90)scale(0.1 -0.1)">
       <use xlink:href="#TimesNewRomanPSMT-50"/>
       <use x="50" xlink:href="#TimesNewRomanPSMT-51"/>
       <use x="100" xlink:href="#TimesNewRomanPSMT-48"/>
      </g>
     </g>
    </g>
    <g id="xtick_12">
     <g id="line2d_12">
      <g>
       <use style="stroke:#000000;stroke-width:0.8;" x="168.188996" xlink:href="#m096300c721" y="282.4605"/>
      </g>
     </g>
     <g id="text_12">
      <!-- 250 -->
      <g transform="translate(170.59134 304.4605)rotate(-90)scale(0.1 -0.1)">
       <use xlink:href="#TimesNewRomanPSMT-50"/>
       <use x="50" xlink:href="#TimesNewRomanPSMT-53"/>
       <use x="100" xlink:href="#TimesNewRomanPSMT-48"/>
      </g>
     </g>
    </g>
    <g id="xtick_13">
     <g id="line2d_13">
      <g>
       <use style="stroke:#000000;stroke-width:0.8;" x="177.765826" xlink:href="#m096300c721" y="282.4605"/>
      </g>
     </g>
     <g id="text_13">
      <!-- 270 -->
      <g transform="translate(180.16817 304.4605)rotate(-90)scale(0.1 -0.1)">
       <use xlink:href="#TimesNewRomanPSMT-50"/>
       <use x="50" xlink:href="#TimesNewRomanPSMT-55"/>
       <use x="100" xlink:href="#TimesNewRomanPSMT-48"/>
      </g>
     </g>
    </g>
    <g id="xtick_14">
     <g id="line2d_14">
      <g>
       <use style="stroke:#000000;stroke-width:0.8;" x="187.342657" xlink:href="#m096300c721" y="282.4605"/>
      </g>
     </g>
     <g id="text_14">
      <!-- 290 -->
      <g transform="translate(189.745 304.4605)rotate(-90)scale(0.1 -0.1)">
       <use xlink:href="#TimesNewRomanPSMT-50"/>
       <use x="50" xlink:href="#TimesNewRomanPSMT-57"/>
       <use x="100" xlink:href="#TimesNewRomanPSMT-48"/>
      </g>
     </g>
    </g>
    <g id="xtick_15">
     <g id="line2d_15">
      <g>
       <use style="stroke:#000000;stroke-width:0.8;" x="196.919487" xlink:href="#m096300c721" y="282.4605"/>
      </g>
     </g>
     <g id="text_15">
      <!-- 310 -->
      <g transform="translate(199.321831 304.4605)rotate(-90)scale(0.1 -0.1)">
       <use xlink:href="#TimesNewRomanPSMT-51"/>
       <use x="50" xlink:href="#TimesNewRomanPSMT-49"/>
       <use x="100" xlink:href="#TimesNewRomanPSMT-48"/>
      </g>
     </g>
    </g>
    <g id="xtick_16">
     <g id="line2d_16">
      <g>
       <use style="stroke:#000000;stroke-width:0.8;" x="206.496317" xlink:href="#m096300c721" y="282.4605"/>
      </g>
     </g>
     <g id="text_16">
      <!-- 330 -->
      <g transform="translate(208.898661 304.4605)rotate(-90)scale(0.1 -0.1)">
       <use xlink:href="#TimesNewRomanPSMT-51"/>
       <use x="50" xlink:href="#TimesNewRomanPSMT-51"/>
       <use x="100" xlink:href="#TimesNewRomanPSMT-48"/>
      </g>
     </g>
    </g>
    <g id="xtick_17">
     <g id="line2d_17">
      <g>
       <use style="stroke:#000000;stroke-width:0.8;" x="216.073147" xlink:href="#m096300c721" y="282.4605"/>
      </g>
     </g>
     <g id="text_17">
      <!-- 350 -->
      <g transform="translate(218.475491 304.4605)rotate(-90)scale(0.1 -0.1)">
       <use xlink:href="#TimesNewRomanPSMT-51"/>
       <use x="50" xlink:href="#TimesNewRomanPSMT-53"/>
       <use x="100" xlink:href="#TimesNewRomanPSMT-48"/>
      </g>
     </g>
    </g>
    <g id="xtick_18">
     <g id="line2d_18">
      <g>
       <use style="stroke:#000000;stroke-width:0.8;" x="225.649978" xlink:href="#m096300c721" y="282.4605"/>
      </g>
     </g>
     <g id="text_18">
      <!-- 370 -->
      <g transform="translate(228.052321 304.4605)rotate(-90)scale(0.1 -0.1)">
       <use xlink:href="#TimesNewRomanPSMT-51"/>
       <use x="50" xlink:href="#TimesNewRomanPSMT-55"/>
       <use x="100" xlink:href="#TimesNewRomanPSMT-48"/>
      </g>
     </g>
    </g>
    <g id="xtick_19">
     <g id="line2d_19">
      <g>
       <use style="stroke:#000000;stroke-width:0.8;" x="235.226808" xlink:href="#m096300c721" y="282.4605"/>
      </g>
     </g>
     <g id="text_19">
      <!-- 390 -->
      <g transform="translate(237.629152 304.4605)rotate(-90)scale(0.1 -0.1)">
       <use xlink:href="#TimesNewRomanPSMT-51"/>
       <use x="50" xlink:href="#TimesNewRomanPSMT-57"/>
       <use x="100" xlink:href="#TimesNewRomanPSMT-48"/>
      </g>
     </g>
    </g>
    <g id="xtick_20">
     <g id="line2d_20">
      <g>
       <use style="stroke:#000000;stroke-width:0.8;" x="244.803638" xlink:href="#m096300c721" y="282.4605"/>
      </g>
     </g>
     <g id="text_20">
      <!-- 410 -->
      <g transform="translate(247.205982 304.4605)rotate(-90)scale(0.1 -0.1)">
       <defs>
        <path d="M 46.53125 24.421875 
L 46.53125 17.484375 
L 37.640625 17.484375 
L 37.640625 0 
L 29.59375 0 
L 29.59375 17.484375 
L 1.5625 17.484375 
L 1.5625 23.734375 
L 32.28125 67.578125 
L 37.640625 67.578125 
L 37.640625 24.421875 
z
M 29.59375 24.421875 
L 29.59375 57.28125 
L 6.34375 24.421875 
z
" id="TimesNewRomanPSMT-52"/>
       </defs>
       <use xlink:href="#TimesNewRomanPSMT-52"/>
       <use x="50" xlink:href="#TimesNewRomanPSMT-49"/>
       <use x="100" xlink:href="#TimesNewRomanPSMT-48"/>
      </g>
     </g>
    </g>
    <g id="xtick_21">
     <g id="line2d_21">
      <g>
       <use style="stroke:#000000;stroke-width:0.8;" x="254.380468" xlink:href="#m096300c721" y="282.4605"/>
      </g>
     </g>
     <g id="text_21">
      <!-- 430 -->
      <g transform="translate(256.782812 304.4605)rotate(-90)scale(0.1 -0.1)">
       <use xlink:href="#TimesNewRomanPSMT-52"/>
       <use x="50" xlink:href="#TimesNewRomanPSMT-51"/>
       <use x="100" xlink:href="#TimesNewRomanPSMT-48"/>
      </g>
     </g>
    </g>
    <g id="xtick_22">
     <g id="line2d_22">
      <g>
       <use style="stroke:#000000;stroke-width:0.8;" x="263.957299" xlink:href="#m096300c721" y="282.4605"/>
      </g>
     </g>
     <g id="text_22">
      <!-- 450 -->
      <g transform="translate(266.359642 304.4605)rotate(-90)scale(0.1 -0.1)">
       <use xlink:href="#TimesNewRomanPSMT-52"/>
       <use x="50" xlink:href="#TimesNewRomanPSMT-53"/>
       <use x="100" xlink:href="#TimesNewRomanPSMT-48"/>
      </g>
     </g>
    </g>
    <g id="xtick_23">
     <g id="line2d_23">
      <g>
       <use style="stroke:#000000;stroke-width:0.8;" x="273.534129" xlink:href="#m096300c721" y="282.4605"/>
      </g>
     </g>
     <g id="text_23">
      <!-- 470 -->
      <g transform="translate(275.936473 304.4605)rotate(-90)scale(0.1 -0.1)">
       <use xlink:href="#TimesNewRomanPSMT-52"/>
       <use x="50" xlink:href="#TimesNewRomanPSMT-55"/>
       <use x="100" xlink:href="#TimesNewRomanPSMT-48"/>
      </g>
     </g>
    </g>
    <g id="xtick_24">
     <g id="line2d_24">
      <g>
       <use style="stroke:#000000;stroke-width:0.8;" x="283.110959" xlink:href="#m096300c721" y="282.4605"/>
      </g>
     </g>
     <g id="text_24">
      <!-- 490 -->
      <g transform="translate(285.513303 304.4605)rotate(-90)scale(0.1 -0.1)">
       <use xlink:href="#TimesNewRomanPSMT-52"/>
       <use x="50" xlink:href="#TimesNewRomanPSMT-57"/>
       <use x="100" xlink:href="#TimesNewRomanPSMT-48"/>
      </g>
     </g>
    </g>
    <g id="xtick_25">
     <g id="line2d_25">
      <g>
       <use style="stroke:#000000;stroke-width:0.8;" x="292.687789" xlink:href="#m096300c721" y="282.4605"/>
      </g>
     </g>
     <g id="text_25">
      <!-- 510 -->
      <g transform="translate(295.090133 304.4605)rotate(-90)scale(0.1 -0.1)">
       <use xlink:href="#TimesNewRomanPSMT-53"/>
       <use x="50" xlink:href="#TimesNewRomanPSMT-49"/>
       <use x="100" xlink:href="#TimesNewRomanPSMT-48"/>
      </g>
     </g>
    </g>
    <g id="xtick_26">
     <g id="line2d_26">
      <g>
       <use style="stroke:#000000;stroke-width:0.8;" x="302.26462" xlink:href="#m096300c721" y="282.4605"/>
      </g>
     </g>
     <g id="text_26">
      <!-- 530 -->
      <g transform="translate(304.666963 304.4605)rotate(-90)scale(0.1 -0.1)">
       <use xlink:href="#TimesNewRomanPSMT-53"/>
       <use x="50" xlink:href="#TimesNewRomanPSMT-51"/>
       <use x="100" xlink:href="#TimesNewRomanPSMT-48"/>
      </g>
     </g>
    </g>
    <g id="xtick_27">
     <g id="line2d_27">
      <g>
       <use style="stroke:#000000;stroke-width:0.8;" x="311.84145" xlink:href="#m096300c721" y="282.4605"/>
      </g>
     </g>
     <g id="text_27">
      <!-- 550 -->
      <g transform="translate(314.243794 304.4605)rotate(-90)scale(0.1 -0.1)">
       <use xlink:href="#TimesNewRomanPSMT-53"/>
       <use x="50" xlink:href="#TimesNewRomanPSMT-53"/>
       <use x="100" xlink:href="#TimesNewRomanPSMT-48"/>
      </g>
     </g>
    </g>
    <g id="xtick_28">
     <g id="line2d_28">
      <g>
       <use style="stroke:#000000;stroke-width:0.8;" x="321.41828" xlink:href="#m096300c721" y="282.4605"/>
      </g>
     </g>
     <g id="text_28">
      <!-- 570 -->
      <g transform="translate(323.820624 304.4605)rotate(-90)scale(0.1 -0.1)">
       <use xlink:href="#TimesNewRomanPSMT-53"/>
       <use x="50" xlink:href="#TimesNewRomanPSMT-55"/>
       <use x="100" xlink:href="#TimesNewRomanPSMT-48"/>
      </g>
     </g>
    </g>
    <g id="xtick_29">
     <g id="line2d_29">
      <g>
       <use style="stroke:#000000;stroke-width:0.8;" x="330.99511" xlink:href="#m096300c721" y="282.4605"/>
      </g>
     </g>
     <g id="text_29">
      <!-- 590 -->
      <g transform="translate(333.397454 304.4605)rotate(-90)scale(0.1 -0.1)">
       <use xlink:href="#TimesNewRomanPSMT-53"/>
       <use x="50" xlink:href="#TimesNewRomanPSMT-57"/>
       <use x="100" xlink:href="#TimesNewRomanPSMT-48"/>
      </g>
     </g>
    </g>
    <g id="xtick_30">
     <g id="line2d_30">
      <g>
       <use style="stroke:#000000;stroke-width:0.8;" x="340.571941" xlink:href="#m096300c721" y="282.4605"/>
      </g>
     </g>
     <g id="text_30">
      <!-- 610 -->
      <g transform="translate(342.974284 304.4605)rotate(-90)scale(0.1 -0.1)">
       <defs>
        <path d="M 44.828125 67.578125 
L 44.828125 65.765625 
Q 38.375 65.140625 34.296875 63.203125 
Q 30.21875 61.28125 26.234375 57.328125 
Q 22.265625 53.375 19.65625 48.515625 
Q 17.046875 43.65625 15.28125 36.96875 
Q 22.3125 41.796875 29.390625 41.796875 
Q 36.1875 41.796875 41.15625 36.328125 
Q 46.140625 30.859375 46.140625 22.265625 
Q 46.140625 13.96875 41.109375 7.125 
Q 35.0625 -1.171875 25.09375 -1.171875 
Q 18.3125 -1.171875 13.578125 3.328125 
Q 4.296875 12.0625 4.296875 25.984375 
Q 4.296875 34.859375 7.859375 42.859375 
Q 11.421875 50.875 18.03125 57.078125 
Q 24.65625 63.28125 30.703125 65.421875 
Q 36.765625 67.578125 42 67.578125 
z
M 14.453125 33.40625 
Q 13.578125 26.8125 13.578125 22.75 
Q 13.578125 18.0625 15.3125 12.5625 
Q 17.046875 7.078125 20.453125 3.859375 
Q 22.953125 1.5625 26.515625 1.5625 
Q 30.765625 1.5625 34.109375 5.5625 
Q 37.453125 9.578125 37.453125 17 
Q 37.453125 25.34375 34.125 31.4375 
Q 30.8125 37.546875 24.703125 37.546875 
Q 22.859375 37.546875 20.734375 36.765625 
Q 18.609375 35.984375 14.453125 33.40625 
z
" id="TimesNewRomanPSMT-54"/>
       </defs>
       <use xlink:href="#TimesNewRomanPSMT-54"/>
       <use x="50" xlink:href="#TimesNewRomanPSMT-49"/>
       <use x="100" xlink:href="#TimesNewRomanPSMT-48"/>
      </g>
     </g>
    </g>
    <g id="xtick_31">
     <g id="line2d_31">
      <g>
       <use style="stroke:#000000;stroke-width:0.8;" x="350.148771" xlink:href="#m096300c721" y="282.4605"/>
      </g>
     </g>
     <g id="text_31">
      <!-- 630 -->
      <g transform="translate(352.551115 304.4605)rotate(-90)scale(0.1 -0.1)">
       <use xlink:href="#TimesNewRomanPSMT-54"/>
       <use x="50" xlink:href="#TimesNewRomanPSMT-51"/>
       <use x="100" xlink:href="#TimesNewRomanPSMT-48"/>
      </g>
     </g>
    </g>
    <g id="xtick_32">
     <g id="line2d_32">
      <g>
       <use style="stroke:#000000;stroke-width:0.8;" x="359.725601" xlink:href="#m096300c721" y="282.4605"/>
      </g>
     </g>
     <g id="text_32">
      <!-- 650 -->
      <g transform="translate(362.127945 304.4605)rotate(-90)scale(0.1 -0.1)">
       <use xlink:href="#TimesNewRomanPSMT-54"/>
       <use x="50" xlink:href="#TimesNewRomanPSMT-53"/>
       <use x="100" xlink:href="#TimesNewRomanPSMT-48"/>
      </g>
     </g>
    </g>
    <g id="xtick_33">
     <g id="line2d_33">
      <g>
       <use style="stroke:#000000;stroke-width:0.8;" x="369.302431" xlink:href="#m096300c721" y="282.4605"/>
      </g>
     </g>
     <g id="text_33">
      <!-- 670 -->
      <g transform="translate(371.704775 304.4605)rotate(-90)scale(0.1 -0.1)">
       <use xlink:href="#TimesNewRomanPSMT-54"/>
       <use x="50" xlink:href="#TimesNewRomanPSMT-55"/>
       <use x="100" xlink:href="#TimesNewRomanPSMT-48"/>
      </g>
     </g>
    </g>
    <g id="xtick_34">
     <g id="line2d_34">
      <g>
       <use style="stroke:#000000;stroke-width:0.8;" x="378.879262" xlink:href="#m096300c721" y="282.4605"/>
      </g>
     </g>
     <g id="text_34">
      <!-- 690 -->
      <g transform="translate(381.281605 304.4605)rotate(-90)scale(0.1 -0.1)">
       <use xlink:href="#TimesNewRomanPSMT-54"/>
       <use x="50" xlink:href="#TimesNewRomanPSMT-57"/>
       <use x="100" xlink:href="#TimesNewRomanPSMT-48"/>
      </g>
     </g>
    </g>
    <g id="xtick_35">
     <g id="line2d_35">
      <g>
       <use style="stroke:#000000;stroke-width:0.8;" x="388.456092" xlink:href="#m096300c721" y="282.4605"/>
      </g>
     </g>
     <g id="text_35">
      <!-- 710 -->
      <g transform="translate(390.858436 304.4605)rotate(-90)scale(0.1 -0.1)">
       <use xlink:href="#TimesNewRomanPSMT-55"/>
       <use x="50" xlink:href="#TimesNewRomanPSMT-49"/>
       <use x="100" xlink:href="#TimesNewRomanPSMT-48"/>
      </g>
     </g>
    </g>
    <g id="text_36">
     <!-- Apex-toe distance (km) -->
     <g transform="translate(173.656094 315.40425)scale(0.1 -0.1)">
      <defs>
       <path d="M 45.75 22.171875 
L 20.125 22.171875 
L 15.625 11.71875 
Q 13.96875 7.859375 13.96875 5.953125 
Q 13.96875 4.4375 15.40625 3.296875 
Q 16.84375 2.15625 21.625 1.8125 
L 21.625 0 
L 0.78125 0 
L 0.78125 1.8125 
Q 4.9375 2.546875 6.15625 3.71875 
Q 8.640625 6.0625 11.671875 13.234375 
L 34.96875 67.71875 
L 36.671875 67.71875 
L 59.71875 12.640625 
Q 62.5 6 64.765625 4.015625 
Q 67.046875 2.046875 71.09375 1.8125 
L 71.09375 0 
L 44.96875 0 
L 44.96875 1.8125 
Q 48.921875 2 50.3125 3.125 
Q 51.703125 4.25 51.703125 5.859375 
Q 51.703125 8.015625 49.75 12.640625 
z
M 44.390625 25.78125 
L 33.15625 52.546875 
L 21.625 25.78125 
z
" id="TimesNewRomanPSMT-65"/>
       <path d="M -0.09375 40.28125 
L 13.671875 45.84375 
L 15.53125 45.84375 
L 15.53125 35.40625 
Q 19 41.3125 22.484375 43.671875 
Q 25.984375 46.046875 29.828125 46.046875 
Q 36.578125 46.046875 41.0625 40.765625 
Q 46.578125 34.328125 46.578125 23.96875 
Q 46.578125 12.40625 39.9375 4.828125 
Q 34.46875 -1.375 26.171875 -1.375 
Q 22.5625 -1.375 19.921875 -0.34375 
Q 17.96875 0.390625 15.53125 2.59375 
L 15.53125 -11.03125 
Q 15.53125 -15.625 16.09375 -16.859375 
Q 16.65625 -18.109375 18.046875 -18.84375 
Q 19.4375 -19.578125 23.09375 -19.578125 
L 23.09375 -21.390625 
L -0.34375 -21.390625 
L -0.34375 -19.578125 
L 0.875 -19.578125 
Q 3.5625 -19.625 5.46875 -18.5625 
Q 6.390625 -18.015625 6.90625 -16.8125 
Q 7.421875 -15.625 7.421875 -10.75 
L 7.421875 31.546875 
Q 7.421875 35.890625 7.03125 37.0625 
Q 6.640625 38.234375 5.78125 38.8125 
Q 4.9375 39.40625 3.46875 39.40625 
Q 2.296875 39.40625 0.484375 38.71875 
z
M 15.53125 32.515625 
L 15.53125 15.828125 
Q 15.53125 10.40625 15.96875 8.6875 
Q 16.65625 5.859375 19.3125 3.703125 
Q 21.96875 1.5625 26.03125 1.5625 
Q 30.90625 1.5625 33.9375 5.375 
Q 37.890625 10.359375 37.890625 19.390625 
Q 37.890625 29.640625 33.40625 35.15625 
Q 30.28125 38.96875 25.984375 38.96875 
Q 23.640625 38.96875 21.34375 37.796875 
Q 19.578125 36.921875 15.53125 32.515625 
z
" id="TimesNewRomanPSMT-112"/>
       <path d="M 10.640625 27.875 
Q 10.59375 17.921875 15.484375 12.25 
Q 20.359375 6.59375 26.953125 6.59375 
Q 31.34375 6.59375 34.59375 9 
Q 37.84375 11.421875 40.046875 17.28125 
L 41.546875 16.3125 
Q 40.53125 9.625 35.59375 4.125 
Q 30.671875 -1.375 23.25 -1.375 
Q 15.1875 -1.375 9.453125 4.90625 
Q 3.71875 11.1875 3.71875 21.78125 
Q 3.71875 33.25 9.59375 39.671875 
Q 15.484375 46.09375 24.359375 46.09375 
Q 31.890625 46.09375 36.71875 41.140625 
Q 41.546875 36.1875 41.546875 27.875 
z
M 10.640625 30.71875 
L 31.34375 30.71875 
Q 31.109375 35.015625 30.328125 36.765625 
Q 29.109375 39.5 26.6875 41.0625 
Q 24.265625 42.625 21.625 42.625 
Q 17.578125 42.625 14.375 39.46875 
Q 11.1875 36.328125 10.640625 30.71875 
z
" id="TimesNewRomanPSMT-101"/>
       <path d="M 1.3125 44.734375 
L 22.359375 44.734375 
L 22.359375 42.921875 
Q 20.359375 42.921875 19.546875 42.234375 
Q 18.75 41.546875 18.75 40.4375 
Q 18.75 39.265625 20.453125 36.8125 
Q 21 36.03125 22.078125 34.375 
L 25.25 29.296875 
L 28.90625 34.375 
Q 32.421875 39.203125 32.421875 40.484375 
Q 32.421875 41.5 31.59375 42.203125 
Q 30.765625 42.921875 28.90625 42.921875 
L 28.90625 44.734375 
L 44.046875 44.734375 
L 44.046875 42.921875 
Q 41.65625 42.78125 39.890625 41.609375 
Q 37.5 39.9375 33.34375 34.375 
L 27.25 26.21875 
L 38.375 10.203125 
Q 42.484375 4.296875 44.234375 3.09375 
Q 46 1.90625 48.78125 1.765625 
L 48.78125 0 
L 27.6875 0 
L 27.6875 1.765625 
Q 29.890625 1.765625 31.109375 2.734375 
Q 32.03125 3.421875 32.03125 4.546875 
Q 32.03125 5.671875 28.90625 10.203125 
L 22.359375 19.78125 
L 15.1875 10.203125 
Q 11.859375 5.765625 11.859375 4.9375 
Q 11.859375 3.765625 12.953125 2.8125 
Q 14.0625 1.859375 16.265625 1.765625 
L 16.265625 0 
L 1.65625 0 
L 1.65625 1.765625 
Q 3.421875 2 4.734375 2.984375 
Q 6.59375 4.390625 10.984375 10.203125 
L 20.359375 22.65625 
L 11.859375 34.96875 
Q 8.25 40.234375 6.265625 41.578125 
Q 4.296875 42.921875 1.3125 42.921875 
z
" id="TimesNewRomanPSMT-120"/>
       <path d="M 4.046875 26.125 
L 29.296875 26.125 
L 29.296875 18.75 
L 4.046875 18.75 
z
" id="TimesNewRomanPSMT-45"/>
       <path d="M 16.109375 59.421875 
L 16.109375 44.734375 
L 26.5625 44.734375 
L 26.5625 41.3125 
L 16.109375 41.3125 
L 16.109375 12.3125 
Q 16.109375 7.953125 17.359375 6.4375 
Q 18.609375 4.9375 20.5625 4.9375 
Q 22.171875 4.9375 23.6875 5.9375 
Q 25.203125 6.9375 26.03125 8.890625 
L 27.9375 8.890625 
Q 26.21875 4.109375 23.09375 1.6875 
Q 19.96875 -0.734375 16.65625 -0.734375 
Q 14.40625 -0.734375 12.25 0.515625 
Q 10.109375 1.765625 9.078125 4.078125 
Q 8.0625 6.390625 8.0625 11.234375 
L 8.0625 41.3125 
L 0.984375 41.3125 
L 0.984375 42.921875 
Q 3.65625 44 6.46875 46.5625 
Q 9.28125 49.125 11.46875 52.640625 
Q 12.59375 54.5 14.59375 59.421875 
z
" id="TimesNewRomanPSMT-116"/>
       <path d="M 25 46.046875 
Q 35.15625 46.046875 41.3125 38.328125 
Q 46.53125 31.734375 46.53125 23.1875 
Q 46.53125 17.1875 43.640625 11.03125 
Q 40.765625 4.890625 35.71875 1.75 
Q 30.671875 -1.375 24.46875 -1.375 
Q 14.359375 -1.375 8.40625 6.6875 
Q 3.375 13.484375 3.375 21.921875 
Q 3.375 28.078125 6.421875 34.15625 
Q 9.46875 40.234375 14.453125 43.140625 
Q 19.4375 46.046875 25 46.046875 
z
M 23.484375 42.875 
Q 20.90625 42.875 18.28125 41.328125 
Q 15.671875 39.796875 14.0625 35.9375 
Q 12.453125 32.078125 12.453125 26.03125 
Q 12.453125 16.265625 16.328125 9.171875 
Q 20.21875 2.09375 26.5625 2.09375 
Q 31.296875 2.09375 34.375 6 
Q 37.453125 9.90625 37.453125 19.4375 
Q 37.453125 31.34375 32.328125 38.1875 
Q 28.859375 42.875 23.484375 42.875 
z
" id="TimesNewRomanPSMT-111"/>
       <path id="TimesNewRomanPSMT-32"/>
       <path d="M 34.71875 5.03125 
Q 31.453125 1.609375 28.328125 0.109375 
Q 25.203125 -1.375 21.578125 -1.375 
Q 14.265625 -1.375 8.796875 4.75 
Q 3.328125 10.890625 3.328125 20.515625 
Q 3.328125 30.125 9.375 38.109375 
Q 15.4375 46.09375 24.953125 46.09375 
Q 30.859375 46.09375 34.71875 42.328125 
L 34.71875 50.59375 
Q 34.71875 58.25 34.34375 60 
Q 33.984375 61.765625 33.203125 62.390625 
Q 32.421875 63.03125 31.25 63.03125 
Q 29.984375 63.03125 27.875 62.25 
L 27.25 63.96875 
L 40.578125 69.4375 
L 42.78125 69.4375 
L 42.78125 17.71875 
Q 42.78125 9.859375 43.140625 8.125 
Q 43.5 6.390625 44.3125 5.703125 
Q 45.125 5.03125 46.1875 5.03125 
Q 47.515625 5.03125 49.703125 5.859375 
L 50.25 4.15625 
L 36.96875 -1.375 
L 34.71875 -1.375 
z
M 34.71875 8.453125 
L 34.71875 31.5 
Q 34.421875 34.8125 32.953125 37.546875 
Q 31.5 40.28125 29.078125 41.671875 
Q 26.65625 43.0625 24.359375 43.0625 
Q 20.0625 43.0625 16.703125 39.203125 
Q 12.25 34.125 12.25 24.359375 
Q 12.25 14.5 16.546875 9.25 
Q 20.84375 4 26.125 4 
Q 30.5625 4 34.71875 8.453125 
z
" id="TimesNewRomanPSMT-100"/>
       <path d="M 14.5 69.4375 
Q 16.546875 69.4375 17.984375 67.984375 
Q 19.4375 66.546875 19.4375 64.5 
Q 19.4375 62.453125 17.984375 60.984375 
Q 16.546875 59.515625 14.5 59.515625 
Q 12.453125 59.515625 10.984375 60.984375 
Q 9.515625 62.453125 9.515625 64.5 
Q 9.515625 66.546875 10.953125 67.984375 
Q 12.40625 69.4375 14.5 69.4375 
z
M 18.5625 46.046875 
L 18.5625 10.109375 
Q 18.5625 5.90625 19.171875 4.515625 
Q 19.78125 3.125 20.96875 2.4375 
Q 22.171875 1.765625 25.34375 1.765625 
L 25.34375 0 
L 3.609375 0 
L 3.609375 1.765625 
Q 6.890625 1.765625 8 2.390625 
Q 9.125 3.03125 9.78125 4.484375 
Q 10.453125 5.953125 10.453125 10.109375 
L 10.453125 27.34375 
Q 10.453125 34.625 10.015625 36.765625 
Q 9.671875 38.328125 8.9375 38.9375 
Q 8.203125 39.546875 6.9375 39.546875 
Q 5.5625 39.546875 3.609375 38.8125 
L 2.9375 40.578125 
L 16.40625 46.046875 
z
" id="TimesNewRomanPSMT-105"/>
       <path d="M 32.03125 46.046875 
L 32.03125 30.8125 
L 30.421875 30.8125 
Q 28.5625 37.984375 25.65625 40.578125 
Q 22.75 43.171875 18.265625 43.171875 
Q 14.84375 43.171875 12.734375 41.359375 
Q 10.640625 39.546875 10.640625 37.359375 
Q 10.640625 34.625 12.203125 32.671875 
Q 13.71875 30.671875 18.359375 28.421875 
L 25.484375 24.953125 
Q 35.40625 20.125 35.40625 12.203125 
Q 35.40625 6.109375 30.78125 2.359375 
Q 26.171875 -1.375 20.453125 -1.375 
Q 16.359375 -1.375 11.078125 0.09375 
Q 9.46875 0.59375 8.453125 0.59375 
Q 7.328125 0.59375 6.6875 -0.6875 
L 5.078125 -0.6875 
L 5.078125 15.28125 
L 6.6875 15.28125 
Q 8.0625 8.453125 11.90625 4.984375 
Q 15.765625 1.515625 20.5625 1.515625 
Q 23.921875 1.515625 26.046875 3.484375 
Q 28.171875 5.46875 28.171875 8.25 
Q 28.171875 11.625 25.796875 13.921875 
Q 23.4375 16.21875 16.359375 19.734375 
Q 9.28125 23.25 7.078125 26.078125 
Q 4.890625 28.859375 4.890625 33.109375 
Q 4.890625 38.625 8.671875 42.328125 
Q 12.453125 46.046875 18.453125 46.046875 
Q 21.09375 46.046875 24.859375 44.921875 
Q 27.34375 44.1875 28.171875 44.1875 
Q 28.953125 44.1875 29.390625 44.53125 
Q 29.828125 44.875 30.421875 46.046875 
z
" id="TimesNewRomanPSMT-115"/>
       <path d="M 28.46875 6.453125 
Q 21.578125 1.125 19.828125 0.296875 
Q 17.1875 -0.921875 14.203125 -0.921875 
Q 9.578125 -0.921875 6.5625 2.25 
Q 3.5625 5.421875 3.5625 10.59375 
Q 3.5625 13.875 5.03125 16.265625 
Q 7.03125 19.578125 11.984375 22.5 
Q 16.9375 25.4375 28.46875 29.640625 
L 28.46875 31.390625 
Q 28.46875 38.09375 26.34375 40.578125 
Q 24.21875 43.0625 20.171875 43.0625 
Q 17.09375 43.0625 15.28125 41.40625 
Q 13.421875 39.75 13.421875 37.59375 
L 13.53125 34.765625 
Q 13.53125 32.515625 12.375 31.296875 
Q 11.234375 30.078125 9.375 30.078125 
Q 7.5625 30.078125 6.421875 31.34375 
Q 5.28125 32.625 5.28125 34.8125 
Q 5.28125 39.015625 9.578125 42.53125 
Q 13.875 46.046875 21.625 46.046875 
Q 27.59375 46.046875 31.390625 44.046875 
Q 34.28125 42.53125 35.640625 39.3125 
Q 36.53125 37.203125 36.53125 30.71875 
L 36.53125 15.53125 
Q 36.53125 9.125 36.765625 7.6875 
Q 37.015625 6.25 37.578125 5.765625 
Q 38.140625 5.28125 38.875 5.28125 
Q 39.65625 5.28125 40.234375 5.609375 
Q 41.265625 6.25 44.1875 9.1875 
L 44.1875 6.453125 
Q 38.71875 -0.875 33.734375 -0.875 
Q 31.34375 -0.875 29.921875 0.78125 
Q 28.515625 2.4375 28.46875 6.453125 
z
M 28.46875 9.625 
L 28.46875 26.65625 
Q 21.09375 23.734375 18.953125 22.515625 
Q 15.09375 20.359375 13.421875 18.015625 
Q 11.765625 15.671875 11.765625 12.890625 
Q 11.765625 9.375 13.859375 7.046875 
Q 15.96875 4.734375 18.703125 4.734375 
Q 22.40625 4.734375 28.46875 9.625 
z
" id="TimesNewRomanPSMT-97"/>
       <path d="M 16.15625 36.578125 
Q 24.03125 46.046875 31.15625 46.046875 
Q 34.8125 46.046875 37.453125 44.21875 
Q 40.09375 42.390625 41.65625 38.1875 
Q 42.71875 35.25 42.71875 29.203125 
L 42.71875 10.109375 
Q 42.71875 5.859375 43.40625 4.34375 
Q 43.953125 3.125 45.140625 2.4375 
Q 46.34375 1.765625 49.5625 1.765625 
L 49.5625 0 
L 27.4375 0 
L 27.4375 1.765625 
L 28.375 1.765625 
Q 31.5 1.765625 32.734375 2.703125 
Q 33.984375 3.65625 34.46875 5.515625 
Q 34.671875 6.25 34.671875 10.109375 
L 34.671875 28.421875 
Q 34.671875 34.515625 33.078125 37.28125 
Q 31.5 40.046875 27.734375 40.046875 
Q 21.921875 40.046875 16.15625 33.6875 
L 16.15625 10.109375 
Q 16.15625 5.5625 16.703125 4.5 
Q 17.390625 3.078125 18.578125 2.421875 
Q 19.78125 1.765625 23.4375 1.765625 
L 23.4375 0 
L 1.3125 0 
L 1.3125 1.765625 
L 2.296875 1.765625 
Q 5.71875 1.765625 6.90625 3.484375 
Q 8.109375 5.21875 8.109375 10.109375 
L 8.109375 26.703125 
Q 8.109375 34.765625 7.734375 36.515625 
Q 7.375 38.28125 6.609375 38.90625 
Q 5.859375 39.546875 4.59375 39.546875 
Q 3.21875 39.546875 1.3125 38.8125 
L 0.59375 40.578125 
L 14.0625 46.046875 
L 16.15625 46.046875 
z
" id="TimesNewRomanPSMT-110"/>
       <path d="M 41.109375 17 
Q 39.3125 8.15625 34.03125 3.390625 
Q 28.765625 -1.375 22.359375 -1.375 
Q 14.75 -1.375 9.078125 5.015625 
Q 3.421875 11.421875 3.421875 22.3125 
Q 3.421875 32.859375 9.6875 39.453125 
Q 15.96875 46.046875 24.75 46.046875 
Q 31.34375 46.046875 35.59375 42.546875 
Q 39.84375 39.0625 39.84375 35.296875 
Q 39.84375 33.453125 38.640625 32.296875 
Q 37.453125 31.15625 35.296875 31.15625 
Q 32.421875 31.15625 30.953125 33.015625 
Q 30.125 34.03125 29.859375 36.90625 
Q 29.59375 39.796875 27.875 41.3125 
Q 26.171875 42.78125 23.140625 42.78125 
Q 18.265625 42.78125 15.28125 39.15625 
Q 11.328125 34.375 11.328125 26.515625 
Q 11.328125 18.5 15.25 12.375 
Q 19.1875 6.25 25.875 6.25 
Q 30.671875 6.25 34.46875 9.515625 
Q 37.15625 11.765625 39.703125 17.671875 
z
" id="TimesNewRomanPSMT-99"/>
       <path d="M 31.0625 -19.578125 
L 31.0625 -21.390625 
Q 23.6875 -17.671875 18.75 -12.703125 
Q 11.71875 -5.609375 7.90625 4 
Q 4.109375 13.625 4.109375 23.96875 
Q 4.109375 39.109375 11.578125 51.578125 
Q 19.046875 64.0625 31.0625 69.4375 
L 31.0625 67.390625 
Q 25.046875 64.0625 21.1875 58.296875 
Q 17.328125 52.546875 15.421875 43.703125 
Q 13.53125 34.859375 13.53125 25.25 
Q 13.53125 14.796875 15.140625 6.25 
Q 16.40625 -0.484375 18.203125 -4.5625 
Q 20.015625 -8.640625 23.0625 -12.390625 
Q 26.125 -16.15625 31.0625 -19.578125 
z
" id="TimesNewRomanPSMT-40"/>
       <path d="M 16.359375 69.4375 
L 16.359375 24.90625 
L 27.734375 35.296875 
Q 31.34375 38.625 31.9375 39.5 
Q 32.328125 40.09375 32.328125 40.671875 
Q 32.328125 41.65625 31.515625 42.359375 
Q 30.71875 43.0625 28.859375 43.171875 
L 28.859375 44.734375 
L 48.296875 44.734375 
L 48.296875 43.171875 
Q 44.28125 43.0625 41.625 41.9375 
Q 38.96875 40.828125 35.796875 37.9375 
L 24.3125 27.34375 
L 35.796875 12.84375 
Q 40.578125 6.84375 42.234375 5.21875 
Q 44.578125 2.9375 46.34375 2.25 
Q 47.5625 1.765625 50.59375 1.765625 
L 50.59375 0 
L 28.859375 0 
L 28.859375 1.765625 
Q 30.71875 1.8125 31.375 2.3125 
Q 32.03125 2.828125 32.03125 3.765625 
Q 32.03125 4.890625 30.078125 7.375 
L 16.359375 24.90625 
L 16.359375 10.0625 
Q 16.359375 5.71875 16.96875 4.34375 
Q 17.578125 2.984375 18.703125 2.390625 
Q 19.828125 1.8125 23.578125 1.765625 
L 23.578125 0 
L 0.828125 0 
L 0.828125 1.765625 
Q 4.25 1.765625 5.953125 2.59375 
Q 6.984375 3.125 7.515625 4.25 
Q 8.25 5.859375 8.25 9.8125 
L 8.25 50.53125 
Q 8.25 58.296875 7.90625 60.03125 
Q 7.5625 61.765625 6.78125 62.421875 
Q 6 63.09375 4.734375 63.09375 
Q 3.71875 63.09375 1.65625 62.25 
L 0.828125 63.96875 
L 14.109375 69.4375 
z
" id="TimesNewRomanPSMT-107"/>
       <path d="M 16.40625 36.53125 
Q 21.296875 41.40625 22.171875 42.140625 
Q 24.359375 44 26.890625 45.015625 
Q 29.4375 46.046875 31.9375 46.046875 
Q 36.140625 46.046875 39.15625 43.59375 
Q 42.1875 41.15625 43.21875 36.53125 
Q 48.25 42.390625 51.703125 44.21875 
Q 55.171875 46.046875 58.84375 46.046875 
Q 62.40625 46.046875 65.15625 44.21875 
Q 67.921875 42.390625 69.53125 38.234375 
Q 70.609375 35.40625 70.609375 29.34375 
L 70.609375 10.109375 
Q 70.609375 5.90625 71.234375 4.34375 
Q 71.734375 3.265625 73.046875 2.515625 
Q 74.359375 1.765625 77.34375 1.765625 
L 77.34375 0 
L 55.28125 0 
L 55.28125 1.765625 
L 56.203125 1.765625 
Q 59.078125 1.765625 60.6875 2.875 
Q 61.8125 3.65625 62.3125 5.375 
Q 62.5 6.203125 62.5 10.109375 
L 62.5 29.34375 
Q 62.5 34.8125 61.1875 37.0625 
Q 59.28125 40.1875 55.078125 40.1875 
Q 52.484375 40.1875 49.875 38.890625 
Q 47.265625 37.59375 43.5625 34.078125 
L 43.453125 33.546875 
L 43.5625 31.453125 
L 43.5625 10.109375 
Q 43.5625 5.515625 44.0625 4.390625 
Q 44.578125 3.265625 45.984375 2.515625 
Q 47.40625 1.765625 50.828125 1.765625 
L 50.828125 0 
L 28.21875 0 
L 28.21875 1.765625 
Q 31.9375 1.765625 33.328125 2.640625 
Q 34.71875 3.515625 35.25 5.28125 
Q 35.5 6.109375 35.5 10.109375 
L 35.5 29.34375 
Q 35.5 34.8125 33.890625 37.203125 
Q 31.734375 40.328125 27.875 40.328125 
Q 25.25 40.328125 22.65625 38.921875 
Q 18.609375 36.765625 16.40625 34.078125 
L 16.40625 10.109375 
Q 16.40625 5.71875 17.015625 4.390625 
Q 17.625 3.078125 18.8125 2.421875 
Q 20.015625 1.765625 23.6875 1.765625 
L 23.6875 0 
L 1.5625 0 
L 1.5625 1.765625 
Q 4.640625 1.765625 5.859375 2.421875 
Q 7.078125 3.078125 7.703125 4.515625 
Q 8.34375 5.953125 8.34375 10.109375 
L 8.34375 27.203125 
Q 8.34375 34.578125 7.90625 36.71875 
Q 7.5625 38.328125 6.828125 38.9375 
Q 6.109375 39.546875 4.828125 39.546875 
Q 3.46875 39.546875 1.5625 38.8125 
L 0.828125 40.578125 
L 14.3125 46.046875 
L 16.40625 46.046875 
z
" id="TimesNewRomanPSMT-109"/>
       <path d="M 2.25 67.390625 
L 2.25 69.4375 
Q 9.671875 65.765625 14.59375 60.796875 
Q 21.578125 53.65625 25.390625 44.0625 
Q 29.203125 34.46875 29.203125 24.078125 
Q 29.203125 8.9375 21.75 -3.53125 
Q 14.3125 -16.015625 2.25 -21.390625 
L 2.25 -19.578125 
Q 8.25 -16.21875 12.125 -10.46875 
Q 16.015625 -4.734375 17.890625 4.125 
Q 19.78125 12.984375 19.78125 22.609375 
Q 19.78125 33.015625 18.171875 41.609375 
Q 16.9375 48.34375 15.109375 52.390625 
Q 13.28125 56.453125 10.25 60.203125 
Q 7.234375 63.96875 2.25 67.390625 
z
" id="TimesNewRomanPSMT-41"/>
      </defs>
      <use xlink:href="#TimesNewRomanPSMT-65"/>
      <use x="72.216797" xlink:href="#TimesNewRomanPSMT-112"/>
      <use x="122.216797" xlink:href="#TimesNewRomanPSMT-101"/>
      <use x="166.601562" xlink:href="#TimesNewRomanPSMT-120"/>
      <use x="216.601562" xlink:href="#TimesNewRomanPSMT-45"/>
      <use x="249.902344" xlink:href="#TimesNewRomanPSMT-116"/>
      <use x="277.685547" xlink:href="#TimesNewRomanPSMT-111"/>
      <use x="327.685547" xlink:href="#TimesNewRomanPSMT-101"/>
      <use x="372.070312" xlink:href="#TimesNewRomanPSMT-32"/>
      <use x="397.070312" xlink:href="#TimesNewRomanPSMT-100"/>
      <use x="447.070312" xlink:href="#TimesNewRomanPSMT-105"/>
      <use x="474.853516" xlink:href="#TimesNewRomanPSMT-115"/>
      <use x="513.769531" xlink:href="#TimesNewRomanPSMT-116"/>
      <use x="541.552734" xlink:href="#TimesNewRomanPSMT-97"/>
      <use x="585.9375" xlink:href="#TimesNewRomanPSMT-110"/>
      <use x="635.9375" xlink:href="#TimesNewRomanPSMT-99"/>
      <use x="680.322266" xlink:href="#TimesNewRomanPSMT-101"/>
      <use x="724.707031" xlink:href="#TimesNewRomanPSMT-32"/>
      <use x="749.707031" xlink:href="#TimesNewRomanPSMT-40"/>
      <use x="783.007812" xlink:href="#TimesNewRomanPSMT-107"/>
      <use x="833.007812" xlink:href="#TimesNewRomanPSMT-109"/>
      <use x="910.791016" xlink:href="#TimesNewRomanPSMT-41"/>
     </g>
    </g>
   </g>
   <g id="matplotlib.axis_2">
    <g id="ytick_1">
     <g id="line2d_36">
      <defs>
       <path d="M 0 0 
L -3.5 0 
" id="m5ec9cf29a3" style="stroke:#000000;stroke-width:0.8;"/>
      </defs>
      <g>
       <use style="stroke:#000000;stroke-width:0.8;" x="42.301563" xlink:href="#m5ec9cf29a3" y="282.4605"/>
      </g>
     </g>
     <g id="text_37">
      <!-- 0 -->
      <g transform="translate(30.301563 285.932375)scale(0.1 -0.1)">
       <use xlink:href="#TimesNewRomanPSMT-48"/>
      </g>
     </g>
    </g>
    <g id="ytick_2">
     <g id="line2d_37">
      <g>
       <use style="stroke:#000000;stroke-width:0.8;" x="42.301563" xlink:href="#m5ec9cf29a3" y="248.696525"/>
      </g>
     </g>
     <g id="text_38">
      <!-- 25 -->
      <g transform="translate(25.301563 252.1684)scale(0.1 -0.1)">
       <use xlink:href="#TimesNewRomanPSMT-50"/>
       <use x="50" xlink:href="#TimesNewRomanPSMT-53"/>
      </g>
     </g>
    </g>
    <g id="ytick_3">
     <g id="line2d_38">
      <g>
       <use style="stroke:#000000;stroke-width:0.8;" x="42.301563" xlink:href="#m5ec9cf29a3" y="214.93255"/>
      </g>
     </g>
     <g id="text_39">
      <!-- 50 -->
      <g transform="translate(25.301563 218.404425)scale(0.1 -0.1)">
       <use xlink:href="#TimesNewRomanPSMT-53"/>
       <use x="50" xlink:href="#TimesNewRomanPSMT-48"/>
      </g>
     </g>
    </g>
    <g id="ytick_4">
     <g id="line2d_39">
      <g>
       <use style="stroke:#000000;stroke-width:0.8;" x="42.301563" xlink:href="#m5ec9cf29a3" y="181.168575"/>
      </g>
     </g>
     <g id="text_40">
      <!-- 75 -->
      <g transform="translate(25.301563 184.64045)scale(0.1 -0.1)">
       <use xlink:href="#TimesNewRomanPSMT-55"/>
       <use x="50" xlink:href="#TimesNewRomanPSMT-53"/>
      </g>
     </g>
    </g>
    <g id="ytick_5">
     <g id="line2d_40">
      <g>
       <use style="stroke:#000000;stroke-width:0.8;" x="42.301563" xlink:href="#m5ec9cf29a3" y="147.404599"/>
      </g>
     </g>
     <g id="text_41">
      <!-- 100 -->
      <g transform="translate(20.301563 150.876474)scale(0.1 -0.1)">
       <use xlink:href="#TimesNewRomanPSMT-49"/>
       <use x="50" xlink:href="#TimesNewRomanPSMT-48"/>
       <use x="100" xlink:href="#TimesNewRomanPSMT-48"/>
      </g>
     </g>
    </g>
    <g id="ytick_6">
     <g id="line2d_41">
      <g>
       <use style="stroke:#000000;stroke-width:0.8;" x="42.301563" xlink:href="#m5ec9cf29a3" y="113.640624"/>
      </g>
     </g>
     <g id="text_42">
      <!-- 125 -->
      <g transform="translate(20.301563 117.112499)scale(0.1 -0.1)">
       <use xlink:href="#TimesNewRomanPSMT-49"/>
       <use x="50" xlink:href="#TimesNewRomanPSMT-50"/>
       <use x="100" xlink:href="#TimesNewRomanPSMT-53"/>
      </g>
     </g>
    </g>
    <g id="ytick_7">
     <g id="line2d_42">
      <g>
       <use style="stroke:#000000;stroke-width:0.8;" x="42.301563" xlink:href="#m5ec9cf29a3" y="79.876649"/>
      </g>
     </g>
     <g id="text_43">
      <!-- 150 -->
      <g transform="translate(20.301563 83.348524)scale(0.1 -0.1)">
       <use xlink:href="#TimesNewRomanPSMT-49"/>
       <use x="50" xlink:href="#TimesNewRomanPSMT-53"/>
       <use x="100" xlink:href="#TimesNewRomanPSMT-48"/>
      </g>
     </g>
    </g>
    <g id="ytick_8">
     <g id="line2d_43">
      <g>
       <use style="stroke:#000000;stroke-width:0.8;" x="42.301563" xlink:href="#m5ec9cf29a3" y="46.112674"/>
      </g>
     </g>
     <g id="text_44">
      <!-- 175 -->
      <g transform="translate(20.301563 49.584549)scale(0.1 -0.1)">
       <use xlink:href="#TimesNewRomanPSMT-49"/>
       <use x="50" xlink:href="#TimesNewRomanPSMT-55"/>
       <use x="100" xlink:href="#TimesNewRomanPSMT-53"/>
      </g>
     </g>
    </g>
    <g id="text_45">
     <!-- Frequency distribution -->
     <g transform="translate(14.14375 197.406656)rotate(-90)scale(0.1 -0.1)">
      <defs>
       <path d="M 20.453125 62.59375 
L 20.453125 36.578125 
L 32.515625 36.578125 
Q 36.671875 36.578125 38.59375 38.40625 
Q 40.53125 40.234375 41.15625 45.65625 
L 42.96875 45.65625 
L 42.96875 23.25 
L 41.15625 23.25 
Q 41.109375 27.09375 40.15625 28.90625 
Q 39.203125 30.71875 37.515625 31.609375 
Q 35.84375 32.515625 32.515625 32.515625 
L 20.453125 32.515625 
L 20.453125 11.71875 
Q 20.453125 6.6875 21.09375 5.078125 
Q 21.578125 3.859375 23.140625 2.984375 
Q 25.296875 1.8125 27.640625 1.8125 
L 30.03125 1.8125 
L 30.03125 0 
L 1.609375 0 
L 1.609375 1.8125 
L 3.953125 1.8125 
Q 8.0625 1.8125 9.90625 4.203125 
Q 11.078125 5.765625 11.078125 11.71875 
L 11.078125 54.5 
Q 11.078125 59.515625 10.453125 61.140625 
Q 9.96875 62.359375 8.453125 63.234375 
Q 6.34375 64.40625 3.953125 64.40625 
L 1.609375 64.40625 
L 1.609375 66.21875 
L 50.875 66.21875 
L 51.515625 51.65625 
L 49.8125 51.65625 
Q 48.53125 56.296875 46.84375 58.46875 
Q 45.171875 60.640625 42.703125 61.609375 
Q 40.234375 62.59375 35.0625 62.59375 
z
" id="TimesNewRomanPSMT-70"/>
       <path d="M 16.21875 46.046875 
L 16.21875 35.984375 
Q 21.828125 46.046875 27.734375 46.046875 
Q 30.421875 46.046875 32.171875 44.40625 
Q 33.9375 42.78125 33.9375 40.625 
Q 33.9375 38.71875 32.65625 37.390625 
Q 31.390625 36.078125 29.640625 36.078125 
Q 27.9375 36.078125 25.8125 37.765625 
Q 23.6875 39.453125 22.65625 39.453125 
Q 21.78125 39.453125 20.75 38.484375 
Q 18.5625 36.46875 16.21875 31.890625 
L 16.21875 10.453125 
Q 16.21875 6.734375 17.140625 4.828125 
Q 17.78125 3.515625 19.390625 2.640625 
Q 21 1.765625 24.03125 1.765625 
L 24.03125 0 
L 1.125 0 
L 1.125 1.765625 
Q 4.546875 1.765625 6.203125 2.828125 
Q 7.421875 3.609375 7.90625 5.328125 
Q 8.15625 6.15625 8.15625 10.0625 
L 8.15625 27.390625 
Q 8.15625 35.203125 7.828125 36.6875 
Q 7.515625 38.1875 6.65625 38.859375 
Q 5.8125 39.546875 4.546875 39.546875 
Q 3.03125 39.546875 1.125 38.8125 
L 0.640625 40.578125 
L 14.15625 46.046875 
z
" id="TimesNewRomanPSMT-114"/>
       <path d="M 42.71875 46.046875 
L 42.71875 -11.46875 
Q 42.71875 -15.765625 43.296875 -16.984375 
Q 43.890625 -18.21875 45.140625 -18.890625 
Q 46.390625 -19.578125 50 -19.578125 
L 50 -21.390625 
L 27.4375 -21.390625 
L 27.4375 -19.578125 
L 28.375 -19.578125 
Q 31.109375 -19.578125 32.515625 -18.796875 
Q 33.5 -18.265625 34.078125 -16.875 
Q 34.671875 -15.484375 34.671875 -11.46875 
L 34.671875 7.765625 
Q 30.21875 2.484375 26.890625 0.546875 
Q 23.578125 -1.375 20.015625 -1.375 
Q 13.53125 -1.375 8.421875 4.53125 
Q 3.328125 10.453125 3.328125 20.359375 
Q 3.328125 31.734375 10.0625 38.890625 
Q 16.796875 46.046875 26.3125 46.046875 
Q 29.109375 46.046875 31.453125 45.265625 
Q 33.796875 44.484375 35.640625 42.921875 
Q 38.484375 44.28125 41.0625 46.046875 
z
M 34.671875 10.84375 
L 34.671875 31.84375 
Q 34.671875 35.5 33.71875 37.59375 
Q 32.765625 39.703125 30.3125 41.15625 
Q 27.875 42.625 24.8125 42.625 
Q 19.34375 42.625 15.4375 37.984375 
Q 11.53125 33.34375 11.53125 23.921875 
Q 11.53125 14.890625 15.5 10.203125 
Q 19.484375 5.515625 25.09375 5.515625 
Q 27.984375 5.515625 30.21875 6.765625 
Q 32.46875 8.015625 34.671875 10.84375 
z
" id="TimesNewRomanPSMT-113"/>
       <path d="M 42.328125 44.734375 
L 42.328125 17.625 
Q 42.328125 9.859375 42.6875 8.125 
Q 43.0625 6.390625 43.859375 5.703125 
Q 44.671875 5.03125 45.75 5.03125 
Q 47.265625 5.03125 49.171875 5.859375 
L 49.859375 4.15625 
L 36.46875 -1.375 
L 34.28125 -1.375 
L 34.28125 8.109375 
Q 28.515625 1.859375 25.484375 0.234375 
Q 22.46875 -1.375 19.09375 -1.375 
Q 15.328125 -1.375 12.5625 0.796875 
Q 9.8125 2.984375 8.734375 6.390625 
Q 7.671875 9.8125 7.671875 16.0625 
L 7.671875 36.03125 
Q 7.671875 39.203125 6.984375 40.421875 
Q 6.296875 41.65625 4.953125 42.3125 
Q 3.609375 42.96875 0.09375 42.921875 
L 0.09375 44.734375 
L 15.765625 44.734375 
L 15.765625 14.796875 
Q 15.765625 8.546875 17.9375 6.59375 
Q 20.125 4.640625 23.1875 4.640625 
Q 25.296875 4.640625 27.953125 5.953125 
Q 30.609375 7.28125 34.28125 10.984375 
L 34.28125 36.328125 
Q 34.28125 40.140625 32.890625 41.484375 
Q 31.5 42.828125 27.09375 42.921875 
L 27.09375 44.734375 
z
" id="TimesNewRomanPSMT-117"/>
       <path d="M 0.59375 44.734375 
L 21.4375 44.734375 
L 21.4375 42.921875 
L 20.40625 42.921875 
Q 18.21875 42.921875 17.109375 41.96875 
Q 16.015625 41.015625 16.015625 39.59375 
Q 16.015625 37.703125 17.625 34.328125 
L 28.515625 11.765625 
L 38.53125 36.46875 
Q 39.359375 38.484375 39.359375 40.4375 
Q 39.359375 41.3125 39.015625 41.75 
Q 38.625 42.28125 37.796875 42.59375 
Q 36.96875 42.921875 34.859375 42.921875 
L 34.859375 44.734375 
L 49.421875 44.734375 
L 49.421875 42.921875 
Q 47.609375 42.71875 46.625 42.125 
Q 45.65625 41.546875 44.484375 39.9375 
Q 44.046875 39.265625 42.828125 36.1875 
L 24.609375 -8.453125 
Q 21.96875 -14.9375 17.6875 -18.25 
Q 13.421875 -21.578125 9.46875 -21.578125 
Q 6.59375 -21.578125 4.734375 -19.921875 
Q 2.875 -18.265625 2.875 -16.109375 
Q 2.875 -14.0625 4.21875 -12.8125 
Q 5.5625 -11.578125 7.90625 -11.578125 
Q 9.515625 -11.578125 12.3125 -12.640625 
Q 14.265625 -13.375 14.75 -13.375 
Q 16.21875 -13.375 17.9375 -11.859375 
Q 19.671875 -10.359375 21.4375 -6 
L 24.609375 1.765625 
L 8.546875 35.5 
Q 7.8125 37.015625 6.203125 39.265625 
Q 4.984375 40.96875 4.203125 41.546875 
Q 3.078125 42.328125 0.59375 42.921875 
z
" id="TimesNewRomanPSMT-121"/>
       <path d="M 15.375 37.015625 
Q 21.875 46.046875 29.390625 46.046875 
Q 36.28125 46.046875 41.40625 40.15625 
Q 46.53125 34.28125 46.53125 24.078125 
Q 46.53125 12.15625 38.625 4.890625 
Q 31.84375 -1.375 23.484375 -1.375 
Q 19.578125 -1.375 15.546875 0.046875 
Q 11.53125 1.46875 7.328125 4.296875 
L 7.328125 50.640625 
Q 7.328125 58.25 6.953125 60 
Q 6.59375 61.765625 5.8125 62.390625 
Q 5.03125 63.03125 3.859375 63.03125 
Q 2.484375 63.03125 0.4375 62.25 
L -0.25 63.96875 
L 13.1875 69.4375 
L 15.375 69.4375 
z
M 15.375 33.890625 
L 15.375 7.125 
Q 17.875 4.6875 20.53125 3.4375 
Q 23.1875 2.203125 25.984375 2.203125 
Q 30.421875 2.203125 34.25 7.078125 
Q 38.09375 11.96875 38.09375 21.296875 
Q 38.09375 29.890625 34.25 34.5 
Q 30.421875 39.109375 25.53125 39.109375 
Q 22.953125 39.109375 20.359375 37.796875 
Q 18.40625 36.8125 15.375 33.890625 
z
" id="TimesNewRomanPSMT-98"/>
      </defs>
      <use xlink:href="#TimesNewRomanPSMT-70"/>
      <use x="55.615234" xlink:href="#TimesNewRomanPSMT-114"/>
      <use x="88.916016" xlink:href="#TimesNewRomanPSMT-101"/>
      <use x="133.300781" xlink:href="#TimesNewRomanPSMT-113"/>
      <use x="183.300781" xlink:href="#TimesNewRomanPSMT-117"/>
      <use x="233.300781" xlink:href="#TimesNewRomanPSMT-101"/>
      <use x="277.685547" xlink:href="#TimesNewRomanPSMT-110"/>
      <use x="327.685547" xlink:href="#TimesNewRomanPSMT-99"/>
      <use x="372.070312" xlink:href="#TimesNewRomanPSMT-121"/>
      <use x="422.070312" xlink:href="#TimesNewRomanPSMT-32"/>
      <use x="447.070312" xlink:href="#TimesNewRomanPSMT-100"/>
      <use x="497.070312" xlink:href="#TimesNewRomanPSMT-105"/>
      <use x="524.853516" xlink:href="#TimesNewRomanPSMT-115"/>
      <use x="563.769531" xlink:href="#TimesNewRomanPSMT-116"/>
      <use x="591.552734" xlink:href="#TimesNewRomanPSMT-114"/>
      <use x="624.853516" xlink:href="#TimesNewRomanPSMT-105"/>
      <use x="652.636719" xlink:href="#TimesNewRomanPSMT-98"/>
      <use x="702.636719" xlink:href="#TimesNewRomanPSMT-117"/>
      <use x="752.636719" xlink:href="#TimesNewRomanPSMT-116"/>
      <use x="780.419922" xlink:href="#TimesNewRomanPSMT-105"/>
      <use x="808.203125" xlink:href="#TimesNewRomanPSMT-111"/>
      <use x="858.203125" xlink:href="#TimesNewRomanPSMT-110"/>
     </g>
    </g>
   </g>
   <g id="patch_173">
    <path d="M 42.301563 282.4605 
L 42.301563 21.5325 
" style="fill:none;stroke:#000000;stroke-linecap:square;stroke-linejoin:miter;stroke-width:0.8;"/>
   </g>
   <g id="patch_174">
    <path d="M 399.421563 282.4605 
L 399.421563 21.5325 
" style="fill:none;stroke:#000000;stroke-linecap:square;stroke-linejoin:miter;stroke-width:0.8;"/>
   </g>
   <g id="patch_175">
    <path d="M 42.301563 282.4605 
L 399.421563 282.4605 
" style="fill:none;stroke:#000000;stroke-linecap:square;stroke-linejoin:miter;stroke-width:0.8;"/>
   </g>
   <g id="patch_176">
    <path d="M 42.301563 21.5325 
L 399.421563 21.5325 
" style="fill:none;stroke:#000000;stroke-linecap:square;stroke-linejoin:miter;stroke-width:0.8;"/>
   </g>
   <g id="text_46">
    <!-- Modern DFS distribution across tectonic settings -->
    <g transform="translate(103.370313 15.5325)scale(0.12 -0.12)">
     <defs>
      <path d="M 40.921875 0 
L 15.328125 55.71875 
L 15.328125 11.46875 
Q 15.328125 5.375 16.65625 3.859375 
Q 18.453125 1.8125 22.359375 1.8125 
L 24.703125 1.8125 
L 24.703125 0 
L 1.65625 0 
L 1.65625 1.8125 
L 4 1.8125 
Q 8.203125 1.8125 9.96875 4.34375 
Q 11.03125 5.90625 11.03125 11.46875 
L 11.03125 54.734375 
Q 11.03125 59.125 10.0625 61.078125 
Q 9.375 62.5 7.546875 63.453125 
Q 5.71875 64.40625 1.65625 64.40625 
L 1.65625 66.21875 
L 20.40625 66.21875 
L 44.4375 14.40625 
L 68.0625 66.21875 
L 86.8125 66.21875 
L 86.8125 64.40625 
L 84.515625 64.40625 
Q 80.28125 64.40625 78.515625 61.859375 
Q 77.4375 60.296875 77.4375 54.734375 
L 77.4375 11.46875 
Q 77.4375 5.375 78.8125 3.859375 
Q 80.609375 1.8125 84.515625 1.8125 
L 86.8125 1.8125 
L 86.8125 0 
L 58.6875 0 
L 58.6875 1.8125 
L 61.03125 1.8125 
Q 65.28125 1.8125 67 4.34375 
Q 68.0625 5.90625 68.0625 11.46875 
L 68.0625 55.71875 
L 42.53125 0 
z
" id="TimesNewRomanPSMT-77"/>
      <path d="M 1.703125 0 
L 1.703125 1.8125 
L 4.203125 1.8125 
Q 8.40625 1.8125 10.15625 4.5 
Q 11.234375 6.109375 11.234375 11.71875 
L 11.234375 54.5 
Q 11.234375 60.6875 9.859375 62.25 
Q 7.953125 64.40625 4.203125 64.40625 
L 1.703125 64.40625 
L 1.703125 66.21875 
L 28.65625 66.21875 
Q 43.5 66.21875 51.234375 62.84375 
Q 58.984375 59.46875 63.6875 51.609375 
Q 68.40625 43.75 68.40625 33.453125 
Q 68.40625 19.625 60.015625 10.359375 
Q 50.59375 0 31.296875 0 
z
M 20.609375 4.78125 
Q 26.8125 3.421875 31 3.421875 
Q 42.328125 3.421875 49.796875 11.375 
Q 57.28125 19.34375 57.28125 32.953125 
Q 57.28125 46.6875 49.796875 54.59375 
Q 42.328125 62.5 30.609375 62.5 
Q 26.21875 62.5 20.609375 61.078125 
z
" id="TimesNewRomanPSMT-68"/>
      <path d="M 45.84375 67.71875 
L 45.84375 44.828125 
L 44.046875 44.828125 
Q 43.171875 51.421875 40.890625 55.328125 
Q 38.625 59.234375 34.421875 61.515625 
Q 30.21875 63.8125 25.734375 63.8125 
Q 20.65625 63.8125 17.328125 60.71875 
Q 14.015625 57.625 14.015625 53.65625 
Q 14.015625 50.640625 16.109375 48.140625 
Q 19.140625 44.484375 30.515625 38.375 
Q 39.796875 33.40625 43.1875 30.734375 
Q 46.578125 28.078125 48.40625 24.453125 
Q 50.25 20.84375 50.25 16.890625 
Q 50.25 9.375 44.40625 3.921875 
Q 38.578125 -1.515625 29.390625 -1.515625 
Q 26.515625 -1.515625 23.96875 -1.078125 
Q 22.46875 -0.828125 17.703125 0.703125 
Q 12.9375 2.25 11.671875 2.25 
Q 10.453125 2.25 9.734375 1.515625 
Q 9.03125 0.78125 8.6875 -1.515625 
L 6.890625 -1.515625 
L 6.890625 21.1875 
L 8.6875 21.1875 
Q 9.96875 14.0625 12.109375 10.515625 
Q 14.265625 6.984375 18.671875 4.640625 
Q 23.09375 2.296875 28.375 2.296875 
Q 34.46875 2.296875 38 5.515625 
Q 41.546875 8.734375 41.546875 13.140625 
Q 41.546875 15.578125 40.203125 18.0625 
Q 38.875 20.5625 36.03125 22.703125 
Q 34.125 24.171875 25.625 28.921875 
Q 17.140625 33.6875 13.546875 36.515625 
Q 9.96875 39.359375 8.109375 42.765625 
Q 6.25 46.1875 6.25 50.296875 
Q 6.25 57.421875 11.71875 62.5625 
Q 17.1875 67.71875 25.640625 67.71875 
Q 30.90625 67.71875 36.8125 65.140625 
Q 39.546875 63.921875 40.671875 63.921875 
Q 41.9375 63.921875 42.75 64.671875 
Q 43.5625 65.4375 44.046875 67.71875 
z
" id="TimesNewRomanPSMT-83"/>
      <path d="M 15.09375 16.3125 
Q 10.984375 18.3125 8.78125 21.890625 
Q 6.59375 25.484375 6.59375 29.828125 
Q 6.59375 36.46875 11.59375 41.25 
Q 16.609375 46.046875 24.421875 46.046875 
Q 30.8125 46.046875 35.5 42.921875 
L 44.96875 42.921875 
Q 47.078125 42.921875 47.40625 42.796875 
Q 47.75 42.671875 47.90625 42.390625 
Q 48.1875 41.9375 48.1875 40.828125 
Q 48.1875 39.546875 47.953125 39.0625 
Q 47.796875 38.8125 47.4375 38.671875 
Q 47.078125 38.53125 44.96875 38.53125 
L 39.15625 38.53125 
Q 41.890625 35.015625 41.890625 29.546875 
Q 41.890625 23.296875 37.109375 18.84375 
Q 32.328125 14.40625 24.265625 14.40625 
Q 20.953125 14.40625 17.484375 15.375 
Q 15.328125 13.53125 14.5625 12.140625 
Q 13.8125 10.75 13.8125 9.765625 
Q 13.8125 8.9375 14.625 8.15625 
Q 15.4375 7.375 17.78125 7.03125 
Q 19.140625 6.84375 24.609375 6.6875 
Q 34.671875 6.453125 37.640625 6 
Q 42.1875 5.375 44.890625 2.640625 
Q 47.609375 -0.09375 47.609375 -4.109375 
Q 47.609375 -9.625 42.4375 -14.453125 
Q 34.8125 -21.578125 22.5625 -21.578125 
Q 13.140625 -21.578125 6.640625 -17.328125 
Q 2.984375 -14.890625 2.984375 -12.25 
Q 2.984375 -11.078125 3.515625 -9.90625 
Q 4.34375 -8.109375 6.9375 -4.890625 
Q 7.28125 -4.4375 11.921875 0.390625 
Q 9.375 1.90625 8.328125 3.09375 
Q 7.28125 4.296875 7.28125 5.8125 
Q 7.28125 7.515625 8.671875 9.8125 
Q 10.0625 12.109375 15.09375 16.3125 
z
M 23.578125 43.703125 
Q 19.96875 43.703125 17.53125 40.8125 
Q 15.09375 37.9375 15.09375 31.984375 
Q 15.09375 24.265625 18.40625 20.015625 
Q 20.953125 16.796875 24.859375 16.796875 
Q 28.5625 16.796875 30.953125 19.578125 
Q 33.34375 22.359375 33.34375 28.328125 
Q 33.34375 36.078125 29.984375 40.484375 
Q 27.484375 43.703125 23.578125 43.703125 
z
M 14.59375 0 
Q 12.3125 -2.484375 11.140625 -4.625 
Q 9.96875 -6.78125 9.96875 -8.59375 
Q 9.96875 -10.9375 12.796875 -12.703125 
Q 17.671875 -15.71875 26.90625 -15.71875 
Q 35.6875 -15.71875 39.859375 -12.609375 
Q 44.046875 -9.515625 44.046875 -6 
Q 44.046875 -3.46875 41.546875 -2.390625 
Q 39.015625 -1.3125 31.5 -1.125 
Q 20.515625 -0.828125 14.59375 0 
z
" id="TimesNewRomanPSMT-103"/>
     </defs>
     <use xlink:href="#TimesNewRomanPSMT-77"/>
     <use x="88.916016" xlink:href="#TimesNewRomanPSMT-111"/>
     <use x="138.916016" xlink:href="#TimesNewRomanPSMT-100"/>
     <use x="188.916016" xlink:href="#TimesNewRomanPSMT-101"/>
     <use x="233.300781" xlink:href="#TimesNewRomanPSMT-114"/>
     <use x="266.601562" xlink:href="#TimesNewRomanPSMT-110"/>
     <use x="316.601562" xlink:href="#TimesNewRomanPSMT-32"/>
     <use x="341.601562" xlink:href="#TimesNewRomanPSMT-68"/>
     <use x="413.818359" xlink:href="#TimesNewRomanPSMT-70"/>
     <use x="469.433594" xlink:href="#TimesNewRomanPSMT-83"/>
     <use x="525.048828" xlink:href="#TimesNewRomanPSMT-32"/>
     <use x="550.048828" xlink:href="#TimesNewRomanPSMT-100"/>
     <use x="600.048828" xlink:href="#TimesNewRomanPSMT-105"/>
     <use x="627.832031" xlink:href="#TimesNewRomanPSMT-115"/>
     <use x="666.748047" xlink:href="#TimesNewRomanPSMT-116"/>
     <use x="694.53125" xlink:href="#TimesNewRomanPSMT-114"/>
     <use x="727.832031" xlink:href="#TimesNewRomanPSMT-105"/>
     <use x="755.615234" xlink:href="#TimesNewRomanPSMT-98"/>
     <use x="805.615234" xlink:href="#TimesNewRomanPSMT-117"/>
     <use x="855.615234" xlink:href="#TimesNewRomanPSMT-116"/>
     <use x="883.398438" xlink:href="#TimesNewRomanPSMT-105"/>
     <use x="911.181641" xlink:href="#TimesNewRomanPSMT-111"/>
     <use x="961.181641" xlink:href="#TimesNewRomanPSMT-110"/>
     <use x="1011.181641" xlink:href="#TimesNewRomanPSMT-32"/>
     <use x="1036.181641" xlink:href="#TimesNewRomanPSMT-97"/>
     <use x="1080.566406" xlink:href="#TimesNewRomanPSMT-99"/>
     <use x="1124.951172" xlink:href="#TimesNewRomanPSMT-114"/>
     <use x="1158.251953" xlink:href="#TimesNewRomanPSMT-111"/>
     <use x="1208.251953" xlink:href="#TimesNewRomanPSMT-115"/>
     <use x="1247.167969" xlink:href="#TimesNewRomanPSMT-115"/>
     <use x="1286.083984" xlink:href="#TimesNewRomanPSMT-32"/>
     <use x="1311.083984" xlink:href="#TimesNewRomanPSMT-116"/>
     <use x="1338.867188" xlink:href="#TimesNewRomanPSMT-101"/>
     <use x="1383.251953" xlink:href="#TimesNewRomanPSMT-99"/>
     <use x="1427.636719" xlink:href="#TimesNewRomanPSMT-116"/>
     <use x="1455.419922" xlink:href="#TimesNewRomanPSMT-111"/>
     <use x="1505.419922" xlink:href="#TimesNewRomanPSMT-110"/>
     <use x="1555.419922" xlink:href="#TimesNewRomanPSMT-105"/>
     <use x="1583.203125" xlink:href="#TimesNewRomanPSMT-99"/>
     <use x="1627.587891" xlink:href="#TimesNewRomanPSMT-32"/>
     <use x="1652.587891" xlink:href="#TimesNewRomanPSMT-115"/>
     <use x="1691.503906" xlink:href="#TimesNewRomanPSMT-101"/>
     <use x="1735.888672" xlink:href="#TimesNewRomanPSMT-116"/>
     <use x="1763.671875" xlink:href="#TimesNewRomanPSMT-116"/>
     <use x="1791.455078" xlink:href="#TimesNewRomanPSMT-105"/>
     <use x="1819.238281" xlink:href="#TimesNewRomanPSMT-110"/>
     <use x="1869.238281" xlink:href="#TimesNewRomanPSMT-103"/>
     <use x="1919.238281" xlink:href="#TimesNewRomanPSMT-115"/>
    </g>
   </g>
  </g>
 </g>
 <defs>
  <clipPath id="p32804eb2c4">
   <rect height="260.928" width="357.12" x="42.301563" y="21.5325"/>
  </clipPath>
 </defs>
</svg>
