<?xml version="1.0" encoding="UTF-8" standalone="no"?>
<svg
   width="202.469119pt"
   height="147.610988pt"
   viewBox="0 0 202.469119 147.610988"
   version="1.1"
   id="svg22"
   sodipodi:docname="rio_fragua_chorroso_system_scale.svg"
   inkscape:version="1.4.2 (f4327f4, 2025-05-13)"
   xmlns:inkscape="http://www.inkscape.org/namespaces/inkscape"
   xmlns:sodipodi="http://sodipodi.sourceforge.net/DTD/sodipodi-0.dtd"
   xmlns:xlink="http://www.w3.org/1999/xlink"
   xmlns="http://www.w3.org/2000/svg"
   xmlns:svg="http://www.w3.org/2000/svg"
   xmlns:rdf="http://www.w3.org/1999/02/22-rdf-syntax-ns#"
   xmlns:cc="http://creativecommons.org/ns#"
   xmlns:dc="http://purl.org/dc/elements/1.1/">
  <sodipodi:namedview
     id="namedview22"
     pagecolor="#ffffff"
     bordercolor="#000000"
     borderopacity="0.25"
     inkscape:showpageshadow="2"
     inkscape:pageopacity="0.0"
     inkscape:pagecheckerboard="0"
     inkscape:deskcolor="#d1d1d1"
     inkscape:document-units="pt"
     inkscape:zoom="2.8921675"
     inkscape:cx="240.47708"
     inkscape:cy="123.95548"
     inkscape:window-width="1920"
     inkscape:window-height="1001"
     inkscape:window-x="-9"
     inkscape:window-y="-9"
     inkscape:window-maximized="1"
     inkscape:current-layer="svg22" />
  <metadata
     id="metadata1">
    <rdf:RDF>
      <cc:Work>
        <dc:type
           rdf:resource="http://purl.org/dc/dcmitype/StillImage" />
        <dc:date>2026-03-28T16:03:14.697361</dc:date>
        <dc:format>image/svg+xml</dc:format>
        <dc:creator>
          <cc:Agent>
            <dc:title>Matplotlib v3.7.0, https://matplotlib.org/</dc:title>
          </cc:Agent>
        </dc:creator>
      </cc:Work>
    </rdf:RDF>
  </metadata>
  <defs
     id="defs1">
    <style
       type="text/css"
       id="style1">*{stroke-linejoin: round; stroke-linecap: butt}</style>
    <path
       id="NimbusRomNo9L-Regu-57"
       d="M 5965,4224 H 4698 v -122 c 326,-32 441,-102 441,-274 0,-134 -38,-299 -102,-478 L 4237,1191 3392,3363 c -13,32 -70,172 -77,191 -57,134 -96,255 -96,325 0,153 147,216 493,223 v 122 H 2003 v -122 c 365,-7 429,-64 647,-573 l 211,-522 -685,-1797 -922,2395 c -44,115 -70,223 -70,293 0,140 90,185 416,204 v 122 H 32 v -122 c 326,-32 422,-146 659,-745 L 1926,-64 h 96 L 3008,2631 4032,-64 h 96 c 544,1663 608,1841 1306,3714 121,331 192,388 531,452 z"
       transform="scale(0.015625)" />
    <path
       id="NimbusRomNo9L-Regu-43"
       d="m 3968,2905 -58,1447 h -134 c -38,-135 -141,-212 -269,-212 -57,0 -153,19 -249,58 -314,102 -634,154 -935,154 C 1798,4352 1267,4153 870,3801 422,3405 179,2809 179,2105 179,1510 371,960 698,595 1082,179 1670,-64 2304,-64 c 723,0 1357,294 1747,812 L 3936,864 C 3462,409 3040,217 2509,217 c -403,0 -762,128 -1037,371 -352,314 -550,890 -550,1600 0,1159 595,1907 1523,1907 365,0 697,-134 953,-390 205,-204 301,-384 423,-800 z"
       transform="scale(0.015625)" />
    <path
       id="NimbusRomNo9L-Regu-68"
       d="m 1005,2195 c 269,294 461,403 710,403 320,0 480,-230 480,-678 V 652 C 2195,217 2131,134 1760,96 V 0 h 1357 v 96 c -346,64 -384,115 -384,556 v 1274 c 0,672 -269,1018 -787,1018 -378,0 -647,-154 -941,-538 v 1946 l -32,19 C 755,4294 595,4243 237,4140 L 64,4089 v -102 c 26,6 45,6 77,6 275,0 326,-51 326,-326 V 652 C 467,204 429,147 58,96 V 0 h 1382 v 96 c -371,38 -435,115 -435,556 z"
       transform="scale(0.015625)" />
    <path
       id="NimbusRomNo9L-Regu-55"
       d="m 3910,3291 c 0,646 77,747 602,811 v 122 H 3027 v -122 c 499,-38 602,-178 602,-811 V 1580 c 0,-431 -45,-672 -147,-862 -173,-304 -583,-501 -1063,-501 -454,0 -768,152 -941,450 -115,203 -160,437 -160,837 v 2027 c 0,457 71,526 583,571 v 122 H 90 v -122 c 505,-38 576,-108 576,-571 V 1554 C 666,458 1184,-64 2272,-64 c 698,0 1178,224 1427,655 154,266 211,558 211,1046 z"
       transform="scale(0.015625)" />
    <path
       id="NimbusRomNo9L-Regu-76"
       d="m 3053,2880 h -890 v -97 c 205,-19 301,-82 301,-203 0,-63 -13,-126 -38,-190 L 1792,748 1139,2371 c -38,89 -57,178 -57,235 0,114 70,158 294,177 v 97 H 122 v -97 c 243,-12 288,-76 582,-729 L 1472,235 c 13,-38 32,-83 51,-133 39,-115 77,-166 115,-166 39,0 84,83 180,318 l 819,2035 c 185,431 224,475 416,494 z"
       transform="scale(0.015625)" />
    <path
       id="NimbusRomNo9L-Regu-67"
       d="m 3008,2438 v 250 h -493 c -128,0 -224,46 -352,108 l -141,51 c -172,64 -345,97 -512,97 C 915,2944 442,2438 442,1877 442,1489 614,1255 1037,1049 915,934 800,826 762,794 550,610 467,483 467,356 467,223 544,147 806,19 352,-316 179,-529 179,-767 c 0,-341 499,-622 1107,-622 480,0 980,166 1312,435 244,200 352,406 352,651 0,399 -300,666 -774,685 l -826,38 c -339,12 -499,70 -499,171 0,127 211,350 384,401 58,-7 103,-13 122,-13 121,-13 205,-19 243,-19 237,0 493,96 691,264 211,173 307,388 307,696 0,179 -32,321 -121,518 z M 941,0 c 211,-46 723,-84 1037,-84 582,0 793,-84 793,-316 0,-373 -486,-624 -1209,-624 -564,0 -935,186 -935,470 0,148 45,232 314,554 z m 32,2130 c 0,365 179,634 473,634 199,0 365,-153 468,-345 115,-215 192,-499 192,-739 0,-345 -186,-560 -480,-560 -384,0 -653,400 -653,991 z"
       transform="scale(0.015625)" />
    <path
       id="NimbusRomNo9L-Regu-42"
       d="m 109,4224 v -122 c 537,-32 614,-102 614,-574 V 695 C 723,223 640,140 109,121 V 0 h 2137 c 500,0 954,134 1191,351 230,204 358,491 358,797 0,281 -115,536 -313,721 -192,172 -365,249 -781,351 333,83 467,147 621,280 160,141 256,377 256,638 0,715 -570,1086 -1677,1086 z M 1376,2080 c 621,0 915,-32 1146,-128 364,-153 537,-408 537,-810 0,-344 -134,-593 -390,-740 -205,-115 -467,-166 -890,-166 -313,0 -403,58 -403,262 z m 0,255 v 1460 c 0,134 45,192 141,192 h 281 c 736,0 1127,-307 1127,-874 0,-498 -339,-778 -941,-778 z"
       transform="scale(0.015625)" />
    <path
       id="NimbusRomNo9L-Regu-56"
       d="M 4461,4224 H 3149 v -122 c 352,-19 467,-89 467,-267 0,-102 -45,-274 -122,-465 L 2554,1032 1587,3185 c -211,465 -262,611 -262,707 0,121 89,185 294,197 26,0 96,6 186,13 v 122 H 102 v -122 c 314,-13 404,-102 679,-669 L 2355,-64 h 96 l 1421,3574 c 211,503 282,573 589,592 z"
       transform="scale(0.015625)" />
  </defs>
  <g
     id="matplotlib.axis_1" />
  <g
     id="g32">
    <path
       d="M 0,147.61099 H 202.46912 V 0 H 0 Z"
       style="fill:#ffffff"
       id="path1" />
    <g
       id="g31"
       transform="translate(1.4440736,-98.80133)">
      <g
         id="patch_64"
         style="stroke-linecap:butt;stroke-linejoin:round"
         transform="translate(-6.6070866,97.968056)">
        <path
           d="m 130.63083,16.4 h 16 v -5.6 h -16 z"
           style="fill:#4477aa;stroke-linecap:butt;stroke-linejoin:round"
           id="path157" />
      </g>
      <g
         id="text_29"
         style="stroke-linecap:butt;stroke-linejoin:round"
         transform="translate(-11.107087,97.968056)">
        <!-- Wetted Channel -->
        <g
           transform="matrix(0.08,0,0,-0.08,153.03083,16.4)"
           id="g169"
           style="stroke-linecap:butt;stroke-linejoin:round">
          <defs
             id="defs157">
            <path
               id="path22"
               d="M 5965,4224 H 4698 v -122 c 326,-32 441,-102 441,-274 0,-134 -38,-299 -102,-478 L 4237,1191 3392,3363 c -13,32 -70,172 -77,191 -57,134 -96,255 -96,325 0,153 147,216 493,223 v 122 H 2003 v -122 c 365,-7 429,-64 647,-573 l 211,-522 -685,-1797 -922,2395 c -44,115 -70,223 -70,293 0,140 90,185 416,204 v 122 H 32 v -122 c 326,-32 422,-146 659,-745 L 1926,-64 h 96 L 3008,2631 4032,-64 h 96 c 544,1663 608,1841 1306,3714 121,331 192,388 531,452 z"
               transform="scale(0.015625)" />
            <path
               id="path23"
               d="m 3968,2905 -58,1447 h -134 c -38,-135 -141,-212 -269,-212 -57,0 -153,19 -249,58 -314,102 -634,154 -935,154 C 1798,4352 1267,4153 870,3801 422,3405 179,2809 179,2105 179,1510 371,960 698,595 1082,179 1670,-64 2304,-64 c 723,0 1357,294 1747,812 L 3936,864 C 3462,409 3040,217 2509,217 c -403,0 -762,128 -1037,371 -352,314 -550,890 -550,1600 0,1159 595,1907 1523,1907 365,0 697,-134 953,-390 205,-204 301,-384 423,-800 z"
               transform="scale(0.015625)" />
            <path
               id="path24"
               d="m 1005,2195 c 269,294 461,403 710,403 320,0 480,-230 480,-678 V 652 C 2195,217 2131,134 1760,96 V 0 h 1357 v 96 c -346,64 -384,115 -384,556 v 1274 c 0,672 -269,1018 -787,1018 -378,0 -647,-154 -941,-538 v 1946 l -32,19 C 755,4294 595,4243 237,4140 L 64,4089 v -102 c 26,6 45,6 77,6 275,0 326,-51 326,-326 V 652 C 467,204 429,147 58,96 V 0 h 1382 v 96 c -371,38 -435,115 -435,556 z"
               transform="scale(0.015625)" />
          </defs>
          <use
             xlink:href="#NimbusRomNo9L-Regu-57"
             transform="scale(0.996264)"
             id="use157"
             style="stroke-linecap:butt;stroke-linejoin:round" />
          <use
             xlink:href="#NimbusRomNo9L-Regu-65"
             transform="matrix(0.996264,0,0,0.996264,86.077326,0)"
             id="use158"
             style="stroke-linecap:butt;stroke-linejoin:round" />
          <path
             id="use159"
             d="m 155.71562,44.83188 h -10.05604 v 11.550436 c 0,0.996264 -0.10896,1.29203 -0.7005,1.29203 -0.70049,-0.887298 -1.29203,-1.790162 -1.99252,-2.786426 -3.78269,-5.479452 -8.07908,-10.258406 -9.66688,-10.663138 -1.08966,-0.700498 -1.69676,-1.400997 -1.69676,-1.899129 0,-0.295766 0.10897,-0.498132 0.40473,-0.684931 h 5.27709 V 11.643836 c 0,-8.3592781 2.98879,-12.6401 8.87297,-12.6401 4.87236,0 8.65505,2.3816936 11.95517,7.5653797 l -1.30759,1.0896638 c -2.08593,-2.49066 -3.78269,-3.486924 -5.97759,-3.486924 -3.67372,0 -5.16812,2.6930261 -5.16812,8.9663765 v 28.50249 h 10.05604 z"
             style="stroke-width:0.0155666;stroke-linecap:butt;stroke-linejoin:round" />
          <path
             id="use160"
             d="m 183.41079,44.83188 h -10.05604 v 11.550436 c 0,0.996264 -0.10896,1.29203 -0.7005,1.29203 -0.70049,-0.887298 -1.29203,-1.790162 -1.99252,-2.786426 -3.78269,-5.479452 -8.07908,-10.258406 -9.66688,-10.663138 -1.08966,-0.700498 -1.69676,-1.400997 -1.69676,-1.899129 0,-0.295766 0.10897,-0.498132 0.40473,-0.684931 h 5.27709 V 11.643836 c 0,-8.3592781 2.98879,-12.6401 8.87297,-12.6401 4.87236,0 8.65505,2.3816936 11.95517,7.5653797 l -1.30759,1.0896638 c -2.08593,-2.49066 -3.78269,-3.486924 -5.97759,-3.486924 -3.67372,0 -5.16812,2.6930261 -5.16812,8.9663765 v 28.50249 h 10.05604 z"
             style="stroke-width:0.0155666;stroke-linecap:butt;stroke-linejoin:round" />
          <use
             xlink:href="#NimbusRomNo9L-Regu-65"
             transform="matrix(0.996264,0,0,0.996264,185.70123,0)"
             id="use161"
             style="stroke-linecap:butt;stroke-linejoin:round" />
          <path
             id="use162"
             d="m 264.21251,-0.996264 14.63263,5.1681195 v 1.6033624 c -1.79017,-0.1089664 -1.99253,-0.1089664 -2.2883,-0.1089664 -3.58032,0 -4.37422,1.1052304 -4.37422,5.6818185 v 56.491282 l -0.49813,0.202366 c -4.79452,-1.696762 -8.28145,-2.693026 -14.6482,-4.389788 v -1.587796 c 0.7939,0.0934 1.38543,0.0934 2.1949,0.0934 3.67372,0 4.57659,-0.996264 4.57659,-5.07472 V 41.531756 c -3.78269,3.191158 -6.47572,4.296388 -10.46078,4.296388 -11.45703,0 -20.71917,-11.270237 -20.71917,-25.404732 0,-12.7646325 7.47198,-21.419676 18.43088,-21.419676 5.57285,0 9.35554,1.992528 12.74907,6.6625155 v -6.36674962 z m -0.40473,11.145704 c 0,-0.684932 -0.7005,-1.8835621 -1.69677,-2.9887925 -1.79016,-1.992528 -4.28082,-2.988792 -7.17621,-2.988792 -8.26588,0 -13.74533,7.9701125 -13.74533,20.2366125 0,11.25467 4.88792,18.617684 12.4533,18.617684 5.27709,0 10.16501,-4.669988 10.16501,-9.96264 z"
             style="stroke-width:0.0155666;stroke-linecap:butt;stroke-linejoin:round" />
          <use
             xlink:href="#NimbusRomNo9L-Regu-43"
             transform="matrix(0.996264,0,0,0.996264,304.6546,0)"
             id="use163"
             style="stroke-linecap:butt;stroke-linejoin:round" />
          <use
             xlink:href="#NimbusRomNo9L-Regu-68"
             transform="matrix(0.996264,0,0,0.996264,371.10463,0)"
             id="use164"
             style="stroke-linecap:butt;stroke-linejoin:round" />
          <use
             xlink:href="#NimbusRomNo9L-Regu-61"
             transform="matrix(0.996264,0,0,0.996264,420.91784,0)"
             id="use165"
             style="stroke-linecap:butt;stroke-linejoin:round" />
          <path
             id="use166"
             d="m 466.7392,39.648194 c 0.60709,0.295766 1.60336,0.389165 2.69302,0.389165 2.78643,0 3.68929,-1.494396 3.68929,-6.366749 V 8.966376 c 0,-5.6818181 -1.08966,-7.0828144 -6.17995,-7.47198 V 0 h 21.12391 v 1.494396 c -5.07472,0.3891656 -6.56911,1.5877958 -6.56911,5.1681195 V 34.666874 c 4.77895,4.483188 6.97384,5.666251 10.2584,5.666251 4.87236,0 7.26962,-3.082191 7.26962,-9.651307 V 9.8536736 c 0,-6.2733498 -1.29203,-7.970112 -6.27335,-8.3592776 V 0 h 20.71917 v 1.494396 c -4.88792,0.498132 -6.07098,1.6811955 -6.07098,6.5691158 V 30.884184 c 0,9.355542 -4.38979,14.94396 -11.76837,14.94396 -4.57659,0 -7.65878,-1.696762 -14.44583,-8.079078 v 7.876712 l -0.68493,0.202366 c -4.88792,-1.805729 -8.28144,-2.895392 -13.76089,-4.498755 z"
             style="stroke-width:0.0155666;stroke-linecap:butt;stroke-linejoin:round" />
          <path
             id="use167"
             d="m 516.5524,39.648194 c 0.60709,0.295766 1.60336,0.389165 2.69302,0.389165 2.78643,0 3.68929,-1.494396 3.68929,-6.366749 V 8.966376 c 0,-5.6818181 -1.08966,-7.0828144 -6.17995,-7.47198 V 0 h 21.12391 v 1.494396 c -5.07472,0.3891656 -6.56911,1.5877958 -6.56911,5.1681195 V 34.666874 c 4.77895,4.483188 6.97384,5.666251 10.2584,5.666251 4.87236,0 7.26962,-3.082191 7.26962,-9.651307 V 9.8536736 c 0,-6.2733498 -1.29203,-7.970112 -6.27335,-8.3592776 V 0 h 20.71917 v 1.494396 c -4.88792,0.498132 -6.07098,1.6811955 -6.07098,6.5691158 V 30.884184 c 0,9.355542 -4.38979,14.94396 -11.76837,14.94396 -4.57659,0 -7.65878,-1.696762 -14.44583,-8.079078 v 7.876712 l -0.68493,0.202366 c -4.88792,-1.805729 -8.28144,-2.895392 -13.76089,-4.498755 z"
             style="stroke-width:0.0155666;stroke-linecap:butt;stroke-linejoin:round" />
          <use
             xlink:href="#NimbusRomNo9L-Regu-65"
             transform="matrix(0.996264,0,0,0.996264,564.7778,0)"
             id="use168"
             style="stroke-linecap:butt;stroke-linejoin:round" />
          <path
             id="use169"
             d="m 610.9105,62.064134 h 0.59153 c 1.08966,0.0934 2.28829,0.202366 3.08219,0.202366 3.19116,0 4.18742,-1.400996 4.18742,-6.08655 V 8.6550435 c 0,-5.3704856 -1.38543,-6.6625155 -7.67434,-7.1606475 V 0 h 23.52117 v 1.494396 c -6.27335,0.3891656 -7.47198,1.3854296 -7.47198,6.8648816 V 67.839352 l -0.40473,0.202366 c -5.18369,-1.696762 -8.96638,-2.693026 -15.83126,-4.389788 z"
             style="stroke-width:0.0155666;stroke-linecap:butt;stroke-linejoin:round" />
        </g>
      </g>
      <g
         id="patch_65"
         style="stroke-linecap:butt;stroke-linejoin:round"
         transform="translate(-6.6070866,97.968056)">
        <path
           d="m 130.63083,27.725463 h 16 v -5.6 h -16 z"
           style="fill:#ccbb44;stroke-linecap:butt;stroke-linejoin:round"
           id="path169" />
      </g>
      <g
         id="text_30"
         style="stroke-linecap:butt;stroke-linejoin:round"
         transform="translate(-11.107087,97.968056)">
        <!-- Unvegetated Bar -->
        <g
           transform="matrix(0.08,0,0,-0.08,153.03083,27.725463)"
           id="g183"
           style="stroke-linecap:butt;stroke-linejoin:round">
          <defs
             id="defs169">
            <path
               id="path25"
               d="m 3910,3291 c 0,646 77,747 602,811 v 122 H 3027 v -122 c 499,-38 602,-178 602,-811 V 1580 c 0,-431 -45,-672 -147,-862 -173,-304 -583,-501 -1063,-501 -454,0 -768,152 -941,450 -115,203 -160,437 -160,837 v 2027 c 0,457 71,526 583,571 v 122 H 90 v -122 c 505,-38 576,-108 576,-571 V 1554 C 666,458 1184,-64 2272,-64 c 698,0 1178,224 1427,655 154,266 211,558 211,1046 z"
               transform="scale(0.015625)" />
            <path
               id="path26"
               d="m 3053,2880 h -890 v -97 c 205,-19 301,-82 301,-203 0,-63 -13,-126 -38,-190 L 1792,748 1139,2371 c -38,89 -57,178 -57,235 0,114 70,158 294,177 v 97 H 122 v -97 c 243,-12 288,-76 582,-729 L 1472,235 c 13,-38 32,-83 51,-133 39,-115 77,-166 115,-166 39,0 84,83 180,318 l 819,2035 c 185,431 224,475 416,494 z"
               transform="scale(0.015625)" />
            <path
               id="path27"
               d="m 3008,2438 v 250 h -493 c -128,0 -224,46 -352,108 l -141,51 c -172,64 -345,97 -512,97 C 915,2944 442,2438 442,1877 442,1489 614,1255 1037,1049 915,934 800,826 762,794 550,610 467,483 467,356 467,223 544,147 806,19 352,-316 179,-529 179,-767 c 0,-341 499,-622 1107,-622 480,0 980,166 1312,435 244,200 352,406 352,651 0,399 -300,666 -774,685 l -826,38 c -339,12 -499,70 -499,171 0,127 211,350 384,401 58,-7 103,-13 122,-13 121,-13 205,-19 243,-19 237,0 493,96 691,264 211,173 307,388 307,696 0,179 -32,321 -121,518 z M 941,0 c 211,-46 723,-84 1037,-84 582,0 793,-84 793,-316 0,-373 -486,-624 -1209,-624 -564,0 -935,186 -935,470 0,148 45,232 314,554 z m 32,2130 c 0,365 179,634 473,634 199,0 365,-153 468,-345 115,-215 192,-499 192,-739 0,-345 -186,-560 -480,-560 -384,0 -653,400 -653,991 z"
               transform="scale(0.015625)" />
            <path
               id="path28"
               d="m 109,4224 v -122 c 537,-32 614,-102 614,-574 V 695 C 723,223 640,140 109,121 V 0 h 2137 c 500,0 954,134 1191,351 230,204 358,491 358,797 0,281 -115,536 -313,721 -192,172 -365,249 -781,351 333,83 467,147 621,280 160,141 256,377 256,638 0,715 -570,1086 -1677,1086 z M 1376,2080 c 621,0 915,-32 1146,-128 364,-153 537,-408 537,-810 0,-344 -134,-593 -390,-740 -205,-115 -467,-166 -890,-166 -313,0 -403,58 -403,262 z m 0,255 v 1460 c 0,134 45,192 141,192 h 281 c 736,0 1127,-307 1127,-874 0,-498 -339,-778 -941,-778 z"
               transform="scale(0.015625)" />
          </defs>
          <use
             xlink:href="#NimbusRomNo9L-Regu-55"
             transform="scale(0.996264)"
             id="use170"
             style="stroke-linecap:butt;stroke-linejoin:round" />
          <path
             id="use171"
             d="m 73.517781,39.648194 c 0.607098,0.295766 1.603362,0.389165 2.693026,0.389165 2.786426,0 3.68929,-1.494396 3.68929,-6.366749 V 8.966376 c 0,-5.6818181 -1.089664,-7.0828144 -6.17995,-7.47198 V 0 h 21.12391 v 1.494396 c -5.07472,0.3891656 -6.569116,1.5877958 -6.569116,5.1681195 V 34.666874 c 4.778954,4.483188 6.973848,5.666251 10.258406,5.666251 4.872353,0 7.269613,-3.082191 7.269613,-9.651307 V 9.8536736 c 0,-6.2733498 -1.29203,-7.970112 -6.273349,-8.3592776 V 0 h 20.719179 v 1.494396 c -4.88792,0.498132 -6.07098,1.6811955 -6.07098,6.5691158 V 30.884184 c 0,9.355542 -4.38979,14.94396 -11.76837,14.94396 -4.576591,0 -7.658783,-1.696762 -14.445831,-8.079078 v 7.876712 l -0.684932,0.202366 c -4.88792,-1.805729 -8.281444,-2.895392 -13.760896,-4.498755 z"
             style="stroke-width:0.0155666;stroke-linecap:butt;stroke-linejoin:round" />
          <use
             xlink:href="#NimbusRomNo9L-Regu-76"
             transform="matrix(0.996264,0,0,0.996264,117.75907,0)"
             id="use172"
             style="stroke-linecap:butt;stroke-linejoin:round" />
          <use
             xlink:href="#NimbusRomNo9L-Regu-65"
             transform="matrix(0.996264,0,0,0.996264,166.07888,0)"
             id="use173"
             style="stroke-linecap:butt;stroke-linejoin:round" />
          <use
             xlink:href="#NimbusRomNo9L-Regu-67"
             transform="matrix(0.996264,0,0,0.996264,208.81906,0)"
             id="use174"
             style="stroke-linecap:butt;stroke-linejoin:round" />
          <use
             xlink:href="#NimbusRomNo9L-Regu-65"
             transform="matrix(0.996264,0,0,0.996264,258.63226,0)"
             id="use175"
             style="stroke-linecap:butt;stroke-linejoin:round" />
          <path
             id="use176"
             d="m 328.27055,44.83188 h -10.05604 v 11.550436 c 0,0.996264 -0.10896,1.29203 -0.7005,1.29203 -0.70049,-0.887298 -1.29203,-1.790162 -1.99252,-2.786426 -3.78269,-5.479452 -8.07908,-10.258406 -9.66688,-10.663138 -1.08966,-0.700498 -1.69676,-1.400997 -1.69676,-1.899129 0,-0.295766 0.10897,-0.498132 0.40473,-0.684931 h 5.27709 V 11.643836 c 0,-8.3592781 2.98879,-12.6401 8.87297,-12.6401 4.87236,0 8.65505,2.3816936 11.95517,7.5653797 l -1.30759,1.0896638 c -2.08593,-2.49066 -3.78269,-3.486924 -5.97759,-3.486924 -3.67372,0 -5.16812,2.6930261 -5.16812,8.9663765 v 28.50249 h 10.05604 z"
             style="stroke-width:0.0155666;stroke-linecap:butt;stroke-linejoin:round" />
          <use
             xlink:href="#NimbusRomNo9L-Regu-61"
             transform="matrix(0.996264,0,0,0.996264,330.56099,0)"
             id="use177"
             style="stroke-linecap:butt;stroke-linejoin:round" />
          <path
             id="use178"
             d="m 400.19929,44.83188 h -10.05604 v 11.550436 c 0,0.996264 -0.10896,1.29203 -0.7005,1.29203 -0.70049,-0.887298 -1.29203,-1.790162 -1.99252,-2.786426 -3.78269,-5.479452 -8.07908,-10.258406 -9.66688,-10.663138 -1.08966,-0.700498 -1.69676,-1.400997 -1.69676,-1.899129 0,-0.295766 0.10897,-0.498132 0.40473,-0.684931 h 5.27709 V 11.643836 c 0,-8.3592781 2.98879,-12.6401 8.87297,-12.6401 4.87236,0 8.65505,2.3816936 11.95517,7.5653797 l -1.30759,1.0896638 c -2.08593,-2.49066 -3.78269,-3.486924 -5.97759,-3.486924 -3.67372,0 -5.16812,2.6930261 -5.16812,8.9663765 v 28.50249 h 10.05604 z"
             style="stroke-width:0.0155666;stroke-linecap:butt;stroke-linejoin:round" />
          <use
             xlink:href="#NimbusRomNo9L-Regu-65"
             transform="matrix(0.996264,0,0,0.996264,402.48973,0)"
             id="use179"
             style="stroke-linecap:butt;stroke-linejoin:round" />
          <path
             id="use180"
             d="m 481.00101,-0.996264 14.63263,5.1681195 v 1.6033624 c -1.79017,-0.1089664 -1.99253,-0.1089664 -2.2883,-0.1089664 -3.58032,0 -4.37422,1.1052304 -4.37422,5.6818185 v 56.491282 l -0.49813,0.202366 c -4.79452,-1.696762 -8.28145,-2.693026 -14.6482,-4.389788 v -1.587796 c 0.7939,0.0934 1.38543,0.0934 2.1949,0.0934 3.67372,0 4.57659,-0.996264 4.57659,-5.07472 V 41.531756 c -3.78269,3.191158 -6.47572,4.296388 -10.46078,4.296388 -11.45703,0 -20.71917,-11.270237 -20.71917,-25.404732 0,-12.7646325 7.47198,-21.419676 18.43088,-21.419676 5.57285,0 9.35554,1.992528 12.74907,6.6625155 v -6.36674962 z m -0.40473,11.145704 c 0,-0.684932 -0.7005,-1.8835621 -1.69677,-2.9887925 -1.79016,-1.992528 -4.28082,-2.988792 -7.17621,-2.988792 -8.26588,0 -13.74533,7.9701125 -13.74533,20.2366125 0,11.25467 4.88792,18.617684 12.4533,18.617684 5.27709,0 10.16501,-4.669988 10.16501,-9.96264 z"
             style="stroke-width:0.0155666;stroke-linecap:butt;stroke-linejoin:round" />
          <use
             xlink:href="#NimbusRomNo9L-Regu-42"
             transform="matrix(0.996264,0,0,0.996264,521.4431,0)"
             id="use181"
             style="stroke-linecap:butt;stroke-linejoin:round" />
          <use
             xlink:href="#NimbusRomNo9L-Regu-61"
             transform="matrix(0.996264,0,0,0.996264,587.89313,0)"
             id="use182"
             style="stroke-linecap:butt;stroke-linejoin:round" />
          <use
             xlink:href="#NimbusRomNo9L-Regu-72"
             transform="matrix(0.996264,0,0,0.996264,632.1267,0)"
             id="use183"
             style="stroke-linecap:butt;stroke-linejoin:round" />
        </g>
      </g>
      <g
         id="patch_66"
         style="stroke-linecap:butt;stroke-linejoin:round"
         transform="translate(-6.6070866,97.968056)">
        <path
           d="m 130.63083,39.050926 h 16 v -5.6 h -16 z"
           style="fill:#009988;stroke-linecap:butt;stroke-linejoin:round"
           id="path183" />
      </g>
      <g
         id="text_31"
         style="stroke-linecap:butt;stroke-linejoin:round"
         transform="translate(-11.107087,97.968056)">
        <!-- Vegetated Bar -->
        <g
           transform="matrix(0.08,0,0,-0.08,153.03083,39.050926)"
           id="g195"
           style="stroke-linecap:butt;stroke-linejoin:round">
          <defs
             id="defs183">
            <path
               id="path29"
               d="M 4461,4224 H 3149 v -122 c 352,-19 467,-89 467,-267 0,-102 -45,-274 -122,-465 L 2554,1032 1587,3185 c -211,465 -262,611 -262,707 0,121 89,185 294,197 26,0 96,6 186,13 v 122 H 102 v -122 c 314,-13 404,-102 679,-669 L 2355,-64 h 96 l 1421,3574 c 211,503 282,573 589,592 z"
               transform="scale(0.015625)" />
          </defs>
          <use
             xlink:href="#NimbusRomNo9L-Regu-56"
             transform="scale(0.996264)"
             id="use184"
             style="stroke-linecap:butt;stroke-linejoin:round" />
          <use
             xlink:href="#NimbusRomNo9L-Regu-65"
             transform="matrix(0.996264,0,0,0.996264,60.871539,0)"
             id="use185"
             style="stroke-linecap:butt;stroke-linejoin:round" />
          <use
             xlink:href="#NimbusRomNo9L-Regu-67"
             transform="matrix(0.996264,0,0,0.996264,103.61172,0)"
             id="use186"
             style="stroke-linecap:butt;stroke-linejoin:round" />
          <use
             xlink:href="#NimbusRomNo9L-Regu-65"
             transform="matrix(0.996264,0,0,0.996264,153.42492,0)"
             id="use187"
             style="stroke-linecap:butt;stroke-linejoin:round" />
          <path
             id="use188"
             d="m 223.06322,44.83188 h -10.05604 v 11.550436 c 0,0.996264 -0.10896,1.29203 -0.7005,1.29203 -0.70049,-0.887298 -1.29203,-1.790162 -1.99252,-2.786426 -3.78269,-5.479452 -8.07908,-10.258406 -9.66688,-10.663138 -1.08966,-0.700498 -1.69676,-1.400997 -1.69676,-1.899129 0,-0.295766 0.10897,-0.498132 0.40473,-0.684931 h 5.27709 V 11.643836 c 0,-8.3592781 2.98879,-12.6401 8.87297,-12.6401 4.87236,0 8.65505,2.3816936 11.95517,7.5653797 l -1.30759,1.0896638 c -2.08593,-2.49066 -3.78269,-3.486924 -5.97759,-3.486924 -3.67372,0 -5.16812,2.6930261 -5.16812,8.9663765 v 28.50249 h 10.05604 z"
             style="stroke-width:0.0155666;stroke-linecap:butt;stroke-linejoin:round" />
          <use
             xlink:href="#NimbusRomNo9L-Regu-61"
             transform="matrix(0.996264,0,0,0.996264,225.35365,0)"
             id="use189"
             style="stroke-linecap:butt;stroke-linejoin:round" />
          <path
             id="use190"
             d="m 294.99195,44.83188 h -10.05604 v 11.550436 c 0,0.996264 -0.10896,1.29203 -0.7005,1.29203 -0.70049,-0.887298 -1.29203,-1.790162 -1.99252,-2.786426 -3.78269,-5.479452 -8.07908,-10.258406 -9.66688,-10.663138 -1.08966,-0.700498 -1.69676,-1.400997 -1.69676,-1.899129 0,-0.295766 0.10897,-0.498132 0.40473,-0.684931 h 5.27709 V 11.643836 c 0,-8.3592781 2.98879,-12.6401 8.87297,-12.6401 4.87236,0 8.65505,2.3816936 11.95517,7.5653797 l -1.30759,1.0896638 c -2.08593,-2.49066 -3.78269,-3.486924 -5.97759,-3.486924 -3.67372,0 -5.16812,2.6930261 -5.16812,8.9663765 v 28.50249 h 10.05604 z"
             style="stroke-width:0.0155666;stroke-linecap:butt;stroke-linejoin:round" />
          <use
             xlink:href="#NimbusRomNo9L-Regu-65"
             transform="matrix(0.996264,0,0,0.996264,297.28239,0)"
             id="use191"
             style="stroke-linecap:butt;stroke-linejoin:round" />
          <path
             id="use192"
             d="m 375.79367,-0.996264 14.63263,5.1681195 v 1.6033624 c -1.79017,-0.1089664 -1.99253,-0.1089664 -2.2883,-0.1089664 -3.58032,0 -4.37422,1.1052304 -4.37422,5.6818185 v 56.491282 l -0.49813,0.202366 c -4.79452,-1.696762 -8.28145,-2.693026 -14.6482,-4.389788 v -1.587796 c 0.7939,0.0934 1.38543,0.0934 2.1949,0.0934 3.67372,0 4.57659,-0.996264 4.57659,-5.07472 V 41.531756 c -3.78269,3.191158 -6.47572,4.296388 -10.46078,4.296388 -11.45703,0 -20.71917,-11.270237 -20.71917,-25.404732 0,-12.7646325 7.47198,-21.419676 18.43088,-21.419676 5.57285,0 9.35554,1.992528 12.74907,6.6625155 v -6.36674962 z m -0.40473,11.145704 c 0,-0.684932 -0.7005,-1.8835621 -1.69677,-2.9887925 -1.79016,-1.992528 -4.28082,-2.988792 -7.17621,-2.988792 -8.26588,0 -13.74533,7.9701125 -13.74533,20.2366125 0,11.25467 4.88792,18.617684 12.4533,18.617684 5.27709,0 10.16501,-4.669988 10.16501,-9.96264 z"
             style="stroke-width:0.0155666;stroke-linecap:butt;stroke-linejoin:round" />
          <use
             xlink:href="#NimbusRomNo9L-Regu-42"
             transform="matrix(0.996264,0,0,0.996264,416.23576,0)"
             id="use193"
             style="stroke-linecap:butt;stroke-linejoin:round" />
          <use
             xlink:href="#NimbusRomNo9L-Regu-61"
             transform="matrix(0.996264,0,0,0.996264,482.68579,0)"
             id="use194"
             style="stroke-linecap:butt;stroke-linejoin:round" />
          <use
             xlink:href="#NimbusRomNo9L-Regu-72"
             transform="matrix(0.996264,0,0,0.996264,526.91936,0)"
             id="use195"
             style="stroke-linecap:butt;stroke-linejoin:round" />
        </g>
      </g>
    </g>
    <g
       id="g30"
       transform="matrix(0.93414068,0,0,0.93414068,-17.983253,12.433309)">
      <g
         id="patch_2">
        <path
           d="M 106.79937,9.9 C 95.112174,9.9 83.652325,13.152138 73.707268,19.291056 63.76221,25.429974 55.718856,34.216837 50.480827,44.664494 45.242798,55.112151 43.01388,66.814136 44.044479,78.4558 c 1.030599,11.641664 5.280619,22.77009 12.272596,32.13506 L 106.79937,72.900313 Z"
           style="fill:#4477aa"
           id="path2" />
      </g>
      <g
         id="patch_3">
        <path
           d="m 56.317075,110.59086 c 8.934824,11.9672 21.840316,20.37598 36.396958,23.71501 14.556637,3.33903 29.836757,1.39553 43.094047,-5.4812 L 106.79937,72.900313 Z"
           style="fill:#ccbb44"
           id="path3" />
      </g>
      <g
         id="patch_4">
        <path
           d="m 135.80808,128.82467 c 12.52438,-6.49656 22.51052,-17.01583 28.3475,-29.860888 5.83697,-12.845053 7.19307,-27.285934 3.84955,-40.993102 C 164.6616,44.263511 156.80845,32.069 145.71252,23.354312 134.61658,14.639624 120.90841,9.899995 106.79934,9.9 l 3e-5,63.000313 z"
           style="fill:#009988"
           id="path4" />
      </g>
      <g
         id="matplotlib.axis_2"
         transform="translate(30)">
        <g
           id="text_1">
          <!-- area -->
          <g
             transform="matrix(0,-0.08,-0.08,0,9.003656,79.535038)"
             id="g7">
            <defs
               id="defs4">
              <path
                 id="NimbusRomNo9L-Regu-61"
                 d="m 2829,422 c -109,-90 -186,-122 -282,-122 -147,0 -192,90 -192,372 v 1248 c 0,332 -32,518 -128,672 -141,230 -416,352 -793,352 -602,0 -1076,-314 -1076,-717 0,-147 128,-275 276,-275 153,0 288,128 288,268 0,26 -7,58 -13,103 -13,57 -19,109 -19,153 0,173 204,314 460,314 314,0 487,-186 487,-531 V 1868 C 851,1472 742,1420 467,1177 326,1049 237,832 237,620 237,217 518,-64 909,-64 c 281,0 544,134 934,467 32,-333 147,-467 410,-467 217,0 352,76 576,320 z M 1837,787 C 1837,588 1805,531 1670,454 1517,364 1338,307 1203,307 979,307 800,524 800,800 v 25 c 0,378 262,608 1037,890 z"
                 transform="scale(0.015625)" />
              <path
                 id="NimbusRomNo9L-Regu-72"
                 d="m 45,2496 c 89,19 147,25 224,25 160,0 217,-102 217,-384 V 537 C 486,217 442,172 32,96 V 0 h 1536 v 96 c -435,19 -544,115 -544,480 v 1440 c 0,204 275,524 448,524 38,0 96,-32 166,-96 103,-89 173,-128 256,-128 154,0 250,109 250,288 0,211 -134,340 -352,340 -269,0 -454,-148 -768,-602 v 589 l -32,13 C 653,2803 422,2720 45,2598 Z"
                 transform="scale(0.015625)" />
              <path
                 id="NimbusRomNo9L-Regu-65"
                 d="M 2611,1052 C 2304,564 2029,377 1619,377 1254,377 979,564 794,930 678,1174 634,1386 621,1779 h 1971 c -51,414 -115,598 -275,801 -192,229 -487,364 -819,364 -320,0 -621,-116 -864,-332 C 333,2351 160,1900 160,1374 160,486 621,-64 1357,-64 c 608,0 1088,377 1357,1071 z M 634,1984 c 70,494 288,729 678,729 390,0 544,-178 627,-729 z"
                 transform="scale(0.015625)" />
            </defs>
            <use
               xlink:href="#NimbusRomNo9L-Regu-61"
               transform="scale(0.996264)"
               id="use4" />
            <use
               xlink:href="#NimbusRomNo9L-Regu-72"
               transform="matrix(0.996264,0,0,0.996264,44.233569,0)"
               id="use5" />
            <use
               xlink:href="#NimbusRomNo9L-Regu-65"
               transform="matrix(0.996264,0,0,0.996264,77.408798,0)"
               id="use6" />
            <use
               xlink:href="#NimbusRomNo9L-Regu-61"
               transform="matrix(0.996264,0,0,0.996264,121.64237,0)"
               id="use7" />
          </g>
        </g>
      </g>
      <g
         id="text_3">
        <!-- 35.2% -->
        <g
           transform="matrix(0.08,0,0,-0.08,66.034395,57.797918)"
           id="g12">
          <defs
             id="defs8">
            <path
               id="NimbusRomNo9L-Regu-33"
               d="m 979,2137 c 378,0 525,-13 679,-70 396,-141 646,-506 646,-947 0,-538 -365,-954 -838,-954 -173,0 -301,45 -538,198 C 736,480 627,524 518,524 371,524 275,435 275,300 275,76 550,-64 998,-64 c 493,0 999,166 1300,428 300,263 467,634 467,1063 0,326 -103,627 -288,825 -128,141 -250,218 -531,340 441,300 601,537 601,883 0,518 -409,877 -998,877 -320,0 -602,-109 -832,-314 C 525,3865 429,3699 288,3315 l 96,-26 c 262,468 550,678 954,678 416,0 704,-281 704,-684 0,-231 -96,-461 -256,-621 -192,-192 -372,-288 -807,-442 z"
               transform="scale(0.015625)" />
            <path
               id="NimbusRomNo9L-Regu-35"
               d="m 1158,3718 h 1255 c 102,0 128,13 147,57 l 243,570 -57,45 c -96,-134 -160,-166 -295,-166 H 1114 L 416,2717 c -6,-12 -6,-19 -6,-31 0,-32 25,-51 76,-51 205,0 461,-44 724,-127 C 1946,2274 2285,1882 2285,1255 2285,647 1894,172 1395,172 1267,172 1158,217 966,356 762,502 614,565 480,565 294,565 205,489 205,331 205,89 506,-64 986,-64 c 537,0 998,172 1318,496 294,285 429,646 429,1127 0,456 -122,747 -442,1063 -281,279 -646,425 -1401,558 z"
               transform="scale(0.015625)" />
            <path
               id="NimbusRomNo9L-Regu-2e"
               d="M 800,646 C 608,646 448,480 448,281 448,96 608,-64 794,-64 c 198,0 364,160 364,345 0,199 -166,365 -358,365 z"
               transform="scale(0.015625)" />
            <path
               id="NimbusRomNo9L-Regu-32"
               d="m 3040,879 -83,33 C 2720,544 2637,486 2349,486 H 819 l 1075,1135 c 570,600 820,1090 820,1593 0,644 -519,1138 -1184,1138 -352,0 -685,-141 -922,-397 C 403,3736 307,3530 198,3072 l 135,-33 c 256,632 486,839 928,839 537,0 902,-368 902,-909 0,-503 -294,-1103 -832,-1677 L 192,76 V 0 h 2496 z"
               transform="scale(0.015625)" />
          </defs>
          <use
             xlink:href="#NimbusRomNo9L-Regu-33"
             transform="scale(0.996264)"
             id="use9" />
          <use
             xlink:href="#NimbusRomNo9L-Regu-35"
             transform="matrix(0.996264,0,0,0.996264,49.8132,0)"
             id="use10" />
          <use
             xlink:href="#NimbusRomNo9L-Regu-2e"
             transform="matrix(0.996264,0,0,0.996264,99.626401,0)"
             id="use11" />
          <use
             xlink:href="#NimbusRomNo9L-Regu-32"
             transform="matrix(0.996264,0,0,0.996264,124.533,0)"
             id="use12" />
        </g>
      </g>
      <g
         id="text_5">
        <!-- 22.4% -->
        <g
           transform="matrix(0.08,0,0,-0.08,91.374318,111.58275)"
           id="g17">
          <defs
             id="defs13">
            <path
               id="NimbusRomNo9L-Regu-34"
               d="M 3021,1497 H 2368 V 4352 H 2086 L 77,1497 V 1088 H 1875 V 0 h 493 v 1088 h 653 z m -1152,0 H 333 l 1536,2200 z"
               transform="scale(0.015625)" />
          </defs>
          <use
             xlink:href="#NimbusRomNo9L-Regu-32"
             transform="scale(0.996264)"
             id="use14" />
          <use
             xlink:href="#NimbusRomNo9L-Regu-32"
             transform="matrix(0.996264,0,0,0.996264,49.8132,0)"
             id="use15" />
          <use
             xlink:href="#NimbusRomNo9L-Regu-2e"
             transform="matrix(0.996264,0,0,0.996264,99.626401,0)"
             id="use16" />
          <use
             xlink:href="#NimbusRomNo9L-Regu-34"
             transform="matrix(0.996264,0,0,0.996264,124.533,0)"
             id="use17" />
        </g>
      </g>
      <g
         id="text_7">
        <!-- 42.4% -->
        <g
           transform="matrix(0.08,0,0,-0.08,136.54898,65.781629)"
           id="g22">
          <use
             xlink:href="#NimbusRomNo9L-Regu-34"
             transform="scale(0.996264)"
             id="use19" />
          <use
             xlink:href="#NimbusRomNo9L-Regu-32"
             transform="matrix(0.996264,0,0,0.996264,49.8132,0)"
             id="use20" />
          <use
             xlink:href="#NimbusRomNo9L-Regu-2e"
             transform="matrix(0.996264,0,0,0.996264,99.626401,0)"
             id="use21" />
          <use
             xlink:href="#NimbusRomNo9L-Regu-34"
             transform="matrix(0.996264,0,0,0.996264,124.533,0)"
             id="use22" />
        </g>
      </g>
    </g>
  </g>
</svg>
