<?xml version="1.0" encoding="utf-8" standalone="no"?>
<!DOCTYPE svg PUBLIC "-//W3C//DTD SVG 1.1//EN"
  "http://www.w3.org/Graphics/SVG/1.1/DTD/svg11.dtd">
<svg xmlns:xlink="http://www.w3.org/1999/xlink" width="219.924287pt" height="169.558238pt" viewBox="0 0 219.924287 169.558238" xmlns="http://www.w3.org/2000/svg" version="1.1">
 <metadata>
  <rdf:RDF xmlns:dc="http://purl.org/dc/elements/1.1/" xmlns:cc="http://creativecommons.org/ns#" xmlns:rdf="http://www.w3.org/1999/02/22-rdf-syntax-ns#">
   <cc:Work>
    <dc:type rdf:resource="http://purl.org/dc/dcmitype/StillImage"/>
    <dc:date>2026-03-28T15:30:44.843457</dc:date>
    <dc:format>image/svg+xml</dc:format>
    <dc:creator>
     <cc:Agent>
      <dc:title>Matplotlib v3.7.0, https://matplotlib.org/</dc:title>
     </cc:Agent>
    </dc:creator>
   </cc:Work>
  </rdf:RDF>
 </metadata>
 <defs>
  <style type="text/css">*{stroke-linejoin: round; stroke-linecap: butt}</style>
 </defs>
 <g id="figure_1">
  <g id="patch_1">
   <path d="M 0 169.558238 
L 219.924287 169.558238 
L 219.924287 0 
L 0 0 
z
" style="fill: #ffffff"/>
  </g>
  <g id="axes_1">
   <g id="patch_2">
    <path d="M 32.184287 142.2 
L 216.324287 142.2 
L 216.324287 3.6 
L 32.184287 3.6 
z
" style="fill: #ffffff"/>
   </g>
   <g id="matplotlib.axis_1">
    <g id="xtick_1">
     <g id="line2d_1">
      <defs>
       <path id="mbbe3d733e9" d="M 0 0 
L 0 2 
" style="stroke: #000000; stroke-width: 0.5"/>
      </defs>
      <g>
       <use xlink:href="#mbbe3d733e9" x="40.554287" y="142.2" style="stroke: #000000; stroke-width: 0.5"/>
      </g>
     </g>
     <g id="text_1">
      <!-- $\mathdefault{0}$ -->
      <g transform="translate(38.561759 153.103656) scale(0.08 -0.08)">
       <defs>
        <path id="NimbusRomNo9L-Regu-30" d="M 1626 4352 
C 1274 4352 1005 4243 768 4019 
C 397 3661 154 2924 154 2176 
C 154 1478 365 729 666 371 
C 902 89 1229 -64 1600 -64 
C 1926 -64 2202 44 2432 268 
C 2803 620 3046 1363 3046 2137 
C 3046 3449 2464 4352 1626 4352 
z
M 1606 4185 
C 2144 4185 2432 3462 2432 2124 
C 2432 787 2150 102 1600 102 
C 1050 102 768 787 768 2118 
C 768 3475 1056 4185 1606 4185 
z
" transform="scale(0.015625)"/>
       </defs>
       <use xlink:href="#NimbusRomNo9L-Regu-30" transform="scale(0.996264)"/>
      </g>
     </g>
    </g>
    <g id="xtick_2">
     <g id="line2d_2">
      <g>
       <use xlink:href="#mbbe3d733e9" x="71.33199" y="142.2" style="stroke: #000000; stroke-width: 0.5"/>
      </g>
     </g>
     <g id="text_2">
      <!-- $\mathdefault{25}$ -->
      <g transform="translate(67.346934 153.103656) scale(0.08 -0.08)">
       <defs>
        <path id="NimbusRomNo9L-Regu-32" d="M 3040 879 
L 2957 912 
C 2720 544 2637 486 2349 486 
L 819 486 
L 1894 1621 
C 2464 2221 2714 2711 2714 3214 
C 2714 3858 2195 4352 1530 4352 
C 1178 4352 845 4211 608 3955 
C 403 3736 307 3530 198 3072 
L 333 3039 
C 589 3671 819 3878 1261 3878 
C 1798 3878 2163 3510 2163 2969 
C 2163 2466 1869 1866 1331 1292 
L 192 76 
L 192 0 
L 2688 0 
L 3040 879 
z
" transform="scale(0.015625)"/>
        <path id="NimbusRomNo9L-Regu-35" d="M 1158 3718 
L 2413 3718 
C 2515 3718 2541 3731 2560 3775 
L 2803 4345 
L 2746 4390 
C 2650 4256 2586 4224 2451 4224 
L 1114 4224 
L 416 2717 
C 410 2705 410 2698 410 2686 
C 410 2654 435 2635 486 2635 
C 691 2635 947 2591 1210 2508 
C 1946 2274 2285 1882 2285 1255 
C 2285 647 1894 172 1395 172 
C 1267 172 1158 217 966 356 
C 762 502 614 565 480 565 
C 294 565 205 489 205 331 
C 205 89 506 -64 986 -64 
C 1523 -64 1984 108 2304 432 
C 2598 717 2733 1078 2733 1559 
C 2733 2015 2611 2306 2291 2622 
C 2010 2901 1645 3047 890 3180 
L 1158 3718 
z
" transform="scale(0.015625)"/>
       </defs>
       <use xlink:href="#NimbusRomNo9L-Regu-32" transform="scale(0.996264)"/>
       <use xlink:href="#NimbusRomNo9L-Regu-35" transform="translate(49.8132 0) scale(0.996264)"/>
      </g>
     </g>
    </g>
    <g id="xtick_3">
     <g id="line2d_3">
      <g>
       <use xlink:href="#mbbe3d733e9" x="102.109693" y="142.2" style="stroke: #000000; stroke-width: 0.5"/>
      </g>
     </g>
     <g id="text_3">
      <!-- $\mathdefault{50}$ -->
      <g transform="translate(98.124637 153.103656) scale(0.08 -0.08)">
       <use xlink:href="#NimbusRomNo9L-Regu-35" transform="scale(0.996264)"/>
       <use xlink:href="#NimbusRomNo9L-Regu-30" transform="translate(49.8132 0) scale(0.996264)"/>
      </g>
     </g>
    </g>
    <g id="xtick_4">
     <g id="line2d_4">
      <g>
       <use xlink:href="#mbbe3d733e9" x="132.887396" y="142.2" style="stroke: #000000; stroke-width: 0.5"/>
      </g>
     </g>
     <g id="text_4">
      <!-- $\mathdefault{75}$ -->
      <g transform="translate(128.90234 153.103656) scale(0.08 -0.08)">
       <defs>
        <path id="NimbusRomNo9L-Regu-37" d="M 2874 4224 
L 506 4224 
L 128 3283 
L 237 3232 
C 512 3667 627 3750 979 3750 
L 2368 3750 
L 1101 -64 
L 1517 -64 
L 2874 4121 
L 2874 4224 
z
" transform="scale(0.015625)"/>
       </defs>
       <use xlink:href="#NimbusRomNo9L-Regu-37" transform="scale(0.996264)"/>
       <use xlink:href="#NimbusRomNo9L-Regu-35" transform="translate(49.8132 0) scale(0.996264)"/>
      </g>
     </g>
    </g>
    <g id="xtick_5">
     <g id="line2d_5">
      <g>
       <use xlink:href="#mbbe3d733e9" x="163.665099" y="142.2" style="stroke: #000000; stroke-width: 0.5"/>
      </g>
     </g>
     <g id="text_5">
      <!-- $\mathdefault{100}$ -->
      <g transform="translate(157.687515 153.103656) scale(0.08 -0.08)">
       <defs>
        <path id="NimbusRomNo9L-Regu-31" d="M 1862 4352 
L 710 3776 
L 710 3686 
C 787 3718 858 3743 883 3756 
C 998 3801 1107 3826 1171 3826 
C 1306 3826 1363 3731 1363 3525 
L 1363 599 
C 1363 386 1312 238 1210 179 
C 1114 121 1024 102 755 96 
L 755 0 
L 2522 0 
L 2522 96 
C 2016 102 1914 167 1914 477 
L 1914 4339 
L 1862 4352 
z
" transform="scale(0.015625)"/>
       </defs>
       <use xlink:href="#NimbusRomNo9L-Regu-31" transform="scale(0.996264)"/>
       <use xlink:href="#NimbusRomNo9L-Regu-30" transform="translate(49.8132 0) scale(0.996264)"/>
       <use xlink:href="#NimbusRomNo9L-Regu-30" transform="translate(99.626401 0) scale(0.996264)"/>
      </g>
     </g>
    </g>
    <g id="xtick_6">
     <g id="line2d_6">
      <g>
       <use xlink:href="#mbbe3d733e9" x="194.442802" y="142.2" style="stroke: #000000; stroke-width: 0.5"/>
      </g>
     </g>
     <g id="text_6">
      <!-- $\mathdefault{125}$ -->
      <g transform="translate(188.465218 153.103656) scale(0.08 -0.08)">
       <use xlink:href="#NimbusRomNo9L-Regu-31" transform="scale(0.996264)"/>
       <use xlink:href="#NimbusRomNo9L-Regu-32" transform="translate(49.8132 0) scale(0.996264)"/>
       <use xlink:href="#NimbusRomNo9L-Regu-35" transform="translate(99.626401 0) scale(0.996264)"/>
      </g>
     </g>
    </g>
    <g id="text_7">
     <!-- Distance ($km$) -->
     <g transform="translate(101.946242 164.232775) scale(0.08 -0.08)">
      <defs>
       <path id="NimbusRomNo9L-Regu-44" d="M 666 697 
C 666 236 589 153 102 121 
L 102 0 
L 1920 0 
C 2662 0 3334 211 3731 568 
C 4147 944 4384 1512 4384 2131 
C 4384 2705 4192 3202 3840 3553 
C 3405 3993 2707 4224 1830 4224 
L 102 4224 
L 102 4102 
C 608 4057 666 3999 666 3526 
L 666 697 
z
M 1318 3738 
C 1318 3936 1389 3987 1651 3987 
C 2202 3987 2618 3884 2925 3668 
C 3424 3323 3686 2775 3686 2086 
C 3686 1333 3424 798 2906 498 
C 2579 313 2208 236 1651 236 
C 1395 236 1318 294 1318 498 
L 1318 3738 
z
" transform="scale(0.015625)"/>
       <path id="NimbusRomNo9L-Regu-69" d="M 1120 2944 
L 128 2592 
L 128 2496 
L 179 2502 
C 256 2515 339 2521 397 2521 
C 550 2521 608 2419 608 2137 
L 608 652 
C 608 192 544 121 102 96 
L 102 0 
L 1619 0 
L 1619 96 
C 1197 128 1146 192 1146 652 
L 1146 2924 
L 1120 2944 
z
M 819 4352 
C 646 4352 499 4204 499 4025 
C 499 3846 640 3699 819 3699 
C 1005 3699 1152 3839 1152 4025 
C 1152 4204 1005 4352 819 4352 
z
" transform="scale(0.015625)"/>
       <path id="NimbusRomNo9L-Regu-73" d="M 2016 2009 
L 1990 2880 
L 1920 2880 
L 1907 2867 
C 1850 2822 1843 2815 1818 2815 
C 1779 2815 1715 2828 1645 2860 
C 1504 2918 1363 2944 1197 2944 
C 691 2944 326 2617 326 2155 
C 326 1796 531 1539 1075 1231 
L 1446 1019 
C 1670 891 1779 737 1779 538 
C 1779 256 1574 76 1248 76 
C 1030 76 832 160 710 301 
C 576 461 518 609 435 974 
L 333 974 
L 333 -26 
L 416 -26 
C 461 38 486 51 563 51 
C 621 51 710 38 858 0 
C 1037 -39 1210 -64 1325 -64 
C 1818 -64 2227 307 2227 756 
C 2227 1077 2074 1289 1690 1520 
L 998 1930 
C 819 2033 723 2193 723 2366 
C 723 2623 922 2803 1216 2803 
C 1581 2803 1773 2585 1920 2014 
L 2016 2009 
z
" transform="scale(0.015625)"/>
       <path id="NimbusRomNo9L-Regu-74" d="M 1632 2880 
L 986 2880 
L 986 3622 
C 986 3686 979 3705 941 3705 
C 896 3648 858 3590 813 3526 
C 570 3174 294 2867 192 2841 
C 122 2796 83 2751 83 2719 
C 83 2700 90 2687 109 2675 
L 448 2675 
L 448 748 
C 448 211 640 -64 1018 -64 
C 1331 -64 1574 89 1786 422 
L 1702 492 
C 1568 332 1459 268 1318 268 
C 1082 268 986 441 986 844 
L 986 2675 
L 1632 2675 
L 1632 2880 
z
" transform="scale(0.015625)"/>
       <path id="NimbusRomNo9L-Regu-61" d="M 2829 422 
C 2720 332 2643 300 2547 300 
C 2400 300 2355 390 2355 672 
L 2355 1920 
C 2355 2252 2323 2438 2227 2592 
C 2086 2822 1811 2944 1434 2944 
C 832 2944 358 2630 358 2227 
C 358 2080 486 1952 634 1952 
C 787 1952 922 2080 922 2220 
C 922 2246 915 2278 909 2323 
C 896 2380 890 2432 890 2476 
C 890 2649 1094 2790 1350 2790 
C 1664 2790 1837 2604 1837 2259 
L 1837 1868 
C 851 1472 742 1420 467 1177 
C 326 1049 237 832 237 620 
C 237 217 518 -64 909 -64 
C 1190 -64 1453 70 1843 403 
C 1875 70 1990 -64 2253 -64 
C 2470 -64 2605 12 2829 256 
L 2829 422 
z
M 1837 787 
C 1837 588 1805 531 1670 454 
C 1517 364 1338 307 1203 307 
C 979 307 800 524 800 800 
L 800 825 
C 800 1203 1062 1433 1837 1715 
L 1837 787 
z
" transform="scale(0.015625)"/>
       <path id="NimbusRomNo9L-Regu-6e" d="M 102 2547 
C 141 2566 205 2572 275 2572 
C 454 2572 512 2476 512 2163 
L 512 576 
C 512 211 442 121 115 96 
L 115 0 
L 1472 0 
L 1472 96 
C 1146 121 1050 198 1050 428 
L 1050 2227 
C 1357 2515 1498 2591 1709 2591 
C 2022 2591 2176 2393 2176 1971 
L 2176 633 
C 2176 230 2093 121 1773 96 
L 1773 0 
L 3104 0 
L 3104 96 
C 2790 128 2714 204 2714 518 
L 2714 1984 
C 2714 2585 2432 2944 1958 2944 
C 1664 2944 1466 2835 1030 2425 
L 1030 2931 
L 986 2944 
C 672 2828 454 2758 102 2655 
L 102 2547 
z
" transform="scale(0.015625)"/>
       <path id="NimbusRomNo9L-Regu-63" d="M 2547 998 
C 2240 550 2010 396 1645 396 
C 1062 396 653 908 653 1644 
C 653 2303 1005 2758 1523 2758 
C 1754 2758 1837 2687 1901 2451 
L 1939 2310 
C 1990 2131 2106 2015 2240 2015 
C 2406 2015 2547 2137 2547 2284 
C 2547 2643 2099 2944 1562 2944 
C 1248 2944 922 2815 659 2585 
C 339 2303 160 1868 160 1363 
C 160 531 666 -64 1376 -64 
C 1664 -64 1920 38 2150 236 
C 2323 390 2445 563 2637 940 
L 2547 998 
z
" transform="scale(0.015625)"/>
       <path id="NimbusRomNo9L-Regu-65" d="M 2611 1052 
C 2304 564 2029 377 1619 377 
C 1254 377 979 564 794 930 
C 678 1174 634 1386 621 1779 
L 2592 1779 
C 2541 2193 2477 2377 2317 2580 
C 2125 2809 1830 2944 1498 2944 
C 1178 2944 877 2828 634 2612 
C 333 2351 160 1900 160 1374 
C 160 486 621 -64 1357 -64 
C 1965 -64 2445 313 2714 1007 
L 2611 1052 
z
M 634 1984 
C 704 2478 922 2713 1312 2713 
C 1702 2713 1856 2535 1939 1984 
L 634 1984 
z
" transform="scale(0.015625)"/>
       <path id="NimbusRomNo9L-Regu-28" d="M 1888 4352 
C 1414 4044 1222 3878 986 3583 
C 531 3027 307 2387 307 1638 
C 307 825 544 198 1107 -455 
C 1370 -762 1536 -903 1869 -1108 
L 1946 -1006 
C 1434 -602 1254 -378 1082 102 
C 928 530 858 1017 858 1657 
C 858 2329 941 2854 1114 3251 
C 1293 3647 1485 3878 1946 4249 
L 1888 4352 
z
" transform="scale(0.015625)"/>
       <path id="NimbusRomNo9L-ReguItal-6b" d="M 2650 704 
L 2554 537 
C 2438 339 2362 268 2266 268 
C 2131 268 1997 480 1747 1094 
C 1715 1177 1619 1408 1510 1657 
C 2451 2496 2650 2624 2950 2643 
L 2950 2745 
L 1779 2745 
L 1779 2643 
L 1882 2643 
C 2042 2643 2131 2598 2131 2528 
C 2131 2400 1811 2086 1216 1632 
C 1126 1561 1050 1497 941 1420 
L 1709 4345 
L 1677 4377 
C 1299 4294 1056 4249 678 4205 
L 678 4102 
C 986 4109 1107 4064 1114 3942 
C 1101 3833 1056 3661 973 3366 
C 947 3277 928 3206 915 3155 
L 902 3097 
L 90 6 
L 570 6 
L 877 1158 
L 1146 1363 
C 1248 1081 1414 691 1530 460 
C 1734 57 1850 -64 2035 -64 
C 2291 -64 2458 96 2746 633 
L 2650 704 
z
" transform="scale(0.015625)"/>
       <path id="NimbusRomNo9L-ReguItal-6d" d="M 4410 742 
C 4346 665 4294 601 4275 575 
C 4096 345 3962 236 3866 236 
C 3814 236 3782 275 3782 339 
C 3782 371 3808 473 3846 627 
L 4282 2233 
C 4288 2259 4301 2374 4301 2412 
C 4301 2643 4141 2816 3923 2816 
C 3802 2816 3674 2771 3520 2675 
C 3206 2470 2944 2163 2502 1459 
C 2662 1945 2758 2310 2758 2431 
C 2758 2655 2611 2816 2394 2816 
C 2003 2816 1555 2393 966 1465 
L 1338 2803 
L 1318 2816 
C 960 2739 826 2713 294 2617 
L 294 2515 
L 454 2515 
C 621 2515 704 2470 704 2374 
C 704 2303 557 1721 326 908 
C 179 384 160 320 77 -7 
L 557 -7 
C 864 1011 960 1247 1178 1580 
C 1536 2124 1920 2483 2138 2483 
C 2221 2483 2266 2425 2266 2323 
C 2266 2265 2061 1491 1658 -7 
L 2138 -7 
C 2394 991 2522 1311 2848 1766 
C 3162 2201 3482 2483 3667 2483 
C 3738 2483 3795 2419 3795 2348 
C 3795 2316 3782 2239 3750 2124 
L 3379 652 
C 3322 416 3296 294 3296 230 
C 3296 38 3386 -64 3552 -64 
C 3853 -64 4134 147 4474 620 
L 4506 665 
L 4410 742 
z
" transform="scale(0.015625)"/>
       <path id="NimbusRomNo9L-Regu-29" d="M 243 -1108 
C 717 -801 909 -634 1146 -340 
C 1600 217 1824 857 1824 1606 
C 1824 2425 1587 3046 1024 3699 
C 762 4006 595 4147 262 4352 
L 186 4249 
C 698 3846 870 3622 1050 3142 
C 1203 2713 1274 2227 1274 1587 
C 1274 921 1190 390 1018 -1 
C 838 -404 646 -634 186 -1006 
L 243 -1108 
z
" transform="scale(0.015625)"/>
      </defs>
      <use xlink:href="#NimbusRomNo9L-Regu-44" transform="scale(0.996264)"/>
      <use xlink:href="#NimbusRomNo9L-Regu-69" transform="translate(71.929985 0) scale(0.996264)"/>
      <use xlink:href="#NimbusRomNo9L-Regu-73" transform="translate(99.625154 0) scale(0.996264)"/>
      <use xlink:href="#NimbusRomNo9L-Regu-74" transform="translate(138.378861 0) scale(0.996264)"/>
      <use xlink:href="#NimbusRomNo9L-Regu-61" transform="translate(166.07403 0) scale(0.996264)"/>
      <use xlink:href="#NimbusRomNo9L-Regu-6e" transform="translate(210.307599 0) scale(0.996264)"/>
      <use xlink:href="#NimbusRomNo9L-Regu-63" transform="translate(260.120799 0) scale(0.996264)"/>
      <use xlink:href="#NimbusRomNo9L-Regu-65" transform="translate(304.354368 0) scale(0.996264)"/>
      <use xlink:href="#NimbusRomNo9L-Regu-28" transform="translate(373.494537 0) scale(0.996264)"/>
      <use xlink:href="#NimbusRomNo9L-ReguItal-6b" transform="translate(406.669767 0) scale(0.996264)"/>
      <use xlink:href="#NimbusRomNo9L-ReguItal-6d" transform="translate(452.596145 0) scale(0.996264)"/>
      <use xlink:href="#NimbusRomNo9L-Regu-29" transform="translate(524.52613 0) scale(0.996264)"/>
     </g>
    </g>
   </g>
   <g id="matplotlib.axis_2">
    <g id="ytick_1">
     <g id="line2d_7">
      <defs>
       <path id="m77e42a3b01" d="M 0 0 
L -2 0 
" style="stroke: #000000; stroke-width: 0.5"/>
      </defs>
      <g>
       <use xlink:href="#m77e42a3b01" x="32.184287" y="133.626804" style="stroke: #000000; stroke-width: 0.5"/>
      </g>
     </g>
     <g id="text_8">
      <!-- $\mathdefault{200}$ -->
      <g transform="translate(14.729119 136.328632) scale(0.08 -0.08)">
       <use xlink:href="#NimbusRomNo9L-Regu-32" transform="scale(0.996264)"/>
       <use xlink:href="#NimbusRomNo9L-Regu-30" transform="translate(49.8132 0) scale(0.996264)"/>
       <use xlink:href="#NimbusRomNo9L-Regu-30" transform="translate(99.626401 0) scale(0.996264)"/>
      </g>
     </g>
    </g>
    <g id="ytick_2">
     <g id="line2d_8">
      <g>
       <use xlink:href="#m77e42a3b01" x="32.184287" y="103.858763" style="stroke: #000000; stroke-width: 0.5"/>
      </g>
     </g>
     <g id="text_9">
      <!-- $\mathdefault{250}$ -->
      <g transform="translate(14.729119 106.560591) scale(0.08 -0.08)">
       <use xlink:href="#NimbusRomNo9L-Regu-32" transform="scale(0.996264)"/>
       <use xlink:href="#NimbusRomNo9L-Regu-35" transform="translate(49.8132 0) scale(0.996264)"/>
       <use xlink:href="#NimbusRomNo9L-Regu-30" transform="translate(99.626401 0) scale(0.996264)"/>
      </g>
     </g>
    </g>
    <g id="ytick_3">
     <g id="line2d_9">
      <g>
       <use xlink:href="#m77e42a3b01" x="32.184287" y="74.090722" style="stroke: #000000; stroke-width: 0.5"/>
      </g>
     </g>
     <g id="text_10">
      <!-- $\mathdefault{300}$ -->
      <g transform="translate(14.729119 76.79255) scale(0.08 -0.08)">
       <defs>
        <path id="NimbusRomNo9L-Regu-33" d="M 979 2137 
C 1357 2137 1504 2124 1658 2067 
C 2054 1926 2304 1561 2304 1120 
C 2304 582 1939 166 1466 166 
C 1293 166 1165 211 928 364 
C 736 480 627 524 518 524 
C 371 524 275 435 275 300 
C 275 76 550 -64 998 -64 
C 1491 -64 1997 102 2298 364 
C 2598 627 2765 998 2765 1427 
C 2765 1753 2662 2054 2477 2252 
C 2349 2393 2227 2470 1946 2592 
C 2387 2892 2547 3129 2547 3475 
C 2547 3993 2138 4352 1549 4352 
C 1229 4352 947 4243 717 4038 
C 525 3865 429 3699 288 3315 
L 384 3289 
C 646 3757 934 3967 1338 3967 
C 1754 3967 2042 3686 2042 3283 
C 2042 3052 1946 2822 1786 2662 
C 1594 2470 1414 2374 979 2220 
L 979 2137 
z
" transform="scale(0.015625)"/>
       </defs>
       <use xlink:href="#NimbusRomNo9L-Regu-33" transform="scale(0.996264)"/>
       <use xlink:href="#NimbusRomNo9L-Regu-30" transform="translate(49.8132 0) scale(0.996264)"/>
       <use xlink:href="#NimbusRomNo9L-Regu-30" transform="translate(99.626401 0) scale(0.996264)"/>
      </g>
     </g>
    </g>
    <g id="ytick_4">
     <g id="line2d_10">
      <g>
       <use xlink:href="#m77e42a3b01" x="32.184287" y="44.32268" style="stroke: #000000; stroke-width: 0.5"/>
      </g>
     </g>
     <g id="text_11">
      <!-- $\mathdefault{350}$ -->
      <g transform="translate(14.729119 47.024508) scale(0.08 -0.08)">
       <use xlink:href="#NimbusRomNo9L-Regu-33" transform="scale(0.996264)"/>
       <use xlink:href="#NimbusRomNo9L-Regu-35" transform="translate(49.8132 0) scale(0.996264)"/>
       <use xlink:href="#NimbusRomNo9L-Regu-30" transform="translate(99.626401 0) scale(0.996264)"/>
      </g>
     </g>
    </g>
    <g id="ytick_5">
     <g id="line2d_11">
      <g>
       <use xlink:href="#m77e42a3b01" x="32.184287" y="14.554639" style="stroke: #000000; stroke-width: 0.5"/>
      </g>
     </g>
     <g id="text_12">
      <!-- $\mathdefault{400}$ -->
      <g transform="translate(14.729119 17.256467) scale(0.08 -0.08)">
       <defs>
        <path id="NimbusRomNo9L-Regu-34" d="M 3021 1497 
L 2368 1497 
L 2368 4352 
L 2086 4352 
L 77 1497 
L 77 1088 
L 1875 1088 
L 1875 0 
L 2368 0 
L 2368 1088 
L 3021 1088 
L 3021 1497 
z
M 1869 1497 
L 333 1497 
L 1869 3697 
L 1869 1497 
z
" transform="scale(0.015625)"/>
       </defs>
       <use xlink:href="#NimbusRomNo9L-Regu-34" transform="scale(0.996264)"/>
       <use xlink:href="#NimbusRomNo9L-Regu-30" transform="translate(49.8132 0) scale(0.996264)"/>
       <use xlink:href="#NimbusRomNo9L-Regu-30" transform="translate(99.626401 0) scale(0.996264)"/>
      </g>
     </g>
    </g>
    <g id="text_13">
     <!-- Elevation ($m$) -->
     <g transform="translate(9.003656 94.502782) rotate(-90) scale(0.08 -0.08)">
      <defs>
       <path id="NimbusRomNo9L-Regu-45" d="M 3821 1087 
L 3642 1087 
C 3322 391 3046 236 2131 236 
L 1958 236 
C 1645 236 1376 269 1331 314 
C 1299 333 1286 404 1286 513 
L 1286 2105 
L 2272 2105 
C 2797 2105 2893 2021 2976 1487 
L 3123 1487 
L 3123 2966 
L 2976 2966 
C 2931 2708 2906 2613 2835 2525 
C 2752 2418 2573 2368 2272 2368 
L 1286 2368 
L 1286 3766 
C 1286 3942 1325 3980 1498 3980 
L 2362 3980 
C 3085 3980 3226 3886 3334 3319 
L 3494 3319 
L 3475 4224 
L 77 4224 
L 77 4102 
C 550 4064 634 3975 634 3528 
L 634 695 
C 634 249 544 153 77 121 
L 77 0 
L 3533 0 
L 3821 1087 
z
" transform="scale(0.015625)"/>
       <path id="NimbusRomNo9L-Regu-6c" d="M 122 3987 
L 160 3987 
C 230 3993 307 4000 358 4000 
C 563 4000 627 3910 627 3609 
L 627 556 
C 627 211 538 128 134 96 
L 134 0 
L 1645 0 
L 1645 96 
C 1242 121 1165 185 1165 537 
L 1165 4358 
L 1139 4371 
C 806 4262 563 4198 122 4089 
L 122 3987 
z
" transform="scale(0.015625)"/>
       <path id="NimbusRomNo9L-Regu-76" d="M 3053 2880 
L 2163 2880 
L 2163 2783 
C 2368 2764 2464 2701 2464 2580 
C 2464 2517 2451 2454 2426 2390 
L 1792 748 
L 1139 2371 
C 1101 2460 1082 2549 1082 2606 
C 1082 2720 1152 2764 1376 2783 
L 1376 2880 
L 122 2880 
L 122 2783 
C 365 2771 410 2707 704 2054 
L 1472 235 
C 1485 197 1504 152 1523 102 
C 1562 -13 1600 -64 1638 -64 
C 1677 -64 1722 19 1818 254 
L 2637 2289 
C 2822 2720 2861 2764 3053 2783 
L 3053 2880 
z
" transform="scale(0.015625)"/>
       <path id="NimbusRomNo9L-Regu-6f" d="M 1600 2944 
C 768 2944 186 2329 186 1446 
C 186 582 781 -64 1587 -64 
C 2394 -64 3008 614 3008 1497 
C 3008 2336 2419 2944 1600 2944 
z
M 1517 2764 
C 2054 2764 2432 2150 2432 1273 
C 2432 550 2144 115 1664 115 
C 1414 115 1178 268 1043 524 
C 864 857 762 1305 762 1760 
C 762 2368 1062 2764 1517 2764 
z
" transform="scale(0.015625)"/>
      </defs>
      <use xlink:href="#NimbusRomNo9L-Regu-45" transform="scale(0.996264)"/>
      <use xlink:href="#NimbusRomNo9L-Regu-6c" transform="translate(60.871631 0) scale(0.996264)"/>
      <use xlink:href="#NimbusRomNo9L-Regu-65" transform="translate(88.5668 0) scale(0.996264)"/>
      <use xlink:href="#NimbusRomNo9L-Regu-76" transform="translate(130.309739 0) scale(0.996264)"/>
      <use xlink:href="#NimbusRomNo9L-Regu-61" transform="translate(177.63231 0) scale(0.996264)"/>
      <use xlink:href="#NimbusRomNo9L-Regu-74" transform="translate(221.865879 0) scale(0.996264)"/>
      <use xlink:href="#NimbusRomNo9L-Regu-69" transform="translate(249.561049 0) scale(0.996264)"/>
      <use xlink:href="#NimbusRomNo9L-Regu-6f" transform="translate(277.256218 0) scale(0.996264)"/>
      <use xlink:href="#NimbusRomNo9L-Regu-6e" transform="translate(327.069419 0) scale(0.996264)"/>
      <use xlink:href="#NimbusRomNo9L-Regu-28" transform="translate(401.789219 0) scale(0.996264)"/>
      <use xlink:href="#NimbusRomNo9L-ReguItal-6d" transform="translate(434.964449 0) scale(0.996264)"/>
      <use xlink:href="#NimbusRomNo9L-Regu-29" transform="translate(506.894434 0) scale(0.996264)"/>
     </g>
    </g>
   </g>
   <g id="line2d_12">
    <path d="M 40.554287 15.15 
L 40.610076 15.15 
L 40.721653 19.912887 
L 40.777442 19.317526 
L 40.88582 21.103608 
L 40.938409 20.508247 
L 40.990998 19.317526 
L 41.076294 21.103608 
L 41.118942 20.508247 
L 41.329925 22.29433 
L 41.410707 22.29433 
L 41.491489 21.103608 
L 41.612662 23.485052 
L 41.774226 18.126804 
L 42.091408 27.652577 
L 42.209608 26.461856 
L 42.327808 27.057216 
L 42.367208 27.057216 
L 42.643008 30.034021 
L 42.761208 30.034021 
L 42.840008 31.224742 
L 42.879408 30.629381 
L 42.958209 30.034021 
L 43.19712 33.606186 
L 43.319088 31.224742 
L 43.441055 34.796907 
L 43.481711 34.201546 
L 43.522367 34.796907 
L 43.603679 34.796907 
L 43.644334 34.201546 
L 43.68499 34.796907 
L 43.725646 35.987629 
L 43.766302 35.392268 
L 43.847614 34.796907 
L 44.008062 37.773711 
L 44.085024 37.178351 
L 44.123505 34.201546 
L 44.161986 35.392268 
L 44.315911 38.369072 
L 44.392873 38.369072 
L 44.469835 40.155155 
L 44.508316 39.559794 
L 44.546797 38.964433 
L 44.62376 40.155155 
L 44.662241 39.559794 
L 44.700722 38.964433 
L 44.777684 41.345876 
L 44.816165 39.559794 
L 44.854646 39.559794 
L 45.085533 43.72732 
L 45.124014 41.345876 
L 45.200976 42.536598 
L 45.277938 42.536598 
L 45.3549 43.131959 
L 45.393381 41.941237 
L 45.431863 42.536598 
L 45.662749 47.894845 
L 45.739711 44.918041 
L 45.778192 45.513402 
L 45.932117 46.704124 
L 46.009079 46.108763 
L 46.201484 49.085567 
L 46.316928 47.894845 
L 46.432371 48.490206 
L 46.470852 48.490206 
L 46.624776 46.704124 
L 46.74022 49.085567 
L 46.778701 48.490206 
L 47.048068 44.32268 
L 47.086549 44.918041 
L 47.163573 44.918041 
L 47.202085 45.513402 
L 47.240597 42.536598 
L 47.317621 44.918041 
L 47.471668 48.490206 
L 47.51018 47.894845 
L 47.548692 47.894845 
L 47.625715 46.108763 
L 47.818275 50.871649 
L 48.010834 53.253093 
L 48.087857 52.062371 
L 48.126369 52.657732 
L 48.318929 54.443814 
L 48.395952 54.443814 
L 48.511488 53.253093 
L 48.665535 56.825258 
L 48.704047 56.825258 
L 48.781071 53.848454 
L 48.819582 54.443814 
L 49.012142 58.015979 
L 49.166189 55.634536 
L 49.204701 55.634536 
L 49.358748 56.825258 
L 49.39726 56.825258 
L 49.514881 60.397423 
L 49.555477 58.61134 
L 49.636671 57.420619 
L 49.677268 58.015979 
L 49.839655 60.397423 
L 49.880252 59.802062 
L 50.004306 58.015979 
L 50.087762 62.183505 
L 50.129491 61.588144 
L 50.296405 60.397423 
L 50.335176 60.397423 
L 50.373947 60.992784 
L 50.451489 63.374227 
L 50.49026 62.778866 
L 50.567802 61.588144 
L 50.722886 67.541753 
L 50.761658 66.946392 
L 50.916742 60.992784 
L 51.22691 65.75567 
L 51.265682 65.160309 
L 51.420766 63.374227 
L 51.459537 63.969588 
L 51.57585 59.802062 
L 51.653392 60.992784 
L 51.769706 60.992784 
L 51.847248 62.778866 
L 51.886019 61.588144 
L 51.963561 59.802062 
L 52.002332 60.992784 
L 52.157416 62.778866 
L 52.545127 56.825258 
L 52.818461 65.160309 
L 53.171757 60.992784 
L 53.525054 65.75567 
L 53.682074 60.992784 
L 53.72133 62.778866 
L 53.917605 65.75567 
L 54.114183 71.709278 
L 54.153739 72.304639 
L 54.391079 67.541753 
L 54.430635 67.541753 
L 54.470192 65.160309 
L 54.549305 66.351031 
L 54.628418 66.946392 
L 54.747088 63.969588 
L 54.826201 65.75567 
L 54.865758 63.969588 
L 54.905315 64.564948 
L 54.984428 68.732474 
L 55.146522 74.090722 
L 55.308616 71.113918 
L 55.392972 71.709278 
L 55.480638 69.923196 
L 55.52447 71.113918 
L 55.699802 72.9 
L 55.742803 72.9 
L 55.871807 69.327835 
L 55.912851 70.518557 
L 56.035982 71.709278 
L 56.159113 65.75567 
L 56.252493 68.137113 
L 56.392563 71.113918 
L 56.585211 68.732474 
L 56.795525 75.876804 
L 56.848104 75.876804 
L 56.900682 75.281443 
L 56.953261 75.876804 
L 57.005839 75.876804 
L 57.110996 75.281443 
L 57.268732 77.662887 
L 57.426467 73.495361 
L 57.479046 72.9 
L 57.531624 73.495361 
L 57.584203 73.495361 
L 57.786081 72.304639 
L 57.874365 72.304639 
L 57.918507 72.9 
L 58.006791 69.327835 
L 58.095076 69.923196 
L 58.233084 71.709278 
L 58.382256 75.281443 
L 58.43198 72.304639 
L 58.481704 72.9 
L 58.581152 76.472165 
L 58.630875 74.686082 
L 58.680599 75.281443 
L 58.730323 75.876804 
L 58.879495 71.113918 
L 58.923603 71.709278 
L 58.96771 70.518557 
L 59.055925 71.113918 
L 59.32057 68.137113 
L 59.452893 75.876804 
L 59.497 74.686082 
L 59.629323 71.113918 
L 59.893968 77.662887 
L 60.02629 77.067526 
L 60.140856 77.662887 
L 60.255421 77.662887 
L 60.312704 74.686082 
L 60.369986 75.876804 
L 60.484552 78.258247 
L 60.541835 77.662887 
L 60.713683 76.472165 
L 60.758838 77.067526 
L 60.803994 75.876804 
L 60.84915 76.472165 
L 60.939461 78.258247 
L 61.029772 77.067526 
L 61.165239 78.853608 
L 61.255551 77.067526 
L 61.481329 81.830412 
L 61.526485 81.235052 
L 61.57164 81.830412 
L 61.616796 81.830412 
L 61.661952 81.235052 
L 61.707107 83.021134 
L 61.752263 82.425773 
L 61.842574 81.830412 
L 61.88773 82.425773 
L 61.932886 81.830412 
L 62.061365 87.18866 
L 62.147018 87.18866 
L 62.275498 79.448969 
L 62.318325 80.639691 
L 62.361151 79.448969 
L 62.446804 79.448969 
L 62.532457 76.472165 
L 62.660937 81.830412 
L 62.703764 80.639691 
L 62.74659 80.639691 
L 62.915953 78.258247 
L 63.000311 75.281443 
L 63.042489 77.067526 
L 63.084668 77.067526 
L 63.211204 81.235052 
L 63.379919 80.04433 
L 63.605112 83.616495 
L 63.650151 82.425773 
L 63.785266 82.425773 
L 63.830305 83.616495 
L 63.875343 82.425773 
L 63.96542 88.974742 
L 64.010459 84.211856 
L 64.055497 88.974742 
L 64.145574 88.974742 
L 64.28069 89.570103 
L 64.813554 89.570103 
L 64.862753 85.997938 
L 64.911952 90.165464 
L 65.010349 90.165464 
L 65.157945 78.258247 
L 65.207144 78.258247 
L 65.551534 84.807216 
L 65.600733 84.807216 
L 65.649931 86.593299 
L 65.69913 85.997938 
L 65.748329 85.997938 
L 65.895925 84.807216 
L 65.945123 85.997938 
L 65.994322 85.402577 
L 66.093712 84.211856 
L 66.193102 84.807216 
L 66.292493 81.830412 
L 66.342188 83.616495 
L 66.391883 83.021134 
L 66.441578 81.830412 
L 66.491273 83.021134 
L 66.540968 82.425773 
L 66.590663 83.021134 
L 66.640358 84.211856 
L 66.690054 83.616495 
L 66.839139 81.235052 
L 66.888834 83.021134 
L 66.946374 82.425773 
L 67.003914 82.425773 
L 67.176534 85.402577 
L 67.280293 84.807216 
L 67.326511 85.997938 
L 67.418947 83.616495 
L 67.465166 84.211856 
L 67.696257 87.784021 
L 67.834912 85.997938 
L 67.927348 86.593299 
L 68.066003 84.807216 
L 68.112221 85.402577 
L 68.204658 82.425773 
L 68.250876 83.616495 
L 68.416651 88.379381 
L 68.458095 87.18866 
L 68.499539 85.997938 
L 68.540983 87.784021 
L 68.706759 88.974742 
L 68.789647 88.974742 
L 68.83109 89.570103 
L 68.872534 88.974742 
L 68.955422 88.379381 
L 69.073265 93.142268 
L 69.226063 93.142268 
L 69.340661 93.737629 
L 69.576885 93.737629 
L 69.656797 88.379381 
L 69.696753 88.974742 
L 69.93649 93.737629 
L 70.016403 93.737629 
L 70.096315 88.974742 
L 70.136271 89.570103 
L 70.336052 87.18866 
L 70.455921 89.570103 
L 70.653085 87.784021 
L 70.691733 87.784021 
L 70.807677 85.997938 
L 70.962269 87.784021 
L 71.078213 89.570103 
L 71.196768 87.18866 
L 71.238026 87.784021 
L 71.320543 87.784021 
L 71.526836 91.951546 
L 71.650611 94.928351 
L 71.823875 94.928351 
L 71.959994 92.546907 
L 72.005367 93.142268 
L 72.050741 92.546907 
L 72.141487 90.165464 
L 72.237957 88.379381 
L 72.636777 95.523711 
L 73.280154 95.523711 
L 73.412521 96.119072 
L 73.833524 96.119072 
L 73.962533 96.714433 
L 74.708488 96.714433 
L 74.829918 97.309794 
L 75.194209 97.309794 
L 75.275163 87.784021 
L 75.315471 89.570103 
L 75.355778 88.379381 
L 75.396086 89.570103 
L 75.517009 91.951546 
L 75.760729 88.379381 
L 76.094619 94.928351 
L 76.184789 95.523711 
L 76.4553 87.784021 
L 76.500385 87.784021 
L 76.54547 89.570103 
L 76.680725 97.309794 
L 77.063642 97.309794 
L 77.221133 96.119072 
L 77.299879 96.119072 
L 77.378624 94.33299 
L 77.45737 91.356186 
L 77.496742 91.951546 
L 77.575488 90.760825 
L 77.614861 91.356186 
L 77.732979 92.546907 
L 77.811725 91.951546 
L 78.158692 96.119072 
L 78.311961 92.546907 
L 78.388596 94.928351 
L 78.426914 93.737629 
L 78.465231 92.546907 
L 78.503548 93.737629 
L 78.541866 93.737629 
L 78.618501 92.546907 
L 78.656818 93.142268 
L 78.701248 93.737629 
L 78.745678 92.546907 
L 78.923397 96.714433 
L 79.012256 96.714433 
L 79.056686 96.119072 
L 79.101116 96.714433 
L 79.145546 96.714433 
L 79.189975 96.119072 
L 79.367695 97.905155 
L 79.412124 97.309794 
L 79.456554 98.500515 
L 79.500984 96.714433 
L 79.589844 94.33299 
L 79.67674 100.881959 
L 79.720188 99.691237 
L 79.850533 94.928351 
L 79.893981 96.119072 
L 80.154671 99.691237 
L 80.328464 93.737629 
L 80.371912 94.33299 
L 80.502257 93.142268 
L 80.719498 94.928351 
L 80.762946 93.737629 
L 80.806395 94.33299 
L 80.849843 94.928351 
L 80.932297 93.142268 
L 80.971303 93.737629 
L 81.010309 94.33299 
L 81.049315 93.737629 
L 81.088321 93.737629 
L 81.127326 94.33299 
L 81.166332 93.737629 
L 81.205338 93.737629 
L 81.322356 91.951546 
L 81.517386 95.523711 
L 81.556392 95.523711 
L 81.673409 94.33299 
L 81.724774 94.928351 
L 81.776138 94.33299 
L 81.827502 92.546907 
L 81.981595 96.714433 
L 82.084323 93.142268 
L 82.311199 97.309794 
L 82.393964 94.928351 
L 82.476728 95.523711 
L 82.600875 94.33299 
L 82.767641 96.714433 
L 82.934818 93.142268 
L 83.018406 90.760825 
L 83.060201 91.356186 
L 83.203861 95.523711 
L 83.251747 94.928351 
L 83.395407 102.668041 
L 83.586954 102.668041 
L 83.682727 90.760825 
L 83.730614 93.737629 
L 84.059069 103.263402 
L 84.541264 103.263402 
L 84.648961 103.858763 
L 84.810507 97.309794 
L 85.025901 93.737629 
L 85.135858 95.523711 
L 85.245815 97.309794 
L 85.364073 96.714433 
L 85.48233 104.454124 
L 85.797685 104.454124 
L 85.837104 100.286598 
L 85.915943 100.881959 
L 86.0342 98.500515 
L 86.07734 99.095876 
L 86.163619 102.07268 
L 86.206758 101.47732 
L 86.249898 101.47732 
L 86.293038 102.668041 
L 86.379317 102.07268 
L 86.46215 99.095876 
L 86.501844 99.691237 
L 86.620925 104.454124 
L 86.660619 103.263402 
L 86.700313 104.454124 
L 86.781564 104.454124 
L 86.864678 96.119072 
L 86.90558 104.454124 
L 86.987382 99.691237 
L 87.110086 105.049485 
L 87.727492 105.049485 
L 87.853111 105.644845 
L 88.851549 105.644845 
L 88.937499 106.240206 
L 89.066425 102.668041 
L 89.152375 103.263402 
L 89.281301 100.286598 
L 89.367251 100.881959 
L 89.453201 102.07268 
L 89.59825 106.240206 
L 90.05758 106.240206 
L 90.159653 106.835567 
L 90.261727 102.668041 
L 90.305967 103.263402 
L 90.350208 105.644845 
L 90.438689 105.049485 
L 90.527171 105.049485 
L 90.704134 103.263402 
L 90.749038 106.240206 
L 90.793942 104.454124 
L 90.838847 104.454124 
L 90.883751 105.049485 
L 90.97356 108.026289 
L 91.108273 104.454124 
L 91.153177 104.454124 
L 91.198081 103.858763 
L 91.28789 105.644845 
L 91.332794 105.049485 
L 91.377699 105.644845 
L 91.467507 103.263402 
L 91.512412 104.454124 
L 91.557316 104.454124 
L 91.647125 105.049485 
L 91.781838 103.858763 
L 91.879631 103.263402 
L 92.144074 106.835567 
L 92.196962 106.835567 
L 92.249851 102.07268 
L 92.30274 106.835567 
L 92.509488 106.835567 
L 92.61046 101.47732 
L 92.660946 102.07268 
L 92.761917 102.07268 
L 92.918826 99.691237 
L 92.974765 100.286598 
L 93.109321 101.47732 
L 93.148631 101.47732 
L 93.328694 97.905155 
L 93.379417 96.119072 
L 93.435343 97.309794 
L 93.547196 99.691237 
L 93.603123 99.691237 
L 93.832705 103.858763 
L 93.872582 103.263402 
L 93.952336 101.47732 
L 93.992213 102.07268 
L 94.206324 99.095876 
L 94.430017 103.858763 
L 94.559977 99.691237 
L 94.722158 102.668041 
L 94.762703 100.881959 
L 94.843793 102.07268 
L 95.04393 107.430928 
L 95.254656 107.430928 
L 95.383033 108.026289 
L 95.566212 108.026289 
L 95.675818 102.668041 
L 95.73062 103.858763 
L 95.785423 103.858763 
L 95.94281 104.454124 
L 96.072466 103.858763 
L 96.111063 103.858763 
L 96.149659 104.454124 
L 96.188256 103.858763 
L 96.265449 102.668041 
L 96.304045 103.263402 
L 96.342642 103.858763 
L 96.383325 103.263402 
L 96.464692 102.668041 
L 96.627426 103.858763 
L 96.66811 103.858763 
L 96.761026 104.454124 
L 96.813258 102.668041 
L 96.865491 104.454124 
L 97.07442 109.21701 
L 97.327669 109.21701 
L 97.377263 108.026289 
L 97.426858 109.21701 
L 97.476453 109.21701 
L 97.526047 106.835567 
L 97.575642 107.430928 
L 97.625236 107.430928 
L 97.873209 109.21701 
L 98.416962 109.21701 
L 98.466333 105.644845 
L 98.515704 109.21701 
L 99.082321 109.21701 
L 99.230624 103.858763 
L 99.269618 103.263402 
L 99.3866 109.21701 
L 99.698553 109.21701 
L 99.737547 99.691237 
L 99.779717 109.21701 
L 101.903574 109.21701 
L 102.02952 101.47732 
L 102.068702 102.07268 
L 102.186245 104.454124 
L 102.225427 104.454124 
L 102.303789 106.240206 
L 102.34297 105.644845 
L 102.390212 105.644845 
L 102.57918 102.07268 
L 102.678256 104.454124 
L 102.876407 98.500515 
L 103.114245 101.47732 
L 103.233164 109.21701 
L 104.612151 109.21701 
L 104.708158 106.835567 
L 104.848603 99.691237 
L 105.068913 105.644845 
L 105.176437 107.430928 
L 105.268219 103.858763 
L 105.401838 109.21701 
L 105.983021 109.21701 
L 106.132794 109.812371 
L 107.376067 109.812371 
L 107.493254 110.407732 
L 108.704186 110.407732 
L 108.82165 111.003093 
L 109.85218 111.003093 
L 110.080292 98.500515 
L 110.294268 105.049485 
L 110.338972 105.049485 
L 110.470263 111.003093 
L 110.775657 111.003093 
L 110.913516 111.598454 
L 111.489561 111.598454 
L 111.611428 112.193814 
L 112.122679 112.193814 
L 112.279461 105.049485 
L 112.686156 112.193814 
L 112.830987 112.193814 
L 112.943433 112.789175 
L 112.999656 103.858763 
L 113.055878 104.454124 
L 113.206174 103.263402 
L 113.441356 108.621649 
L 113.535429 107.430928 
L 113.582465 108.026289 
L 113.669548 108.621649 
L 113.869782 106.240206 
L 114.102049 109.21701 
L 114.148503 108.621649 
L 114.194956 108.026289 
L 114.24141 108.621649 
L 114.287863 108.621649 
L 114.427223 106.240206 
L 114.613037 109.21701 
L 114.793512 105.049485 
L 114.834627 103.858763 
L 114.875742 104.454124 
L 114.999086 108.026289 
L 115.040201 106.835567 
L 115.081316 107.430928 
L 115.159626 105.049485 
L 115.277091 112.789175 
L 115.440852 112.789175 
L 115.579739 113.384536 
L 115.675564 113.384536 
L 115.861743 108.026289 
L 115.904183 108.026289 
L 115.989064 109.21701 
L 116.031505 108.026289 
L 116.115763 108.621649 
L 116.157893 108.621649 
L 116.242151 106.240206 
L 116.368539 113.979897 
L 116.624609 113.979897 
L 116.778256 105.644845 
L 116.937513 101.47732 
L 116.990599 102.07268 
L 117.073071 102.07268 
L 117.114308 101.47732 
L 117.155544 102.07268 
L 117.19678 104.454124 
L 117.249371 102.668041 
L 117.461542 105.644845 
L 117.567928 102.07268 
L 117.811767 109.21701 
L 117.859429 109.21701 
L 117.90709 108.621649 
L 117.954752 109.21701 
L 118.050959 109.812371 
L 118.196596 113.979897 
L 118.538704 113.979897 
L 118.683574 108.026289 
L 118.784495 109.21701 
L 118.841677 111.598454 
L 118.898858 109.812371 
L 118.942066 108.621649 
L 119.10949 114.575258 
L 119.525666 114.575258 
L 119.654701 115.170619 
L 120.326122 115.170619 
L 120.450127 115.765979 
L 122.962001 115.765979 
L 123.047734 106.835567 
L 123.090601 109.21701 
L 123.133467 107.430928 
L 123.176334 109.812371 
L 123.562133 104.454124 
L 123.647866 102.07268 
L 123.690733 103.263402 
L 123.77259 103.858763 
L 123.977232 102.07268 
L 124.030281 102.668041 
L 124.083329 108.026289 
L 124.136378 106.240206 
L 124.189426 105.644845 
L 124.321185 115.765979 
L 129.481254 115.765979 
L 129.584158 115.170619 
L 129.789965 104.454124 
L 130.027752 111.003093 
L 130.067383 111.003093 
L 130.225908 107.430928 
L 130.400005 102.07268 
L 130.44353 102.668041 
L 130.574103 109.21701 
L 130.625231 108.621649 
L 130.778615 106.240206 
L 130.984986 107.430928 
L 131.062607 106.240206 
L 131.101958 106.835567 
L 131.298713 110.407732 
L 131.416766 116.36134 
L 132.062345 116.36134 
L 132.179432 116.956701 
L 132.791244 116.956701 
L 132.933465 117.552062 
L 135.198539 117.552062 
L 135.320694 118.147423 
L 135.972469 118.147423 
L 136.127631 118.742784 
L 138.391057 118.742784 
L 138.524359 119.338144 
L 139.473366 119.338144 
L 139.579827 112.193814 
L 139.686289 115.170619 
L 139.73952 113.979897 
L 139.952443 115.765979 
L 140.005674 113.384536 
L 140.058905 113.979897 
L 140.165367 113.979897 
L 140.301669 114.575258 
L 140.426276 119.338144 
L 141.106844 119.338144 
L 141.255442 112.789175 
L 141.304975 112.789175 
L 141.404041 113.979897 
L 141.453574 112.789175 
L 141.503107 113.384536 
L 141.746279 119.338144 
L 142.128246 119.338144 
L 142.29847 109.21701 
L 142.383675 109.21701 
L 142.52862 115.170619 
L 142.588361 113.979897 
L 142.648101 115.170619 
L 142.707842 114.575258 
L 142.750349 114.575258 
L 142.835362 115.765979 
L 143.002823 112.789175 
L 143.24247 119.338144 
L 146.439254 119.338144 
L 146.526559 110.407732 
L 146.573174 112.193814 
L 146.666404 116.36134 
L 146.713019 113.384536 
L 146.759634 113.979897 
L 146.946094 116.36134 
L 147.034177 112.193814 
L 147.122259 112.789175 
L 147.254383 113.384536 
L 147.386507 111.598454 
L 147.562672 119.338144 
L 150.025375 119.338144 
L 150.124476 111.598454 
L 150.174026 112.193814 
L 150.268268 111.003093 
L 150.36251 106.240206 
L 150.597102 115.765979 
L 150.689321 113.384536 
L 150.78154 119.338144 
L 153.806829 119.338144 
L 154.034836 117.552062 
L 154.131183 117.552062 
L 154.283417 114.575258 
L 154.435651 115.170619 
L 154.486395 115.170619 
L 154.689374 118.742784 
L 154.785511 120.528866 
L 154.83358 118.742784 
L 154.881649 119.338144 
L 155.459043 119.338144 
L 155.559915 115.170619 
L 155.607314 115.765979 
L 155.702111 115.765979 
L 155.74951 116.36134 
L 155.844307 113.384536 
L 155.891706 114.575258 
L 155.939105 114.575258 
L 155.984259 113.384536 
L 156.029413 115.170619 
L 156.119721 114.575258 
L 156.164875 113.384536 
L 156.310789 106.835567 
L 156.418701 110.407732 
L 156.477975 109.21701 
L 156.53725 109.21701 
L 156.5873 108.026289 
L 156.887599 118.742784 
L 157.049245 119.338144 
L 157.858579 119.338144 
L 157.942366 117.552062 
L 157.984259 118.147423 
L 158.068046 118.742784 
L 158.211038 113.979897 
L 158.261587 113.979897 
L 158.362684 118.742784 
L 158.419285 117.552062 
L 158.528422 117.552062 
L 158.671368 116.956701 
L 158.716574 116.956701 
L 158.852189 116.36134 
L 159.011876 116.36134 
L 159.224791 119.338144 
L 162.877064 119.338144 
L 163.027615 119.933505 
L 165.345003 119.933505 
L 165.502138 120.528866 
L 167.773273 120.528866 
L 167.918328 121.124227 
L 170.179323 121.124227 
L 170.30641 121.719588 
L 172.139524 121.719588 
L 172.265153 122.314948 
L 174.794342 122.314948 
L 174.9544 122.910309 
L 177.318426 122.910309 
L 177.433256 122.314948 
L 177.509809 122.314948 
L 177.624639 122.910309 
L 178.202632 122.910309 
L 178.244738 123.50567 
L 178.371055 113.979897 
L 178.539478 118.147423 
L 178.581584 118.147423 
L 178.707902 116.956701 
L 178.888147 121.124227 
L 179.080213 115.170619 
L 179.12823 116.956701 
L 179.27228 121.124227 
L 179.314449 121.124227 
L 179.356618 120.528866 
L 179.398788 121.124227 
L 179.440957 121.124227 
L 179.567465 122.910309 
L 179.609067 122.314948 
L 179.733872 124.101031 
L 179.983483 124.101031 
L 180.165663 118.742784 
L 180.259381 118.742784 
L 180.3531 119.933505 
L 180.446819 118.742784 
L 180.493678 120.528866 
L 180.578593 119.933505 
L 180.654704 118.742784 
L 180.69276 119.338144 
L 180.768871 119.933505 
L 180.88995 118.147423 
L 181.024854 119.338144 
L 181.069822 119.338144 
L 181.208935 121.719588 
L 181.30308 121.124227 
L 181.397226 121.124227 
L 181.632589 124.696392 
L 181.726734 124.696392 
L 181.913773 115.170619 
L 182.007084 116.956701 
L 182.136764 113.979897 
L 182.219789 116.36134 
L 182.384472 121.124227 
L 182.424619 120.528866 
L 182.504913 120.528866 
L 182.625354 122.314948 
L 182.665501 122.314948 
L 182.816287 120.528866 
L 182.866549 123.50567 
L 182.916953 122.314948 
L 182.967357 121.124227 
L 183.017761 122.314948 
L 183.168973 124.696392 
L 186.379837 124.696392 
L 186.419924 123.50567 
L 186.460011 124.696392 
L 186.995436 124.696392 
L 187.11017 125.291753 
L 189.587413 125.291753 
L 189.691131 120.528866 
L 189.742991 121.124227 
L 190.002287 125.291753 
L 191.045668 125.291753 
L 191.169951 125.887113 
L 192.714944 125.887113 
L 192.841342 126.482474 
L 193.346935 126.482474 
L 193.473334 116.36134 
L 193.515466 117.552062 
L 193.647652 126.482474 
L 193.887251 126.482474 
L 194.03101 122.910309 
L 194.07893 121.719588 
L 194.12685 122.314948 
L 194.27061 124.101031 
L 194.318529 124.101031 
L 194.600689 126.482474 
L 195.068859 126.482474 
L 195.11142 122.910309 
L 195.196541 124.696392 
L 195.320668 126.482474 
L 195.398678 122.314948 
L 195.515694 126.482474 
L 195.905745 126.482474 
L 196.022761 127.077835 
L 197.197432 127.077835 
L 197.312562 127.673196 
L 198.714088 127.673196 
L 198.835254 128.268557 
L 199.180042 128.268557 
L 199.269491 116.956701 
L 199.403665 128.268557 
L 201.917664 128.268557 
L 202.036382 128.863918 
L 203.12783 128.863918 
L 203.258038 129.459278 
L 204.045398 129.459278 
L 204.135229 121.124227 
L 204.180145 122.314948 
L 204.225061 122.910309 
L 204.269976 122.314948 
L 204.458289 121.124227 
L 204.565419 121.124227 
L 204.672549 122.910309 
L 204.726114 122.314948 
L 204.934105 119.338144 
L 204.98558 119.933505 
L 205.037056 120.528866 
L 205.088531 119.338144 
L 205.224591 129.459278 
L 205.436054 129.459278 
L 205.478347 122.314948 
L 205.572419 122.910309 
L 205.727758 121.124227 
L 205.779538 119.933505 
L 205.831318 121.124227 
L 205.934877 119.933505 
L 206.297335 129.459278 
L 206.556234 129.459278 
L 206.711573 130.054639 
L 207.540049 130.054639 
L 207.695388 130.65 
L 207.954287 130.65 
L 207.954287 130.65 
" clip-path="url(#p0f870099bb)" style="fill: none; stroke: #1f77b4; stroke-linecap: square"/>
   </g>
   <g id="patch_3">
    <path d="M 32.184287 142.2 
L 32.184287 3.6 
" style="fill: none; stroke: #000000; stroke-width: 0.5; stroke-linejoin: miter; stroke-linecap: square"/>
   </g>
   <g id="patch_4">
    <path d="M 216.324287 142.2 
L 216.324287 3.6 
" style="fill: none; stroke: #000000; stroke-width: 0.5; stroke-linejoin: miter; stroke-linecap: square"/>
   </g>
   <g id="patch_5">
    <path d="M 32.184287 142.2 
L 216.324287 142.2 
" style="fill: none; stroke: #000000; stroke-width: 0.5; stroke-linejoin: miter; stroke-linecap: square"/>
   </g>
   <g id="patch_6">
    <path d="M 32.184287 3.6 
L 216.324287 3.6 
" style="fill: none; stroke: #000000; stroke-width: 0.5; stroke-linejoin: miter; stroke-linecap: square"/>
   </g>
   <g id="legend_1">
    <g id="patch_7">
     <path d="M 153.522974 32.650926 
L 210.724287 32.650926 
Q 212.324287 32.650926 212.324287 31.050926 
L 212.324287 9.2 
Q 212.324287 7.6 210.724287 7.6 
L 153.522974 7.6 
Q 151.922974 7.6 151.922974 9.2 
L 151.922974 31.050926 
Q 151.922974 32.650926 153.522974 32.650926 
z
" style="fill: #ffffff; opacity: 0.8; stroke: #cccccc; stroke-linejoin: miter"/>
    </g>
    <g id="line2d_13">
     <path d="M 155.122974 13.6 
L 163.122974 13.6 
L 171.122974 13.6 
" style="fill: none; stroke: #1f77b4; stroke-linecap: square"/>
    </g>
    <g id="text_14">
     <!-- Raw Data -->
     <g transform="translate(177.522974 16.4) scale(0.08 -0.08)">
      <defs>
       <path id="NimbusRomNo9L-Regu-52" d="M 4218 121 
C 3974 140 3846 204 3661 421 
L 2342 2035 
C 2771 2118 2963 2194 3174 2366 
C 3379 2532 3501 2800 3501 3100 
C 3501 3374 3418 3610 3251 3795 
C 3008 4057 2477 4224 1875 4224 
L 109 4224 
L 109 4102 
C 589 4051 653 3981 653 3528 
L 653 765 
C 653 236 589 159 109 121 
L 109 0 
L 1882 0 
L 1882 121 
C 1389 153 1306 236 1306 695 
L 1306 1952 
L 1664 1965 
L 3187 0 
L 4218 0 
L 4218 121 
z
M 1306 3756 
C 1306 3935 1376 3987 1632 3987 
C 2432 3987 2803 3711 2803 3110 
C 2803 2790 2669 2521 2438 2399 
C 2144 2233 1920 2195 1306 2182 
L 1306 3756 
z
" transform="scale(0.015625)"/>
       <path id="NimbusRomNo9L-Regu-77" d="M 3654 2880 
L 3654 2783 
C 3872 2739 3936 2695 3936 2587 
C 3936 2492 3898 2340 3827 2168 
L 3251 761 
L 2714 2181 
C 2605 2473 2605 2473 2605 2555 
C 2605 2695 2675 2739 2976 2783 
L 2976 2880 
L 1677 2880 
L 1677 2783 
C 1914 2758 1990 2688 2118 2346 
C 2163 2225 2208 2105 2246 1991 
L 1664 729 
L 1030 2384 
C 1005 2447 992 2511 992 2574 
C 992 2707 1069 2758 1286 2783 
L 1286 2880 
L 134 2880 
L 134 2783 
C 282 2771 333 2707 474 2384 
L 1338 216 
C 1414 25 1466 -64 1504 -64 
C 1536 -64 1587 19 1664 184 
L 2381 1706 
L 2963 209 
C 3053 -26 3078 -64 3117 -64 
C 3162 -64 3194 -7 3296 247 
L 4179 2441 
C 4294 2707 4314 2739 4442 2783 
L 4442 2880 
L 3654 2880 
z
" transform="scale(0.015625)"/>
      </defs>
      <use xlink:href="#NimbusRomNo9L-Regu-52" transform="scale(0.996264)"/>
      <use xlink:href="#NimbusRomNo9L-Regu-61" transform="translate(66.450031 0) scale(0.996264)"/>
      <use xlink:href="#NimbusRomNo9L-Regu-77" transform="translate(109.190207 0) scale(0.996264)"/>
      <use xlink:href="#NimbusRomNo9L-Regu-44" transform="translate(206.026792 0) scale(0.996264)"/>
      <use xlink:href="#NimbusRomNo9L-Regu-61" transform="translate(277.956777 0) scale(0.996264)"/>
      <use xlink:href="#NimbusRomNo9L-Regu-74" transform="translate(322.190346 0) scale(0.996264)"/>
      <use xlink:href="#NimbusRomNo9L-Regu-61" transform="translate(349.885515 0) scale(0.996264)"/>
     </g>
    </g>
    <g id="line2d_14">
     <path d="M 155.122974 24.925463 
L 163.122974 24.925463 
L 171.122974 24.925463 
" style="fill: none; stroke: #ff7f0e; stroke-linecap: square"/>
    </g>
    <g id="text_15">
     <!-- LOWESS -->
     <g transform="translate(177.522974 27.725463) scale(0.08 -0.08)">
      <defs>
       <path id="NimbusRomNo9L-Regu-4c" d="M 3667 1110 
C 3558 868 3469 721 3373 613 
C 3149 364 2797 249 2266 249 
L 1837 249 
C 1370 249 1286 287 1286 511 
L 1286 3528 
C 1286 3981 1376 4070 1882 4102 
L 1882 4224 
L 77 4224 
L 77 4102 
C 550 4064 634 3974 634 3528 
L 634 696 
C 634 249 544 153 77 121 
L 77 0 
L 3520 0 
L 3827 1113 
L 3667 1110 
z
" transform="scale(0.015625)"/>
       <path id="NimbusRomNo9L-Regu-4f" d="M 2310 4352 
C 1088 4352 218 3430 218 2144 
C 218 1542 422 960 768 588 
C 1139 185 1709 -64 2272 -64 
C 3533 -64 4403 832 4403 2118 
C 4403 2752 4218 3296 3866 3680 
C 3462 4121 2925 4352 2310 4352 
z
M 2310 4121 
C 2605 4121 2899 4006 3130 3801 
C 3475 3488 3674 2886 3674 2124 
C 3674 1747 3590 1305 3462 972 
C 3405 812 3296 652 3149 505 
C 2925 281 2637 166 2298 166 
C 2003 166 1715 281 1491 480 
C 1158 774 947 1420 947 2131 
C 947 2784 1126 3405 1395 3705 
C 1645 3981 1958 4121 2310 4121 
z
" transform="scale(0.015625)"/>
       <path id="NimbusRomNo9L-Regu-57" d="M 5965 4224 
L 4698 4224 
L 4698 4102 
C 5024 4070 5139 4000 5139 3828 
C 5139 3694 5101 3529 5037 3350 
L 4237 1191 
L 3392 3363 
C 3379 3395 3322 3535 3315 3554 
C 3258 3688 3219 3809 3219 3879 
C 3219 4032 3366 4095 3712 4102 
L 3712 4224 
L 2003 4224 
L 2003 4102 
C 2368 4095 2432 4038 2650 3529 
L 2861 3007 
L 2176 1210 
L 1254 3605 
C 1210 3720 1184 3828 1184 3898 
C 1184 4038 1274 4083 1600 4102 
L 1600 4224 
L 32 4224 
L 32 4102 
C 358 4070 454 3956 691 3357 
L 1926 -64 
L 2022 -64 
L 3008 2631 
L 4032 -64 
L 4128 -64 
C 4672 1599 4736 1777 5434 3650 
C 5555 3981 5626 4038 5965 4102 
L 5965 4224 
z
" transform="scale(0.015625)"/>
       <path id="NimbusRomNo9L-Regu-53" d="M 2861 4313 
L 2726 4313 
C 2701 4166 2630 4095 2522 4095 
C 2458 4095 2349 4121 2240 4172 
C 2003 4300 1766 4352 1562 4352 
C 1286 4352 1005 4243 794 4057 
C 570 3859 454 3590 454 3257 
C 454 2745 736 2387 1453 2009 
C 1914 1766 2246 1504 2406 1260 
C 2464 1177 2496 1043 2496 889 
C 2496 460 2176 166 1709 166 
C 1139 166 736 518 416 1299 
L 269 1299 
L 461 -58 
L 602 -58 
C 608 38 685 128 781 128 
C 851 128 960 102 1082 57 
C 1325 -13 1581 -64 1837 -64 
C 2573 -64 3142 441 3142 1100 
C 3142 1625 2790 2041 1946 2496 
C 1274 2867 1005 3148 1005 3494 
C 1005 3846 1274 4089 1670 4089 
C 1958 4089 2227 3968 2451 3737 
C 2650 3533 2739 3366 2842 2988 
L 3002 2988 
L 2861 4313 
z
" transform="scale(0.015625)"/>
      </defs>
      <use xlink:href="#NimbusRomNo9L-Regu-4c" transform="scale(0.996264)"/>
      <use xlink:href="#NimbusRomNo9L-Regu-4f" transform="translate(60.871631 0) scale(0.996264)"/>
      <use xlink:href="#NimbusRomNo9L-Regu-57" transform="translate(129.314889 0) scale(0.996264)"/>
      <use xlink:href="#NimbusRomNo9L-Regu-45" transform="translate(223.361658 0) scale(0.996264)"/>
      <use xlink:href="#NimbusRomNo9L-Regu-53" transform="translate(284.233289 0) scale(0.996264)"/>
      <use xlink:href="#NimbusRomNo9L-Regu-53" transform="translate(339.624966 0) scale(0.996264)"/>
     </g>
    </g>
   </g>
   <g id="line2d_15">
    <path d="M 40.554287 43.231127 
L 46.326701 51.887184 
L 52.099115 60.731983 
L 57.871529 69.494068 
L 63.643942 77.812328 
L 69.416356 85.453594 
L 75.18877 92.290465 
L 80.961184 98.149528 
L 86.733598 102.704185 
L 92.506011 105.542457 
L 98.278425 106.823764 
L 104.050839 108.120938 
L 109.823253 109.684861 
L 115.595667 111.187919 
L 121.36808 112.669881 
L 127.140494 114.100267 
L 132.912908 115.413615 
L 138.685322 116.542603 
L 144.457735 117.451695 
L 150.230149 118.148862 
L 156.002563 118.76255 
L 161.774977 119.511874 
L 167.547391 120.431314 
L 173.319804 121.478875 
L 179.092218 122.614747 
L 184.864632 123.805608 
L 190.637046 125.015864 
L 196.40946 126.21429 
L 202.181873 127.390166 
L 207.954287 128.554521 
" clip-path="url(#p0f870099bb)" style="fill: none; stroke: #ff7f0e; stroke-linecap: square"/>
   </g>
  </g>
 </g>
 <defs>
  <clipPath id="p0f870099bb">
   <rect x="32.184287" y="3.6" width="184.14" height="138.6"/>
  </clipPath>
 </defs>
</svg>
