<?xml version="1.0" encoding="utf-8" standalone="no"?>
<!DOCTYPE svg PUBLIC "-//W3C//DTD SVG 1.1//EN"
  "http://www.w3.org/Graphics/SVG/1.1/DTD/svg11.dtd">
<svg xmlns:xlink="http://www.w3.org/1999/xlink" width="215.983499pt" height="167.775951pt" viewBox="0 0 215.983499 167.775951" xmlns="http://www.w3.org/2000/svg" version="1.1">
 <metadata>
  <rdf:RDF xmlns:dc="http://purl.org/dc/elements/1.1/" xmlns:cc="http://creativecommons.org/ns#" xmlns:rdf="http://www.w3.org/1999/02/22-rdf-syntax-ns#">
   <cc:Work>
    <dc:type rdf:resource="http://purl.org/dc/dcmitype/StillImage"/>
    <dc:date>2026-03-28T15:31:03.327667</dc:date>
    <dc:format>image/svg+xml</dc:format>
    <dc:creator>
     <cc:Agent>
      <dc:title>Matplotlib v3.7.0, https://matplotlib.org/</dc:title>
     </cc:Agent>
    </dc:creator>
   </cc:Work>
  </rdf:RDF>
 </metadata>
 <defs>
  <style type="text/css">*{stroke-linejoin: round; stroke-linecap: butt}</style>
 </defs>
 <g id="figure_1">
  <g id="patch_1">
   <path d="M 0 167.775951 
L 215.983499 167.775951 
L 215.983499 0 
L 0 0 
z
" style="fill: #ffffff"/>
  </g>
  <g id="axes_1">
   <g id="patch_2">
    <path d="M 28.243499 142.2 
L 212.383499 142.2 
L 212.383499 3.6 
L 28.243499 3.6 
z
" style="fill: #ffffff"/>
   </g>
   <g id="PathCollection_1">
    <defs>
     <path id="m5904b0cd19" d="M 0 1.5 
C 0.397805 1.5 0.77937 1.341951 1.06066 1.06066 
C 1.341951 0.77937 1.5 0.397805 1.5 0 
C 1.5 -0.397805 1.341951 -0.77937 1.06066 -1.06066 
C 0.77937 -1.341951 0.397805 -1.5 0 -1.5 
C -0.397805 -1.5 -0.77937 -1.341951 -1.06066 -1.06066 
C -1.341951 -0.77937 -1.5 -0.397805 -1.5 0 
C -1.5 0.397805 -1.341951 0.77937 -1.06066 1.06066 
C -0.77937 1.341951 -0.397805 1.5 0 1.5 
z
" style="stroke: #000000"/>
    </defs>
    <g clip-path="url(#p46cad2021f)">
     <use xlink:href="#m5904b0cd19" x="36.613499" y="121.260317" style="stroke: #000000"/>
     <use xlink:href="#m5904b0cd19" x="44.983499" y="72.151789" style="stroke: #000000"/>
     <use xlink:href="#m5904b0cd19" x="53.353499" y="106.441329" style="stroke: #000000"/>
     <use xlink:href="#m5904b0cd19" x="61.723499" y="30.612718" style="stroke: #000000"/>
     <use xlink:href="#m5904b0cd19" x="70.093499" y="113.226243" style="stroke: #000000"/>
     <use xlink:href="#m5904b0cd19" x="78.463499" y="23.4" style="stroke: #000000"/>
     <use xlink:href="#m5904b0cd19" x="86.833499" y="84.466648" style="stroke: #000000"/>
     <use xlink:href="#m5904b0cd19" x="95.203499" y="115.06779" style="stroke: #000000"/>
     <use xlink:href="#m5904b0cd19" x="103.573499" y="116.303688" style="stroke: #000000"/>
     <use xlink:href="#m5904b0cd19" x="111.943499" y="114.101012" style="stroke: #000000"/>
     <use xlink:href="#m5904b0cd19" x="120.313499" y="111.280797" style="stroke: #000000"/>
     <use xlink:href="#m5904b0cd19" x="128.683499" y="111.320765" style="stroke: #000000"/>
     <use xlink:href="#m5904b0cd19" x="137.053499" y="108.0047" style="stroke: #000000"/>
     <use xlink:href="#m5904b0cd19" x="145.423499" y="93.979996" style="stroke: #000000"/>
     <use xlink:href="#m5904b0cd19" x="153.793499" y="102.963471" style="stroke: #000000"/>
     <use xlink:href="#m5904b0cd19" x="162.163499" y="107.663372" style="stroke: #000000"/>
     <use xlink:href="#m5904b0cd19" x="170.533499" y="105.334663" style="stroke: #000000"/>
     <use xlink:href="#m5904b0cd19" x="178.903499" y="109.803261" style="stroke: #000000"/>
     <use xlink:href="#m5904b0cd19" x="187.273499" y="110.237833" style="stroke: #000000"/>
     <use xlink:href="#m5904b0cd19" x="195.643499" y="93.980179" style="stroke: #000000"/>
     <use xlink:href="#m5904b0cd19" x="204.013499" y="94.477356" style="stroke: #000000"/>
    </g>
   </g>
   <g id="PathCollection_2">
    <defs>
     <path id="ma03a3d0832" d="M 0 1.5 
C 0.397805 1.5 0.77937 1.341951 1.06066 1.06066 
C 1.341951 0.77937 1.5 0.397805 1.5 0 
C 1.5 -0.397805 1.341951 -0.77937 1.06066 -1.06066 
C 0.77937 -1.341951 0.397805 -1.5 0 -1.5 
C -0.397805 -1.5 -0.77937 -1.341951 -1.06066 -1.06066 
C -1.341951 -0.77937 -1.5 -0.397805 -1.5 0 
C -1.5 0.397805 -1.341951 0.77937 -1.06066 1.06066 
C -0.77937 1.341951 -0.397805 1.5 0 1.5 
z
" style="stroke: #1f77b4"/>
    </defs>
    <g clip-path="url(#p46cad2021f)">
     <use xlink:href="#ma03a3d0832" x="36.613499" y="121.260317" style="fill: #1f77b4; stroke: #1f77b4"/>
     <use xlink:href="#ma03a3d0832" x="44.983499" y="122.4" style="fill: #1f77b4; stroke: #1f77b4"/>
     <use xlink:href="#ma03a3d0832" x="53.353499" y="113.13245" style="fill: #1f77b4; stroke: #1f77b4"/>
     <use xlink:href="#ma03a3d0832" x="61.723499" y="112.91409" style="fill: #1f77b4; stroke: #1f77b4"/>
     <use xlink:href="#ma03a3d0832" x="70.093499" y="118.114276" style="fill: #1f77b4; stroke: #1f77b4"/>
     <use xlink:href="#ma03a3d0832" x="78.463499" y="115.348663" style="fill: #1f77b4; stroke: #1f77b4"/>
     <use xlink:href="#ma03a3d0832" x="86.833499" y="115.957375" style="fill: #1f77b4; stroke: #1f77b4"/>
     <use xlink:href="#ma03a3d0832" x="95.203499" y="117.336043" style="fill: #1f77b4; stroke: #1f77b4"/>
     <use xlink:href="#ma03a3d0832" x="103.573499" y="117.315693" style="fill: #1f77b4; stroke: #1f77b4"/>
     <use xlink:href="#ma03a3d0832" x="111.943499" y="118.351798" style="fill: #1f77b4; stroke: #1f77b4"/>
     <use xlink:href="#ma03a3d0832" x="120.313499" y="117.428875" style="fill: #1f77b4; stroke: #1f77b4"/>
     <use xlink:href="#ma03a3d0832" x="128.683499" y="111.320765" style="fill: #1f77b4; stroke: #1f77b4"/>
     <use xlink:href="#ma03a3d0832" x="137.053499" y="116.818288" style="fill: #1f77b4; stroke: #1f77b4"/>
     <use xlink:href="#ma03a3d0832" x="145.423499" y="111.838886" style="fill: #1f77b4; stroke: #1f77b4"/>
     <use xlink:href="#ma03a3d0832" x="153.793499" y="110.802233" style="fill: #1f77b4; stroke: #1f77b4"/>
     <use xlink:href="#ma03a3d0832" x="162.163499" y="116.899184" style="fill: #1f77b4; stroke: #1f77b4"/>
     <use xlink:href="#ma03a3d0832" x="170.533499" y="105.334663" style="fill: #1f77b4; stroke: #1f77b4"/>
     <use xlink:href="#ma03a3d0832" x="178.903499" y="116.629515" style="fill: #1f77b4; stroke: #1f77b4"/>
     <use xlink:href="#ma03a3d0832" x="187.273499" y="110.237833" style="fill: #1f77b4; stroke: #1f77b4"/>
     <use xlink:href="#ma03a3d0832" x="195.643499" y="107.514017" style="fill: #1f77b4; stroke: #1f77b4"/>
     <use xlink:href="#ma03a3d0832" x="204.013499" y="104.977557" style="fill: #1f77b4; stroke: #1f77b4"/>
    </g>
   </g>
   <g id="matplotlib.axis_1">
    <g id="xtick_1">
     <g id="line2d_1">
      <defs>
       <path id="mc76dda3cea" d="M 0 0 
L 0 2 
" style="stroke: #000000; stroke-width: 0.5"/>
      </defs>
      <g>
       <use xlink:href="#mc76dda3cea" x="36.613499" y="142.2" style="stroke: #000000; stroke-width: 0.5"/>
      </g>
     </g>
     <g id="text_1">
      <!-- $\mathdefault{0}$ -->
      <g transform="translate(34.870037 152.428195) scale(0.07 -0.07)">
       <defs>
        <path id="NimbusRomNo9L-Regu-30" d="M 1626 4352 
C 1274 4352 1005 4243 768 4019 
C 397 3661 154 2924 154 2176 
C 154 1478 365 729 666 371 
C 902 89 1229 -64 1600 -64 
C 1926 -64 2202 44 2432 268 
C 2803 620 3046 1363 3046 2137 
C 3046 3449 2464 4352 1626 4352 
z
M 1606 4185 
C 2144 4185 2432 3462 2432 2124 
C 2432 787 2150 102 1600 102 
C 1050 102 768 787 768 2118 
C 768 3475 1056 4185 1606 4185 
z
" transform="scale(0.015625)"/>
       </defs>
       <use xlink:href="#NimbusRomNo9L-Regu-30" transform="scale(0.996264)"/>
      </g>
     </g>
    </g>
    <g id="xtick_2">
     <g id="line2d_2">
      <g>
       <use xlink:href="#mc76dda3cea" x="70.093499" y="142.2" style="stroke: #000000; stroke-width: 0.5"/>
      </g>
     </g>
     <g id="text_2">
      <!-- $\mathdefault{20}$ -->
      <g transform="translate(66.606575 152.428195) scale(0.07 -0.07)">
       <defs>
        <path id="NimbusRomNo9L-Regu-32" d="M 3040 879 
L 2957 912 
C 2720 544 2637 486 2349 486 
L 819 486 
L 1894 1621 
C 2464 2221 2714 2711 2714 3214 
C 2714 3858 2195 4352 1530 4352 
C 1178 4352 845 4211 608 3955 
C 403 3736 307 3530 198 3072 
L 333 3039 
C 589 3671 819 3878 1261 3878 
C 1798 3878 2163 3510 2163 2969 
C 2163 2466 1869 1866 1331 1292 
L 192 76 
L 192 0 
L 2688 0 
L 3040 879 
z
" transform="scale(0.015625)"/>
       </defs>
       <use xlink:href="#NimbusRomNo9L-Regu-32" transform="scale(0.996264)"/>
       <use xlink:href="#NimbusRomNo9L-Regu-30" transform="translate(49.8132 0) scale(0.996264)"/>
      </g>
     </g>
    </g>
    <g id="xtick_3">
     <g id="line2d_3">
      <g>
       <use xlink:href="#mc76dda3cea" x="103.573499" y="142.2" style="stroke: #000000; stroke-width: 0.5"/>
      </g>
     </g>
     <g id="text_3">
      <!-- $\mathdefault{40}$ -->
      <g transform="translate(100.086575 152.428195) scale(0.07 -0.07)">
       <defs>
        <path id="NimbusRomNo9L-Regu-34" d="M 3021 1497 
L 2368 1497 
L 2368 4352 
L 2086 4352 
L 77 1497 
L 77 1088 
L 1875 1088 
L 1875 0 
L 2368 0 
L 2368 1088 
L 3021 1088 
L 3021 1497 
z
M 1869 1497 
L 333 1497 
L 1869 3697 
L 1869 1497 
z
" transform="scale(0.015625)"/>
       </defs>
       <use xlink:href="#NimbusRomNo9L-Regu-34" transform="scale(0.996264)"/>
       <use xlink:href="#NimbusRomNo9L-Regu-30" transform="translate(49.8132 0) scale(0.996264)"/>
      </g>
     </g>
    </g>
    <g id="xtick_4">
     <g id="line2d_4">
      <g>
       <use xlink:href="#mc76dda3cea" x="137.053499" y="142.2" style="stroke: #000000; stroke-width: 0.5"/>
      </g>
     </g>
     <g id="text_4">
      <!-- $\mathdefault{60}$ -->
      <g transform="translate(133.566575 152.428195) scale(0.07 -0.07)">
       <defs>
        <path id="NimbusRomNo9L-Regu-36" d="M 2854 4390 
C 2125 4326 1754 4204 1286 3878 
C 595 3385 218 2655 218 1801 
C 218 1248 390 688 666 369 
C 909 89 1254 -64 1651 -64 
C 2445 -64 2995 541 2995 1420 
C 2995 2234 2528 2752 1792 2752 
C 1510 2752 1376 2707 973 2463 
C 1146 3430 1862 4121 2867 4288 
L 2854 4390 
z
M 1549 2457 
C 2099 2457 2419 1999 2419 1203 
C 2419 503 2170 115 1722 115 
C 1158 115 813 713 813 1700 
C 813 2024 864 2203 992 2298 
C 1126 2400 1325 2457 1549 2457 
z
" transform="scale(0.015625)"/>
       </defs>
       <use xlink:href="#NimbusRomNo9L-Regu-36" transform="scale(0.996264)"/>
       <use xlink:href="#NimbusRomNo9L-Regu-30" transform="translate(49.8132 0) scale(0.996264)"/>
      </g>
     </g>
    </g>
    <g id="xtick_5">
     <g id="line2d_5">
      <g>
       <use xlink:href="#mc76dda3cea" x="170.533499" y="142.2" style="stroke: #000000; stroke-width: 0.5"/>
      </g>
     </g>
     <g id="text_5">
      <!-- $\mathdefault{80}$ -->
      <g transform="translate(167.046575 152.428195) scale(0.07 -0.07)">
       <defs>
        <path id="NimbusRomNo9L-Regu-38" d="M 1856 2400 
C 2490 2739 2714 3008 2714 3443 
C 2714 3968 2253 4352 1613 4352 
C 915 4352 397 3923 397 3341 
C 397 2924 518 2739 1190 2150 
C 499 1625 358 1427 358 992 
C 358 371 864 -64 1587 -64 
C 2355 -64 2848 358 2848 1017 
C 2848 1510 2630 1824 1856 2400 
z
M 1741 1740 
C 2208 1408 2362 1177 2362 819 
C 2362 403 2074 115 1658 115 
C 1171 115 845 486 845 1043 
C 845 1452 986 1721 1357 2022 
L 1741 1740 
z
M 1670 2515 
C 1101 2886 870 3180 870 3539 
C 870 3910 1158 4172 1562 4172 
C 1997 4172 2272 3891 2272 3449 
C 2272 3084 2093 2796 1728 2553 
C 1696 2534 1696 2534 1670 2515 
z
" transform="scale(0.015625)"/>
       </defs>
       <use xlink:href="#NimbusRomNo9L-Regu-38" transform="scale(0.996264)"/>
       <use xlink:href="#NimbusRomNo9L-Regu-30" transform="translate(49.8132 0) scale(0.996264)"/>
      </g>
     </g>
    </g>
    <g id="xtick_6">
     <g id="line2d_6">
      <g>
       <use xlink:href="#mc76dda3cea" x="204.013499" y="142.2" style="stroke: #000000; stroke-width: 0.5"/>
      </g>
     </g>
     <g id="text_6">
      <!-- $\mathdefault{100}$ -->
      <g transform="translate(198.783113 152.428195) scale(0.07 -0.07)">
       <defs>
        <path id="NimbusRomNo9L-Regu-31" d="M 1862 4352 
L 710 3776 
L 710 3686 
C 787 3718 858 3743 883 3756 
C 998 3801 1107 3826 1171 3826 
C 1306 3826 1363 3731 1363 3525 
L 1363 599 
C 1363 386 1312 238 1210 179 
C 1114 121 1024 102 755 96 
L 755 0 
L 2522 0 
L 2522 96 
C 2016 102 1914 167 1914 477 
L 1914 4339 
L 1862 4352 
z
" transform="scale(0.015625)"/>
       </defs>
       <use xlink:href="#NimbusRomNo9L-Regu-31" transform="scale(0.996264)"/>
       <use xlink:href="#NimbusRomNo9L-Regu-30" transform="translate(49.8132 0) scale(0.996264)"/>
       <use xlink:href="#NimbusRomNo9L-Regu-30" transform="translate(99.626401 0) scale(0.996264)"/>
      </g>
     </g>
    </g>
    <g id="text_7">
     <!-- \% total distance -->
     <g transform="translate(98.039361 162.666171) scale(0.07 -0.07)">
      <defs>
       <path id="NimbusRomNo9L-Regu-25" d="M 4282 2380 
C 3558 2380 2874 1630 2874 827 
C 2874 326 3181 0 3642 0 
C 3930 0 4166 102 4390 326 
C 4730 673 4941 1193 4941 1694 
C 4941 2131 4698 2380 4282 2380 
z
M 4326 2176 
C 4570 2176 4774 1944 4774 1662 
C 4774 1296 4614 859 4371 558 
C 4166 301 3981 192 3750 192 
C 3520 192 3360 358 3360 602 
C 3360 943 3539 1469 3776 1803 
C 3949 2060 4128 2176 4326 2176 
z
M 4058 4352 
L 3808 4352 
C 3462 4017 3206 3904 2810 3904 
C 2554 3904 2406 3950 2253 4084 
C 2086 4191 2003 4224 1805 4224 
C 1075 4224 390 3487 390 2671 
C 390 2221 730 1856 1146 1856 
C 1421 1856 1709 1984 1920 2208 
C 2253 2549 2458 3056 2458 3525 
C 2458 3615 2445 3692 2413 3807 
C 2528 3763 2643 3743 2829 3743 
C 3110 3743 3277 3788 3533 3930 
L 1286 -64 
L 1594 -64 
L 4058 4352 
z
M 2240 3862 
C 2278 3733 2298 3636 2298 3546 
C 2298 2816 1773 2073 1254 2073 
C 1030 2073 877 2235 877 2467 
C 877 2738 1005 3177 1178 3500 
C 1363 3814 1606 4031 1805 4031 
C 1837 4031 1850 4025 1888 3993 
C 1978 3910 2054 3878 2240 3827 
L 2240 3862 
z
" transform="scale(0.015625)"/>
       <path id="NimbusRomNo9L-Regu-74" d="M 1632 2880 
L 986 2880 
L 986 3622 
C 986 3686 979 3705 941 3705 
C 896 3648 858 3590 813 3526 
C 570 3174 294 2867 192 2841 
C 122 2796 83 2751 83 2719 
C 83 2700 90 2687 109 2675 
L 448 2675 
L 448 748 
C 448 211 640 -64 1018 -64 
C 1331 -64 1574 89 1786 422 
L 1702 492 
C 1568 332 1459 268 1318 268 
C 1082 268 986 441 986 844 
L 986 2675 
L 1632 2675 
L 1632 2880 
z
" transform="scale(0.015625)"/>
       <path id="NimbusRomNo9L-Regu-6f" d="M 1600 2944 
C 768 2944 186 2329 186 1446 
C 186 582 781 -64 1587 -64 
C 2394 -64 3008 614 3008 1497 
C 3008 2336 2419 2944 1600 2944 
z
M 1517 2764 
C 2054 2764 2432 2150 2432 1273 
C 2432 550 2144 115 1664 115 
C 1414 115 1178 268 1043 524 
C 864 857 762 1305 762 1760 
C 762 2368 1062 2764 1517 2764 
z
" transform="scale(0.015625)"/>
       <path id="NimbusRomNo9L-Regu-61" d="M 2829 422 
C 2720 332 2643 300 2547 300 
C 2400 300 2355 390 2355 672 
L 2355 1920 
C 2355 2252 2323 2438 2227 2592 
C 2086 2822 1811 2944 1434 2944 
C 832 2944 358 2630 358 2227 
C 358 2080 486 1952 634 1952 
C 787 1952 922 2080 922 2220 
C 922 2246 915 2278 909 2323 
C 896 2380 890 2432 890 2476 
C 890 2649 1094 2790 1350 2790 
C 1664 2790 1837 2604 1837 2259 
L 1837 1868 
C 851 1472 742 1420 467 1177 
C 326 1049 237 832 237 620 
C 237 217 518 -64 909 -64 
C 1190 -64 1453 70 1843 403 
C 1875 70 1990 -64 2253 -64 
C 2470 -64 2605 12 2829 256 
L 2829 422 
z
M 1837 787 
C 1837 588 1805 531 1670 454 
C 1517 364 1338 307 1203 307 
C 979 307 800 524 800 800 
L 800 825 
C 800 1203 1062 1433 1837 1715 
L 1837 787 
z
" transform="scale(0.015625)"/>
       <path id="NimbusRomNo9L-Regu-6c" d="M 122 3987 
L 160 3987 
C 230 3993 307 4000 358 4000 
C 563 4000 627 3910 627 3609 
L 627 556 
C 627 211 538 128 134 96 
L 134 0 
L 1645 0 
L 1645 96 
C 1242 121 1165 185 1165 537 
L 1165 4358 
L 1139 4371 
C 806 4262 563 4198 122 4089 
L 122 3987 
z
" transform="scale(0.015625)"/>
       <path id="NimbusRomNo9L-Regu-64" d="M 2202 -64 
L 3142 268 
L 3142 371 
C 3027 364 3014 364 2995 364 
C 2765 364 2714 435 2714 729 
L 2714 4358 
L 2682 4371 
C 2374 4262 2150 4198 1741 4089 
L 1741 3987 
C 1792 3993 1830 3993 1882 3993 
C 2118 3993 2176 3929 2176 3667 
L 2176 2668 
C 1933 2873 1760 2944 1504 2944 
C 768 2944 173 2220 173 1312 
C 173 492 653 -64 1357 -64 
C 1715 -64 1958 64 2176 364 
L 2176 -45 
L 2202 -64 
z
M 2176 652 
C 2176 608 2131 531 2067 460 
C 1952 332 1792 268 1606 268 
C 1075 268 723 780 723 1568 
C 723 2291 1037 2764 1523 2764 
C 1862 2764 2176 2464 2176 2124 
L 2176 652 
z
" transform="scale(0.015625)"/>
       <path id="NimbusRomNo9L-Regu-69" d="M 1120 2944 
L 128 2592 
L 128 2496 
L 179 2502 
C 256 2515 339 2521 397 2521 
C 550 2521 608 2419 608 2137 
L 608 652 
C 608 192 544 121 102 96 
L 102 0 
L 1619 0 
L 1619 96 
C 1197 128 1146 192 1146 652 
L 1146 2924 
L 1120 2944 
z
M 819 4352 
C 646 4352 499 4204 499 4025 
C 499 3846 640 3699 819 3699 
C 1005 3699 1152 3839 1152 4025 
C 1152 4204 1005 4352 819 4352 
z
" transform="scale(0.015625)"/>
       <path id="NimbusRomNo9L-Regu-73" d="M 2016 2009 
L 1990 2880 
L 1920 2880 
L 1907 2867 
C 1850 2822 1843 2815 1818 2815 
C 1779 2815 1715 2828 1645 2860 
C 1504 2918 1363 2944 1197 2944 
C 691 2944 326 2617 326 2155 
C 326 1796 531 1539 1075 1231 
L 1446 1019 
C 1670 891 1779 737 1779 538 
C 1779 256 1574 76 1248 76 
C 1030 76 832 160 710 301 
C 576 461 518 609 435 974 
L 333 974 
L 333 -26 
L 416 -26 
C 461 38 486 51 563 51 
C 621 51 710 38 858 0 
C 1037 -39 1210 -64 1325 -64 
C 1818 -64 2227 307 2227 756 
C 2227 1077 2074 1289 1690 1520 
L 998 1930 
C 819 2033 723 2193 723 2366 
C 723 2623 922 2803 1216 2803 
C 1581 2803 1773 2585 1920 2014 
L 2016 2009 
z
" transform="scale(0.015625)"/>
       <path id="NimbusRomNo9L-Regu-6e" d="M 102 2547 
C 141 2566 205 2572 275 2572 
C 454 2572 512 2476 512 2163 
L 512 576 
C 512 211 442 121 115 96 
L 115 0 
L 1472 0 
L 1472 96 
C 1146 121 1050 198 1050 428 
L 1050 2227 
C 1357 2515 1498 2591 1709 2591 
C 2022 2591 2176 2393 2176 1971 
L 2176 633 
C 2176 230 2093 121 1773 96 
L 1773 0 
L 3104 0 
L 3104 96 
C 2790 128 2714 204 2714 518 
L 2714 1984 
C 2714 2585 2432 2944 1958 2944 
C 1664 2944 1466 2835 1030 2425 
L 1030 2931 
L 986 2944 
C 672 2828 454 2758 102 2655 
L 102 2547 
z
" transform="scale(0.015625)"/>
       <path id="NimbusRomNo9L-Regu-63" d="M 2547 998 
C 2240 550 2010 396 1645 396 
C 1062 396 653 908 653 1644 
C 653 2303 1005 2758 1523 2758 
C 1754 2758 1837 2687 1901 2451 
L 1939 2310 
C 1990 2131 2106 2015 2240 2015 
C 2406 2015 2547 2137 2547 2284 
C 2547 2643 2099 2944 1562 2944 
C 1248 2944 922 2815 659 2585 
C 339 2303 160 1868 160 1363 
C 160 531 666 -64 1376 -64 
C 1664 -64 1920 38 2150 236 
C 2323 390 2445 563 2637 940 
L 2547 998 
z
" transform="scale(0.015625)"/>
       <path id="NimbusRomNo9L-Regu-65" d="M 2611 1052 
C 2304 564 2029 377 1619 377 
C 1254 377 979 564 794 930 
C 678 1174 634 1386 621 1779 
L 2592 1779 
C 2541 2193 2477 2377 2317 2580 
C 2125 2809 1830 2944 1498 2944 
C 1178 2944 877 2828 634 2612 
C 333 2351 160 1900 160 1374 
C 160 486 621 -64 1357 -64 
C 1965 -64 2445 313 2714 1007 
L 2611 1052 
z
M 634 1984 
C 704 2478 922 2713 1312 2713 
C 1702 2713 1856 2535 1939 1984 
L 634 1984 
z
" transform="scale(0.015625)"/>
      </defs>
      <use xlink:href="#NimbusRomNo9L-Regu-25" transform="scale(0.996264)"/>
      <use xlink:href="#NimbusRomNo9L-Regu-74" transform="translate(107.89503 0) scale(0.996264)"/>
      <use xlink:href="#NimbusRomNo9L-Regu-6f" transform="translate(135.5902 0) scale(0.996264)"/>
      <use xlink:href="#NimbusRomNo9L-Regu-74" transform="translate(185.403401 0) scale(0.996264)"/>
      <use xlink:href="#NimbusRomNo9L-Regu-61" transform="translate(213.09857 0) scale(0.996264)"/>
      <use xlink:href="#NimbusRomNo9L-Regu-6c" transform="translate(257.332139 0) scale(0.996264)"/>
      <use xlink:href="#NimbusRomNo9L-Regu-64" transform="translate(309.933909 0) scale(0.996264)"/>
      <use xlink:href="#NimbusRomNo9L-Regu-69" transform="translate(359.747109 0) scale(0.996264)"/>
      <use xlink:href="#NimbusRomNo9L-Regu-73" transform="translate(387.442279 0) scale(0.996264)"/>
      <use xlink:href="#NimbusRomNo9L-Regu-74" transform="translate(426.195985 0) scale(0.996264)"/>
      <use xlink:href="#NimbusRomNo9L-Regu-61" transform="translate(453.891155 0) scale(0.996264)"/>
      <use xlink:href="#NimbusRomNo9L-Regu-6e" transform="translate(498.124723 0) scale(0.996264)"/>
      <use xlink:href="#NimbusRomNo9L-Regu-63" transform="translate(547.937924 0) scale(0.996264)"/>
      <use xlink:href="#NimbusRomNo9L-Regu-65" transform="translate(592.171493 0) scale(0.996264)"/>
     </g>
    </g>
   </g>
   <g id="matplotlib.axis_2">
    <g id="ytick_1">
     <g id="line2d_7">
      <defs>
       <path id="m2fa02d3e60" d="M 0 0 
L -2 0 
" style="stroke: #000000; stroke-width: 0.5"/>
      </defs>
      <g>
       <use xlink:href="#m2fa02d3e60" x="28.243499" y="124.938381" style="stroke: #000000; stroke-width: 0.5"/>
      </g>
     </g>
     <g id="text_8">
      <!-- $\mathdefault{0.0}$ -->
      <g transform="translate(13.837975 127.302478) scale(0.07 -0.07)">
       <defs>
        <path id="CMMI10-3a" d="M 1229 339 
C 1229 524 1075 678 890 678 
C 704 678 550 524 550 339 
C 550 153 704 0 890 0 
C 1075 0 1229 153 1229 339 
z
" transform="scale(0.015625)"/>
       </defs>
       <use xlink:href="#NimbusRomNo9L-Regu-30" transform="scale(0.996264)"/>
       <use xlink:href="#CMMI10-3a" transform="translate(49.8132 0) scale(0.996264)"/>
       <use xlink:href="#NimbusRomNo9L-Regu-30" transform="translate(77.408707 0) scale(0.996264)"/>
      </g>
     </g>
    </g>
    <g id="ytick_2">
     <g id="line2d_8">
      <g>
       <use xlink:href="#m2fa02d3e60" x="28.243499" y="102.073383" style="stroke: #000000; stroke-width: 0.5"/>
      </g>
     </g>
     <g id="text_9">
      <!-- $\mathdefault{0.5}$ -->
      <g transform="translate(13.837975 104.43748) scale(0.07 -0.07)">
       <defs>
        <path id="NimbusRomNo9L-Regu-35" d="M 1158 3718 
L 2413 3718 
C 2515 3718 2541 3731 2560 3775 
L 2803 4345 
L 2746 4390 
C 2650 4256 2586 4224 2451 4224 
L 1114 4224 
L 416 2717 
C 410 2705 410 2698 410 2686 
C 410 2654 435 2635 486 2635 
C 691 2635 947 2591 1210 2508 
C 1946 2274 2285 1882 2285 1255 
C 2285 647 1894 172 1395 172 
C 1267 172 1158 217 966 356 
C 762 502 614 565 480 565 
C 294 565 205 489 205 331 
C 205 89 506 -64 986 -64 
C 1523 -64 1984 108 2304 432 
C 2598 717 2733 1078 2733 1559 
C 2733 2015 2611 2306 2291 2622 
C 2010 2901 1645 3047 890 3180 
L 1158 3718 
z
" transform="scale(0.015625)"/>
       </defs>
       <use xlink:href="#NimbusRomNo9L-Regu-30" transform="scale(0.996264)"/>
       <use xlink:href="#CMMI10-3a" transform="translate(49.8132 0) scale(0.996264)"/>
       <use xlink:href="#NimbusRomNo9L-Regu-35" transform="translate(77.408707 0) scale(0.996264)"/>
      </g>
     </g>
    </g>
    <g id="ytick_3">
     <g id="line2d_9">
      <g>
       <use xlink:href="#m2fa02d3e60" x="28.243499" y="79.208384" style="stroke: #000000; stroke-width: 0.5"/>
      </g>
     </g>
     <g id="text_10">
      <!-- $\mathdefault{1.0}$ -->
      <g transform="translate(13.837975 81.572482) scale(0.07 -0.07)">
       <use xlink:href="#NimbusRomNo9L-Regu-31" transform="scale(0.996264)"/>
       <use xlink:href="#CMMI10-3a" transform="translate(49.8132 0) scale(0.996264)"/>
       <use xlink:href="#NimbusRomNo9L-Regu-30" transform="translate(77.408707 0) scale(0.996264)"/>
      </g>
     </g>
    </g>
    <g id="ytick_4">
     <g id="line2d_10">
      <g>
       <use xlink:href="#m2fa02d3e60" x="28.243499" y="56.343386" style="stroke: #000000; stroke-width: 0.5"/>
      </g>
     </g>
     <g id="text_11">
      <!-- $\mathdefault{1.5}$ -->
      <g transform="translate(13.837975 58.707484) scale(0.07 -0.07)">
       <use xlink:href="#NimbusRomNo9L-Regu-31" transform="scale(0.996264)"/>
       <use xlink:href="#CMMI10-3a" transform="translate(49.8132 0) scale(0.996264)"/>
       <use xlink:href="#NimbusRomNo9L-Regu-35" transform="translate(77.408707 0) scale(0.996264)"/>
      </g>
     </g>
    </g>
    <g id="ytick_5">
     <g id="line2d_11">
      <g>
       <use xlink:href="#m2fa02d3e60" x="28.243499" y="33.478388" style="stroke: #000000; stroke-width: 0.5"/>
      </g>
     </g>
     <g id="text_12">
      <!-- $\mathdefault{2.0}$ -->
      <g transform="translate(13.837975 35.842486) scale(0.07 -0.07)">
       <use xlink:href="#NimbusRomNo9L-Regu-32" transform="scale(0.996264)"/>
       <use xlink:href="#CMMI10-3a" transform="translate(49.8132 0) scale(0.996264)"/>
       <use xlink:href="#NimbusRomNo9L-Regu-30" transform="translate(77.408707 0) scale(0.996264)"/>
      </g>
     </g>
    </g>
    <g id="ytick_6">
     <g id="line2d_12">
      <g>
       <use xlink:href="#m2fa02d3e60" x="28.243499" y="10.61339" style="stroke: #000000; stroke-width: 0.5"/>
      </g>
     </g>
     <g id="text_13">
      <!-- $\mathdefault{2.5}$ -->
      <g transform="translate(13.837975 12.977488) scale(0.07 -0.07)">
       <use xlink:href="#NimbusRomNo9L-Regu-32" transform="scale(0.996264)"/>
       <use xlink:href="#CMMI10-3a" transform="translate(49.8132 0) scale(0.996264)"/>
       <use xlink:href="#NimbusRomNo9L-Regu-35" transform="translate(77.408707 0) scale(0.996264)"/>
      </g>
     </g>
    </g>
    <g id="text_14">
     <!-- Width ($km$) -->
     <g transform="translate(8.328195 88.796709) rotate(-90) scale(0.07 -0.07)">
      <defs>
       <path id="NimbusRomNo9L-Regu-57" d="M 5965 4224 
L 4698 4224 
L 4698 4102 
C 5024 4070 5139 4000 5139 3828 
C 5139 3694 5101 3529 5037 3350 
L 4237 1191 
L 3392 3363 
C 3379 3395 3322 3535 3315 3554 
C 3258 3688 3219 3809 3219 3879 
C 3219 4032 3366 4095 3712 4102 
L 3712 4224 
L 2003 4224 
L 2003 4102 
C 2368 4095 2432 4038 2650 3529 
L 2861 3007 
L 2176 1210 
L 1254 3605 
C 1210 3720 1184 3828 1184 3898 
C 1184 4038 1274 4083 1600 4102 
L 1600 4224 
L 32 4224 
L 32 4102 
C 358 4070 454 3956 691 3357 
L 1926 -64 
L 2022 -64 
L 3008 2631 
L 4032 -64 
L 4128 -64 
C 4672 1599 4736 1777 5434 3650 
C 5555 3981 5626 4038 5965 4102 
L 5965 4224 
z
" transform="scale(0.015625)"/>
       <path id="NimbusRomNo9L-Regu-68" d="M 1005 2195 
C 1274 2489 1466 2598 1715 2598 
C 2035 2598 2195 2368 2195 1920 
L 2195 652 
C 2195 217 2131 134 1760 96 
L 1760 0 
L 3117 0 
L 3117 96 
C 2771 160 2733 211 2733 652 
L 2733 1926 
C 2733 2598 2464 2944 1946 2944 
C 1568 2944 1299 2790 1005 2406 
L 1005 4352 
L 973 4371 
C 755 4294 595 4243 237 4140 
L 64 4089 
L 64 3987 
C 90 3993 109 3993 141 3993 
C 416 3993 467 3942 467 3667 
L 467 652 
C 467 204 429 147 58 96 
L 58 0 
L 1440 0 
L 1440 96 
C 1069 134 1005 211 1005 652 
L 1005 2195 
z
" transform="scale(0.015625)"/>
       <path id="NimbusRomNo9L-Regu-28" d="M 1888 4352 
C 1414 4044 1222 3878 986 3583 
C 531 3027 307 2387 307 1638 
C 307 825 544 198 1107 -455 
C 1370 -762 1536 -903 1869 -1108 
L 1946 -1006 
C 1434 -602 1254 -378 1082 102 
C 928 530 858 1017 858 1657 
C 858 2329 941 2854 1114 3251 
C 1293 3647 1485 3878 1946 4249 
L 1888 4352 
z
" transform="scale(0.015625)"/>
       <path id="NimbusRomNo9L-ReguItal-6b" d="M 2650 704 
L 2554 537 
C 2438 339 2362 268 2266 268 
C 2131 268 1997 480 1747 1094 
C 1715 1177 1619 1408 1510 1657 
C 2451 2496 2650 2624 2950 2643 
L 2950 2745 
L 1779 2745 
L 1779 2643 
L 1882 2643 
C 2042 2643 2131 2598 2131 2528 
C 2131 2400 1811 2086 1216 1632 
C 1126 1561 1050 1497 941 1420 
L 1709 4345 
L 1677 4377 
C 1299 4294 1056 4249 678 4205 
L 678 4102 
C 986 4109 1107 4064 1114 3942 
C 1101 3833 1056 3661 973 3366 
C 947 3277 928 3206 915 3155 
L 902 3097 
L 90 6 
L 570 6 
L 877 1158 
L 1146 1363 
C 1248 1081 1414 691 1530 460 
C 1734 57 1850 -64 2035 -64 
C 2291 -64 2458 96 2746 633 
L 2650 704 
z
" transform="scale(0.015625)"/>
       <path id="NimbusRomNo9L-ReguItal-6d" d="M 4410 742 
C 4346 665 4294 601 4275 575 
C 4096 345 3962 236 3866 236 
C 3814 236 3782 275 3782 339 
C 3782 371 3808 473 3846 627 
L 4282 2233 
C 4288 2259 4301 2374 4301 2412 
C 4301 2643 4141 2816 3923 2816 
C 3802 2816 3674 2771 3520 2675 
C 3206 2470 2944 2163 2502 1459 
C 2662 1945 2758 2310 2758 2431 
C 2758 2655 2611 2816 2394 2816 
C 2003 2816 1555 2393 966 1465 
L 1338 2803 
L 1318 2816 
C 960 2739 826 2713 294 2617 
L 294 2515 
L 454 2515 
C 621 2515 704 2470 704 2374 
C 704 2303 557 1721 326 908 
C 179 384 160 320 77 -7 
L 557 -7 
C 864 1011 960 1247 1178 1580 
C 1536 2124 1920 2483 2138 2483 
C 2221 2483 2266 2425 2266 2323 
C 2266 2265 2061 1491 1658 -7 
L 2138 -7 
C 2394 991 2522 1311 2848 1766 
C 3162 2201 3482 2483 3667 2483 
C 3738 2483 3795 2419 3795 2348 
C 3795 2316 3782 2239 3750 2124 
L 3379 652 
C 3322 416 3296 294 3296 230 
C 3296 38 3386 -64 3552 -64 
C 3853 -64 4134 147 4474 620 
L 4506 665 
L 4410 742 
z
" transform="scale(0.015625)"/>
       <path id="NimbusRomNo9L-Regu-29" d="M 243 -1108 
C 717 -801 909 -634 1146 -340 
C 1600 217 1824 857 1824 1606 
C 1824 2425 1587 3046 1024 3699 
C 762 4006 595 4147 262 4352 
L 186 4249 
C 698 3846 870 3622 1050 3142 
C 1203 2713 1274 2227 1274 1587 
C 1274 921 1190 390 1018 -1 
C 838 -404 646 -634 186 -1006 
L 243 -1108 
z
" transform="scale(0.015625)"/>
      </defs>
      <use xlink:href="#NimbusRomNo9L-Regu-57" transform="scale(0.996264)"/>
      <use xlink:href="#NimbusRomNo9L-Regu-69" transform="translate(90.062656 0) scale(0.996264)"/>
      <use xlink:href="#NimbusRomNo9L-Regu-64" transform="translate(117.757825 0) scale(0.996264)"/>
      <use xlink:href="#NimbusRomNo9L-Regu-74" transform="translate(167.571026 0) scale(0.996264)"/>
      <use xlink:href="#NimbusRomNo9L-Regu-68" transform="translate(195.266195 0) scale(0.996264)"/>
      <use xlink:href="#NimbusRomNo9L-Regu-28" transform="translate(269.985996 0) scale(0.996264)"/>
      <use xlink:href="#NimbusRomNo9L-ReguItal-6b" transform="translate(303.161226 0) scale(0.996264)"/>
      <use xlink:href="#NimbusRomNo9L-ReguItal-6d" transform="translate(349.087604 0) scale(0.996264)"/>
      <use xlink:href="#NimbusRomNo9L-Regu-29" transform="translate(421.017589 0) scale(0.996264)"/>
     </g>
    </g>
   </g>
   <g id="line2d_13">
    <path d="M 36.613499 86.021311 
L 44.983499 87.162408 
L 53.353499 88.303505 
L 61.723499 89.444602 
L 70.093499 90.585699 
L 78.463499 91.726796 
L 86.833499 92.867894 
L 95.203499 94.008991 
L 103.573499 95.150088 
L 111.943499 96.291185 
L 120.313499 97.432282 
L 128.683499 98.573379 
L 137.053499 99.714477 
L 145.423499 100.855574 
L 153.793499 101.996671 
L 162.163499 103.137768 
L 170.533499 104.278865 
L 178.903499 105.419962 
L 187.273499 106.561059 
L 195.643499 107.702157 
L 204.013499 108.843254 
" clip-path="url(#p46cad2021f)" style="fill: none; stroke: #dc0500; stroke-linecap: square"/>
   </g>
   <g id="line2d_14">
    <path d="M 36.613499 119.676614 
L 44.983499 119.146727 
L 53.353499 118.616839 
L 61.723499 118.086952 
L 70.093499 117.557064 
L 78.463499 117.027177 
L 86.833499 116.497289 
L 95.203499 115.967402 
L 103.573499 115.437514 
L 111.943499 114.907627 
L 120.313499 114.377739 
L 128.683499 113.847852 
L 137.053499 113.317964 
L 145.423499 112.788077 
L 153.793499 112.258189 
L 162.163499 111.728302 
L 170.533499 111.198414 
L 178.903499 110.668527 
L 187.273499 110.138639 
L 195.643499 109.608752 
L 204.013499 109.078864 
" clip-path="url(#p46cad2021f)" style="fill: none; stroke: #ff7f0e; stroke-linecap: square"/>
   </g>
   <g id="patch_3">
    <path d="M 28.243499 142.2 
L 28.243499 3.6 
" style="fill: none; stroke: #000000; stroke-width: 0.5; stroke-linejoin: miter; stroke-linecap: square"/>
   </g>
   <g id="patch_4">
    <path d="M 212.383499 142.2 
L 212.383499 3.6 
" style="fill: none; stroke: #000000; stroke-width: 0.5; stroke-linejoin: miter; stroke-linecap: square"/>
   </g>
   <g id="patch_5">
    <path d="M 28.243499 142.2 
L 212.383499 142.2 
" style="fill: none; stroke: #000000; stroke-width: 0.5; stroke-linejoin: miter; stroke-linecap: square"/>
   </g>
   <g id="patch_6">
    <path d="M 28.243499 3.6 
L 212.383499 3.6 
" style="fill: none; stroke: #000000; stroke-width: 0.5; stroke-linejoin: miter; stroke-linecap: square"/>
   </g>
  </g>
 </g>
 <defs>
  <clipPath id="p46cad2021f">
   <rect x="28.243499" y="3.6" width="184.14" height="138.6"/>
  </clipPath>
 </defs>
</svg>
